<svg xmlns="http://www.w3.org/2000/svg" fill="none" viewBox="0 0 166 147">
  <path fill="url(#a)" d="M163.354 66.6 128.936 6.89A13.794 13.794 0 0 0 117.005 0H48.168A13.73 13.73 0 0 0 36.26 6.89L1.84 66.6a13.81 13.81 0 0 0 0 13.779l34.419 59.71a13.73 13.73 0 0 0 11.908 6.889h68.837a13.73 13.73 0 0 0 11.908-6.889l34.418-59.71a13.75 13.75 0 0 0 .023-13.78Z"/>
  <g fill-rule="evenodd" clip-path="url(#b)" clip-rule="evenodd">
    <path fill="url(#c)" d="M98.983 31.155a11.214 11.214 0 0 0-15.643 0L41.627 72.062a3.74 3.74 0 0 1-5.213 0 3.567 3.567 0 0 1 0-5.114l41.713-40.906a18.69 18.69 0 0 1 26.069 0 17.837 17.837 0 0 1 5.217 15.34 18.634 18.634 0 0 1 15.639 5.113l.217.217a17.823 17.823 0 0 1 3.994 19.722 17.82 17.82 0 0 1-3.994 5.844l-37.726 36.994a1.193 1.193 0 0 0-.36.852 1.192 1.192 0 0 0 .36.851l7.748 7.601a3.564 3.564 0 0 1 0 5.113 3.742 3.742 0 0 1-5.213 0l-7.748-7.596a8.326 8.326 0 0 1-2.522-5.967 8.32 8.32 0 0 1 2.522-5.967l37.726-36.998a10.696 10.696 0 0 0 3.238-7.67 10.706 10.706 0 0 0-3.238-7.67l-.217-.213a11.213 11.213 0 0 0-15.63-.013L73.13 82.076l-.008.009-.425.42a3.74 3.74 0 0 1-5.217 0 3.565 3.565 0 0 1 0-5.113l31.516-30.91a10.705 10.705 0 0 0-.013-15.327Z"/>
    <path fill="url(#d)" d="M93.76 41.384a3.566 3.566 0 0 0 0-5.113 3.74 3.74 0 0 0-5.216 0l-30.85 30.255a17.833 17.833 0 0 0 0 25.567 18.694 18.694 0 0 0 26.07 0l30.853-30.255a3.555 3.555 0 0 0 1.08-2.557 3.557 3.557 0 0 0-1.08-2.557 3.738 3.738 0 0 0-5.217 0L78.55 86.98a11.214 11.214 0 0 1-15.642 0 10.703 10.703 0 0 1 0-15.34L93.76 41.384Z"/>
  </g>
  <defs>
    <linearGradient id="c" x1="130.669" x2="27.06" y1="20.746" y2="115.721" gradientUnits="userSpaceOnUse">
      <stop offset=".19" stop-color="white"/>
      <stop offset=".61" stop-color="white" stop-opacity=".86"/>
      <stop offset="1" stop-color="white" stop-opacity=".6"/>
    </linearGradient>
    <linearGradient id="d" x1="115.697" x2="53.533" y1="35.211" y2="98.601" gradientUnits="userSpaceOnUse">
      <stop offset=".19" stop-color="white"/>
      <stop offset=".61" stop-color="white" stop-opacity=".86"/>
      <stop offset="1" stop-color="white" stop-opacity=".6"/>
    </linearGradient>
    <radialGradient id="a" cx="0" cy="0" r="1" gradientTransform="matrix(165.25 0 0 165.393 124.271 145.064)" gradientUnits="userSpaceOnUse">
      <stop stop-color="#EC991C"/>
      <stop offset="1" stop-color="#E9B213"/>
    </radialGradient>
    <clipPath id="b">
      <path fill="white" d="M31 21h104v104H31z"/>
    </clipPath>
  </defs>
</svg>

