<svg xmlns="http://www.w3.org/2000/svg" fill="none" viewBox="0 0 98 36">
  <path fill="currentColor" d="M3 34.851a3 3 0 0 1-3-3V3.583a3 3 0 0 1 3-3h13.867c4.05 0 7.177.972 9.38 2.917 2.204 1.944 3.306 4.634 3.306 8.068 0 2.269-.502 4.23-1.507 5.882-.972 1.62-2.414 2.884-4.326 3.791-1.699.778-3.717 1.21-6.055 1.296a.686.686 0 0 1-.686-.854.705.705 0 0 1 .686-.539h2.312c1.426 0 2.706.421 3.84 1.264 1.134.81 2.074 1.88 2.82 3.208l2.72 4.742c1.148 2-.296 4.493-2.602 4.493h-4.559a3 3 0 0 1-2.634-1.564l-5.029-9.227c-.259-.486-.68-.826-1.263-1.02a4.92 4.92 0 0 0-1.799-.34.972.972 0 0 0-.972.972v8.18a3 3 0 0 1-3 3H3Zm7.5-22.491a3 3 0 0 0 3 3h1.47c1.492 0 2.626-.276 3.403-.826.778-.584 1.167-1.459 1.167-2.625 0-1.135-.389-1.977-1.167-2.528-.777-.55-1.912-.826-3.402-.826h-1.472a3 3 0 0 0-3 3v.805ZM37.984 34.851a3 3 0 0 1-3-3V3.583a3 3 0 0 1 3-3h14.693c4.05 0 7.096 1.005 9.138 3.014 2.041 1.977 3.062 4.65 3.062 8.02 0 3.338-1.02 6.011-3.062 8.02-2.042 2.01-5.088 3.014-9.138 3.014h-4.194a3 3 0 0 0-3 3v6.2a3 3 0 0 1-3 3h-4.5Zm7.499-23.172a3 3 0 0 0 3 3h2.784c1.231 0 2.139-.259 2.722-.777.583-.551.875-1.313.875-2.285 0-.972-.292-1.717-.875-2.236-.583-.55-1.49-.826-2.722-.826h-2.784a3 3 0 0 0-3 3v.124ZM86.67 35.434c-3.825 0-7.146-.729-9.965-2.187-2.787-1.49-4.958-3.564-6.514-6.222-1.523-2.657-2.284-5.768-2.284-9.332 0-3.565.761-6.66 2.284-9.284 1.556-2.657 3.727-4.715 6.514-6.173C79.524.746 82.845 0 86.669 0c2.333 0 4.472.308 6.416.924 1.184.349 2.246.791 3.186 1.327 1.097.625 1.43 1.988.989 3.171l-1.005 2.694C95.58 9.93 93.41 10.566 91.6 9.88a9.761 9.761 0 0 0-.605-.207c-1.166-.39-2.479-.584-3.937-.584-2.625 0-4.65.746-6.076 2.236-1.393 1.459-2.09 3.581-2.09 6.368 0 2.82.697 4.974 2.09 6.465 1.426 1.458 3.451 2.187 6.076 2.187 1.458 0 2.77-.178 3.937-.535.202-.067.408-.143.619-.228 1.794-.722 3.966-.076 4.641 1.736l1.005 2.694c.44 1.183.108 2.545-.986 3.178-.94.544-2.003 1-3.189 1.37-1.944.583-4.083.874-6.416.874Z"/>
  <path stroke="black" d="M3 34.851a3 3 0 0 1-3-3V3.583a3 3 0 0 1 3-3h13.867c4.05 0 7.177.972 9.38 2.917 2.204 1.944 3.306 4.634 3.306 8.068 0 2.269-.502 4.23-1.507 5.882-.972 1.62-2.414 2.884-4.326 3.791-1.699.778-3.717 1.21-6.055 1.296a.686.686 0 0 1-.686-.854.705.705 0 0 1 .686-.539h2.312c1.426 0 2.706.421 3.84 1.264 1.134.81 2.074 1.88 2.82 3.208l2.72 4.742c1.148 2-.296 4.493-2.602 4.493h-4.559a3 3 0 0 1-2.634-1.564l-5.029-9.227c-.259-.486-.68-.826-1.263-1.02a4.92 4.92 0 0 0-1.799-.34.972.972 0 0 0-.972.972v8.18a3 3 0 0 1-3 3H3Zm7.5-22.491a3 3 0 0 0 3 3h1.47c1.492 0 2.626-.276 3.403-.826.778-.584 1.167-1.459 1.167-2.625 0-1.135-.389-1.977-1.167-2.528-.777-.55-1.912-.826-3.402-.826h-1.472a3 3 0 0 0-3 3v.805ZM37.984 34.851a3 3 0 0 1-3-3V3.583a3 3 0 0 1 3-3h14.693c4.05 0 7.096 1.005 9.138 3.014 2.041 1.977 3.062 4.65 3.062 8.02 0 3.338-1.02 6.011-3.062 8.02-2.042 2.01-5.088 3.014-9.138 3.014h-4.194a3 3 0 0 0-3 3v6.2a3 3 0 0 1-3 3h-4.5Zm7.499-23.172a3 3 0 0 0 3 3h2.784c1.231 0 2.139-.259 2.722-.777.583-.551.875-1.313.875-2.285 0-.972-.292-1.717-.875-2.236-.583-.55-1.49-.826-2.722-.826h-2.784a3 3 0 0 0-3 3v.124ZM86.67 35.434c-3.825 0-7.146-.729-9.965-2.187-2.787-1.49-4.958-3.564-6.514-6.222-1.523-2.657-2.284-5.768-2.284-9.332 0-3.565.761-6.66 2.284-9.284 1.556-2.657 3.727-4.715 6.514-6.173C79.524.746 82.845 0 86.669 0c2.333 0 4.472.308 6.416.924 1.184.349 2.246.791 3.186 1.327 1.097.625 1.43 1.988.989 3.171l-1.005 2.694C95.58 9.93 93.41 10.566 91.6 9.88a9.761 9.761 0 0 0-.605-.207c-1.166-.39-2.479-.584-3.937-.584-2.625 0-4.65.746-6.076 2.236-1.393 1.459-2.09 3.581-2.09 6.368 0 2.82.697 4.974 2.09 6.465 1.426 1.458 3.451 2.187 6.076 2.187 1.458 0 2.77-.178 3.937-.535.202-.067.408-.143.619-.228 1.794-.722 3.966-.076 4.641 1.736l1.005 2.694c.44 1.183.108 2.545-.986 3.178-.94.544-2.003 1-3.189 1.37-1.944.583-4.083.874-6.416.874Z"/>
</svg>
