<?xml version="1.0" standalone="no"?>
<!DOCTYPE svg PUBLIC "-//W3C//DTD SVG 20010904//EN"
 "http://www.w3.org/TR/2001/REC-SVG-20010904/DTD/svg10.dtd">
<svg version="1.0" xmlns="http://www.w3.org/2000/svg"
 width="576.000000pt" height="576.000000pt" viewBox="0 0 576.000000 576.000000"
 preserveAspectRatio="xMidYMid meet">
<metadata>
Created by potrace 1.14, written by Peter Selinger 2001-2017
</metadata>
<g transform="translate(0.000000,576.000000) scale(0.100000,-0.100000)"
fill="#000000" stroke="none">
<path d="M1561 5454 c-30 -8 -80 -28 -113 -46 -119 -63 -123 -69 -745 -1163
-316 -555 -596 -1050 -623 -1100 -80 -148 -97 -258 -62 -387 22 -78 -7 -25
705 -1278 601 -1057 606 -1064 725 -1128 122 -65 50 -62 1427 -62 1362 0 1302
-2 1417 56 29 15 80 54 113 88 54 55 125 176 682 1156 410 722 628 1115 639
1155 25 82 23 211 -5 288 -33 94 -1248 2221 -1302 2281 -59 64 -144 116 -228
138 -61 15 -167 17 -1321 17 -1064 0 -1263 -3 -1309 -15z"/>
</g>
</svg>
