
<svg xmlns="http://www.w3.org/2000/svg" width="85" height="25" fill="none"><path fill="url(#a)" d="M13.134.47h3.188v18.633h-2.455L3.845 6.11v12.994H.667V.47h2.444l10.023 12.994V.47Z"/><path fill="url(#b)" d="M22.668 19.103V.47h3.422v18.633h-3.422Z"/><path fill="url(#c)" d="M47.847.47h2.69v18.633h-2.934V7.58l-5.011 11.523h-2.2L35.38 7.58v11.523h-2.933V.47h2.689l6.355 14.588L47.847.47Z"/><path fill="url(#d)" d="M56.892 19.103V.47h3.422v18.633h-3.422Z"/><path fill="url(#e)" d="M83.176 14.857c-.998 1.986-2.547 3.153-3.921 3.722.161.372.919 1.412 1.491 2.01.572.598 1.173 1.206 1.936 1.824l-2.322 1.839c-.856-.598-1.599-1.314-2.357-2.148-.757-.833-1.403-1.755-1.99-2.78-.141.01-.537.024-.787.024-1.892 0-3.47-.387-4.835-1.157-1.364-.774-2.405-1.883-3.124-3.334-.66-1.32-1.085-3.08-1.085-5.07 0-1.991.366-3.619 1.095-5.07.728-1.447 1.775-2.56 3.138-3.335C71.78.608 73.373.225 75.226.225c1.853 0 3.472.387 4.836 1.157 1.364.775 2.405 1.883 3.124 3.335.723 1.451 1.085 3.079 1.085 5.07 0 1.99-.435 3.756-1.095 5.07Zm-12.09.015c.987 1.186 2.366 1.78 4.14 1.78 1.775 0 3.159-.594 4.141-1.78.988-1.192 1.482-2.869 1.482-5.085 0-2.202-.494-3.918-1.482-5.095-.987-1.177-2.366-1.77-4.14-1.77-1.775 0-3.159.583-4.142 1.755-.987 1.172-1.481 2.893-1.481 5.11 0 2.216.494 3.893 1.481 5.085Z"/><defs><radialGradient id="a" cx="0" cy="0" r="1" gradientTransform="matrix(-15.6546 0 0 -18.6331 16.322 19.103)" gradientUnits="userSpaceOnUse"><stop stop-color="#260133"/><stop offset="1" stop-color="#1F2348"/></radialGradient><radialGradient id="b" cx="0" cy="0" r="1" gradientTransform="matrix(-3.42218 0 0 -18.6331 26.09 19.103)" gradientUnits="userSpaceOnUse"><stop stop-color="#260133"/><stop offset="1" stop-color="#1F2348"/></radialGradient><radialGradient id="c" cx="0" cy="0" r="1" gradientTransform="matrix(-18.0893 0 0 -18.6331 50.536 19.103)" gradientUnits="userSpaceOnUse"><stop stop-color="#260133"/><stop offset="1" stop-color="#1F2348"/></radialGradient><radialGradient id="d" cx="0" cy="0" r="1" gradientTransform="matrix(-3.42218 0 0 -18.6331 60.314 19.103)" gradientUnits="userSpaceOnUse"><stop stop-color="#260133"/><stop offset="1" stop-color="#1F2348"/></radialGradient><radialGradient id="e" cx="0" cy="0" r="1" gradientTransform="matrix(-18.0893 0 0 -24.0269 84.271 24.252)" gradientUnits="userSpaceOnUse"><stop stop-color="#260133"/><stop offset="1" stop-color="#1F2348"/></radialGradient></defs></svg>
