<svg fill="none" viewBox="0 0 2081 1159" xmlns="http://www.w3.org/2000/svg"><path d="M255.5 88.6c-4.4 0-8.2-1-11.5-2.8-3.2-2-5.8-4.7-7.5-8.2a27.9 27.9 0 0 1-2.7-12.4c0-4.8 1-8.9 2.7-12.4 1.7-3.5 4.2-6.3 7.4-8.1a23 23 0 0 1 11.6-2.8c4.5 0 8.3.9 11.5 2.8 3.3 1.8 5.8 4.6 7.5 8.1 1.8 3.5 2.7 7.6 2.7 12.4 0 4.7-1 8.9-2.7 12.4a19.2 19.2 0 0 1-7.5 8.2 23 23 0 0 1-11.5 2.8zm0-6.6a12 12 0 0 0 9.9-4.4c2.3-2.9 3.5-7 3.5-12.4a19 19 0 0 0-3.5-12.4 12 12 0 0 0-9.9-4.4 12 12 0 0 0-9.8 4.3c-2.4 2.9-3.5 7-3.5 12.5 0 5.4 1.1 9.5 3.5 12.4a12 12 0 0 0 9.8 4.4zm39.7-20.3v14.5c0 3.8 1.8 5.7 5.3 5.7 1 0 2-.2 3.2-.6v6.4a15 15 0 0 1-5 .7c-3.8 0-6.6-1-8.5-3-2-2-3-5-3-8.9V61.7H281v-6h6.2v-7.9l8-2.7v10.6h8.6v6h-8.6zm32.6-6.9c7.7 0 11.6 4.5 11.6 13.4V88h-8V68.5c0-2.5-.5-4.4-1.5-5.5-1-1.2-2.5-1.8-4.5-1.8a8 8 0 0 0-6 2.4 8.4 8.4 0 0 0-2.2 6.1V88h-8V40.9h8v19.5c1.1-1.8 2.6-3.1 4.4-4 1.9-1 4-1.6 6.2-1.6zM376 72.3h-22c.1 3.4 1 6 2.5 7.6 1.6 1.7 4 2.5 7 2.5a16 16 0 0 0 9.9-3.5l2.3 5.5a18.5 18.5 0 0 1-5.7 3 23 23 0 0 1-6.8 1.1 17 17 0 0 1-12.5-4.5c-3-3-4.5-7-4.5-12.3 0-3.2.6-6.2 2-8.7a14 14 0 0 1 5.5-6c2.4-1.4 5.1-2.2 8.1-2.2 4.5 0 8 1.5 10.5 4.4a17 17 0 0 1 4 11.8v1.3zm-14-11.7c-2.1 0-3.9.6-5.2 2A9.2 9.2 0 0 0 354 68h15c-.2-2.5-1-4.3-2.2-5.5a6.6 6.6 0 0 0-5-1.9zm38.4-5.7a9 9 0 0 1 3.2.5v7.3c-1.4-.5-2.8-.8-4.3-.8-2.7 0-4.8.8-6.2 2.4a9 9 0 0 0-2.1 6.2V88h-8V64.8c0-3.4-.2-6.4-.5-9.1h7.5l.6 5.7a9.3 9.3 0 0 1 3.9-4.8c1.7-1.1 3.7-1.7 6-1.7zm53.8 9.5a11 11 0 0 1 6.1 4c1.5 2 2.2 4.4 2.2 7.2 0 3.9-1.4 7-4.2 9.1a18 18 0 0 1-11.4 3.3H426V42.4h20c4.7 0 8.4 1.1 11.1 3.2 2.7 2.1 4 5 4 8.7a10.5 10.5 0 0 1-7 10.1zm-20-2.8h10.7c5.7 0 8.6-2.1 8.6-6.4 0-2.1-.7-3.7-2.1-4.8-1.4-1-3.6-1.6-6.5-1.6h-10.6v12.8zm11.8 20c3 0 5.2-.5 6.5-1.6 1.4-1 2.1-2.8 2.1-5 0-2.4-.7-4.1-2-5.2-1.4-1.1-3.6-1.7-6.6-1.7h-11.7v13.5H446zm23.8 6.4V40.9h8V88h-8zm31.4.5a18 18 0 0 1-8.7-2 14.3 14.3 0 0 1-5.8-5.9c-1.3-2.5-2-5.5-2-9 0-3.3.7-6.3 2-8.8 1.4-2.6 3.3-4.5 5.8-5.9a18 18 0 0 1 8.7-2c3.2 0 6 .6 8.5 2s4.4 3.3 5.7 5.9a18 18 0 0 1 2 8.9c0 3.4-.6 6.4-2 9a13.9 13.9 0 0 1-5.7 5.8c-2.4 1.3-5.3 2-8.5 2zm0-6.3c2.6 0 4.7-.8 6.1-2.6 1.5-1.8 2.2-4.4 2.2-8 0-3.4-.7-6-2.2-7.8a7.4 7.4 0 0 0-6.1-2.7c-2.7 0-4.8.9-6.2 2.7-1.5 1.8-2.2 4.4-2.2 7.9s.7 6.1 2.1 8a7.6 7.6 0 0 0 6.2 2.5zm37.8 6.3c-3.3 0-6.2-.7-8.7-2a14 14 0 0 1-5.7-5.8 19 19 0 0 1-2-8.8c0-3.4.7-6.4 2-9a15 15 0 0 1 6-5.9c2.5-1.4 5.4-2.2 8.8-2.2 2.3 0 4.5.4 6.6 1.1a13 13 0 0 1 5.2 3l-2.2 5.7a15 15 0 0 0-9-3.4c-2.8 0-5 .9-6.7 2.7-1.6 1.8-2.4 4.4-2.4 7.8 0 3.5.7 6 2.3 7.9a8.8 8.8 0 0 0 6.9 2.6c1.5 0 3-.3 4.5-.9 1.5-.6 3-1.4 4.4-2.5l2.2 5.6a14.2 14.2 0 0 1-5.3 3c-2.2.7-4.5 1.1-6.9 1.1zm49.6-.5h-10l-14-15v15h-8V40.9h8v29l13.2-14.2h9.7L573 71.2 588.5 88zm17.4.5c-3.3 0-6.2-.7-8.7-2a14 14 0 0 1-5.7-5.8 19 19 0 0 1-2-8.8c0-3.4.7-6.4 2-9a15 15 0 0 1 6-5.9c2.5-1.4 5.4-2.2 8.8-2.2 2.3 0 4.5.4 6.6 1.1a13 13 0 0 1 5.2 3l-2.2 5.7a15 15 0 0 0-9-3.4c-2.8 0-5 .9-6.7 2.7-1.6 1.8-2.4 4.4-2.4 7.8 0 3.5.7 6 2.3 7.9a8.8 8.8 0 0 0 6.9 2.6c1.5 0 3-.3 4.5-.9 1.5-.6 3-1.4 4.4-2.5l2.2 5.6a14.2 14.2 0 0 1-5.3 3c-2.2.7-4.5 1.1-6.9 1.1zm36-33.7c7.8 0 11.7 4.5 11.7 13.4V88h-8V68.5c0-2.5-.5-4.4-1.5-5.5-1-1.2-2.5-1.8-4.6-1.8-2.4 0-4.4.8-5.8 2.4a8.4 8.4 0 0 0-2.3 6.1V88h-8V40.9h8v19.5c1.1-1.8 2.6-3.1 4.4-4 1.9-1 4-1.6 6.2-1.6zm51 .9V88h-7.8v-5.2c-1 1.8-2.4 3.2-4.2 4.2a13 13 0 0 1-6.3 1.5c-2.8 0-5.3-.7-7.5-2a13.5 13.5 0 0 1-5-5.9 20.2 20.2 0 0 1-1.9-8.7c0-3.4.6-6.3 1.8-8.9 1.3-2.6 3-4.6 5.2-6a13 13 0 0 1 7.4-2.2c2.3 0 4.4.6 6.3 1.6a11 11 0 0 1 4.2 4.1v-4.8h7.9zm-16.1 26.5c2.6 0 4.7-.9 6.1-2.7 1.5-1.8 2.2-4.4 2.2-7.8 0-3.4-.7-6-2.2-7.8a7.5 7.5 0 0 0-6.2-2.8c-2.7 0-4.7 1-6.2 2.9a12.6 12.6 0 0 0-2.2 7.9c0 3.3.7 5.9 2.2 7.7a7.7 7.7 0 0 0 6.3 2.6zm24.9 5.8V55.7h7.9V88h-8zm-.5-47h8.8v8h-8.8v-8zm35.6 13.8c7.8 0 11.6 4.5 11.6 13.4V88h-8V68.5c0-2.5-.5-4.4-1.4-5.5-1-1.2-2.5-1.8-4.6-1.8-2.4 0-4.4.8-5.9 2.4a8.4 8.4 0 0 0-2.2 6.1V88h-8V64.8c0-3.4-.1-6.4-.5-9.1h7.5l.6 5.3c1.1-2 2.6-3.5 4.5-4.6 1.9-1 4-1.6 6.4-1.6zm32 33.7c-5.9 0-10.5-1.4-14-4l2.2-5.7c3.5 2.5 7.4 3.8 11.9 3.8 1.9 0 3.4-.3 4.4-1A3 3 0 0 0 775 79a3 3 0 0 0-1-2.3c-.8-.6-2-1.1-3.8-1.6l-5.4-1.2c-5.9-1.3-8.8-4.3-8.8-9a8 8 0 0 1 1.7-5.2c1-1.5 2.6-2.7 4.6-3.6a20.5 20.5 0 0 1 19.3 2.8l-2.4 5.5a16.7 16.7 0 0 0-10-3.6c-1.8 0-3.2.3-4.2 1s-1.6 1.6-1.6 2.8c0 1 .3 1.7 1 2.3a8 8 0 0 0 3.1 1.4l5.5 1.2a14 14 0 0 1 7 3.4 8 8 0 0 1 2.2 5.9 8 8 0 0 1-3.6 7 16.3 16.3 0 0 1-9.7 2.7zm-699.2 88v-15.4l.8 2.8-14.3-21.6h4.6l11.5 17.9H71l11.5-17.9H87L72.8 164l.8-2.8v15.4h-4zm26.6.3c-2.3 0-4.4-.5-6-1.5a9.8 9.8 0 0 1-4-4.3 15 15 0 0 1-1.5-6.7c0-2.5.5-4.7 1.4-6.6a10.6 10.6 0 0 1 10-6c2.4 0 4.4.6 6 1.6 1.8 1 3.1 2.5 4 4.4 1 1.9 1.5 4 1.5 6.6 0 2.6-.5 4.8-1.4 6.7a11 11 0 0 1-4 4.3c-1.7 1-3.7 1.5-6 1.5zm0-3.2c2.3 0 4.2-.8 5.4-2.3 1.4-1.6 2-4 2-7s-.6-5.3-2-6.9a6.7 6.7 0 0 0-5.4-2.4 7 7 0 0 0-5.6 2.4c-1.3 1.6-2 4-2 7s.7 5.3 2 6.9a6.9 6.9 0 0 0 5.6 2.3zm26 3.2c-2.9 0-5-.8-6.5-2.4-1.5-1.6-2.2-4-2.2-7v-15h3.9v14.8c0 2.2.4 3.8 1.3 4.8 1 1 2.3 1.6 4.1 1.6a7 7 0 0 0 5.2-2c1.3-1.5 2-3.3 2-5.6v-13.6h3.9v24.1h-3.8v-5.2l.5-.3a8 8 0 0 1-3.2 4.3 9.2 9.2 0 0 1-5.2 1.5zm19.2-.3v-17.4a58.9 58.9 0 0 0-.4-6.7h3.7l.5 6-.5-.2a7.5 7.5 0 0 1 2.8-4.8 8.4 8.4 0 0 1 7.3-1.3l-.1 3.5c-.7-.2-1.6-.4-2.5-.4-1.7 0-3 .4-4 1.1-1 .8-1.8 1.7-2.3 2.9a9.5 9.5 0 0 0-.7 3.5v13.8h-3.8zm29.9 0v-35.3h3.8v17.3l-.5-.4a8 8 0 0 1 3.1-4.6 9.2 9.2 0 0 1 5.6-1.7c2.2 0 4 .5 5.6 1.5 1.6 1 2.9 2.5 3.8 4.3a15 15 0 0 1 1.4 6.6c0 2.5-.5 4.8-1.4 6.7-1 1.9-2.2 3.3-3.8 4.4-1.6 1-3.5 1.5-5.6 1.5-2.2 0-4-.5-5.6-1.6a8 8 0 0 1-3-4.7l.4-.5v6.5h-3.8zm11.3-2.9a7 7 0 0 0 5.5-2.4c1.3-1.7 2-4 2-7 0-2.9-.7-5.2-2-6.8a6.7 6.7 0 0 0-5.5-2.4c-2.4 0-4.3.9-5.5 2.5-1.3 1.6-2 3.9-2 6.8 0 3 .7 5.3 2 7a6.7 6.7 0 0 0 5.5 2.3zm17.4 2.9v-17.4a58.9 58.9 0 0 0-.3-6.7h3.7l.5 6-.5-.2a7.5 7.5 0 0 1 2.8-4.8 8.4 8.4 0 0 1 7.3-1.3l-.1 3.5c-.8-.2-1.6-.4-2.6-.4a7 7 0 0 0-4 1.1 7 7 0 0 0-2.2 2.9 9.5 9.5 0 0 0-.7 3.5v13.8h-3.9zm27 .3c-2.4 0-4.4-.5-6.1-1.5a11 11 0 0 1-4-4.3 15 15 0 0 1-1.4-6.7c0-2.5.5-4.7 1.4-6.6a10.6 10.6 0 0 1 10-6c2.4 0 4.4.6 6 1.6 1.8 1 3.1 2.5 4 4.4 1 1.9 1.5 4 1.5 6.6 0 2.6-.5 4.8-1.5 6.7a9.8 9.8 0 0 1-4 4.3c-1.6 1-3.6 1.5-6 1.5zm0-3.2c2.3 0 4.1-.8 5.4-2.3 1.3-1.6 2-4 2-7s-.7-5.3-2-6.9a6.7 6.7 0 0 0-5.5-2.4 7 7 0 0 0-5.5 2.4c-1.3 1.6-2 4-2 7s.7 5.3 2 6.9a6.9 6.9 0 0 0 5.5 2.3zm23.6 2.9l-8.9-24.1h4l7.5 21.2h-1.2l7.7-21.2h3.4l7.5 21.2h-1.2l7.6-21.2h3.8l-8.9 24.1h-3.7l-8-21.7h2.1l-8 21.7h-3.7zm43 .3c-4 0-7.3-1-9.6-3l1.3-3c1.2 1 2.5 1.8 3.9 2.2 1.4.5 2.9.7 4.6.7 1.8 0 3.2-.3 4-.9a3 3 0 0 0 1.5-2.7c0-1-.3-1.7-1-2.3-.6-.6-1.6-1-3.1-1.4l-4-1a9 9 0 0 1-4.8-2.3 5.8 5.8 0 0 1-1.6-4.2c0-1.4.4-2.6 1.1-3.7a9 9 0 0 1 3.2-2.5 14 14 0 0 1 9.7-.1c1.5.5 2.8 1.3 3.8 2.3l-1.3 2.9a9.9 9.9 0 0 0-3.5-2.1 9.9 9.9 0 0 0-3.8-.8 7 7 0 0 0-4 1c-1 .7-1.4 1.6-1.4 2.8 0 1 .3 1.8.9 2.3.6.6 1.5 1 2.9 1.4l4 1c2.3.5 4 1.3 5 2.4 1.1 1 1.7 2.5 1.7 4.2 0 2-.9 3.7-2.6 5-1.7 1.2-4 1.8-6.9 1.8zm35.4-3.2c-1 1-2.4 1.8-4 2.4a15 15 0 0 1-11.6-.7c-1.8-1-3.1-2.4-4.1-4.2-1-2-1.5-4.2-1.5-6.7s.5-4.7 1.5-6.6c1-2 2.2-3.4 4-4.4a11.6 11.6 0 0 1 11.4-.2 9 9 0 0 1 3.5 4c.9 1.8 1.3 4 1.3 6.4v.7h-18.3v-2.5h16l-1.2 1.7c0-2.8-.5-5-1.7-6.4a5.9 5.9 0 0 0-5-2.3c-2.4 0-4.2.8-5.6 2.5-1.3 1.6-2 3.9-2 6.8 0 3.2.7 5.5 2.1 7.1 1.4 1.6 3.5 2.4 6.2 2.4a12.1 12.1 0 0 0 7.7-2.8l1.3 2.8zm6.4 2.9v-17.4a58.9 58.9 0 0 0-.4-6.7h3.7l.5 6-.5-.2a7.5 7.5 0 0 1 2.9-4.8 8.4 8.4 0 0 1 7.2-1.3v3.5c-.8-.2-1.7-.4-2.6-.4-1.7 0-3 .4-4 1.1-1 .8-1.8 1.7-2.3 2.9a9.5 9.5 0 0 0-.6 3.5v13.8h-4zm29.9 0v-17.4a58.9 58.9 0 0 0-.4-6.7h3.7l.4 5-.5.3a8 8 0 0 1 3.4-4.4 10 10 0 0 1 5.4-1.5c5.8 0 8.7 3.2 8.7 9.5v15.2h-3.9v-15c0-2.2-.4-3.8-1.3-4.9-1-1-2.3-1.6-4.2-1.6-2.3 0-4 .7-5.4 2.1a7.6 7.6 0 0 0-2 5.6v13.8h-4zm47.8-2.9c-1 1-2.4 1.8-4 2.4a15 15 0 0 1-11.6-.7 9.8 9.8 0 0 1-4.1-4.2c-1-2-1.5-4.2-1.5-6.7s.5-4.7 1.5-6.6c1-2 2.2-3.4 4-4.4a11.6 11.6 0 0 1 11.4-.2c1.5 1 2.7 2.3 3.5 4 .8 1.8 1.3 4 1.3 6.4v.7h-18.3v-2.5h16l-1.2 1.7c0-2.8-.5-5-1.7-6.4a5.9 5.9 0 0 0-5-2.3c-2.4 0-4.2.8-5.6 2.5-1.3 1.6-2 3.9-2 6.8 0 3.2.7 5.5 2.1 7.1 1.4 1.6 3.5 2.4 6.2 2.4a12.1 12.1 0 0 0 7.7-2.8l1.3 2.8zm26.1 0c-1 1-2.4 1.8-4 2.4a15 15 0 0 1-11.6-.7c-1.8-1-3.1-2.4-4.1-4.2-1-2-1.5-4.2-1.5-6.7s.5-4.7 1.5-6.6c1-2 2.3-3.4 4-4.4a11.6 11.6 0 0 1 11.4-.2 9 9 0 0 1 3.5 4c.9 1.8 1.3 4 1.3 6.4v.7h-18.3v-2.5h16l-1.2 1.7c0-2.8-.5-5-1.7-6.4a5.9 5.9 0 0 0-5-2.3c-2.4 0-4.2.8-5.6 2.5-1.3 1.6-2 3.9-2 6.8 0 3.2.7 5.5 2.1 7.1 1.4 1.6 3.5 2.4 6.2 2.4a12.1 12.1 0 0 0 7.7-2.8l1.3 2.8zm27.6 2.9h-3.8V170l.6.5a8 8 0 0 1-3.1 4.7 9.5 9.5 0 0 1-5.7 1.6c-2 0-4-.5-5.6-1.5a10 10 0 0 1-3.7-4.4 16.9 16.9 0 0 1-.1-13.3c1-1.8 2.2-3.3 3.8-4.3 1.6-1 3.5-1.5 5.6-1.5 2.2 0 4.1.5 5.7 1.7a8 8 0 0 1 3 4.6l-.6.4v-17.3h4v35.3zm-11.2-2.9c2.3 0 4.2-.8 5.4-2.4 1.3-1.6 2-4 2-6.9 0-3-.6-5.2-2-6.8a6.5 6.5 0 0 0-5.4-2.5 7 7 0 0 0-5.6 2.4c-1.3 1.6-2 3.9-2 6.8 0 3 .7 5.3 2 7a6.8 6.8 0 0 0 5.6 2.4zm27 3.2c-4.1 0-7.4-1-9.7-3l1.3-3c1.2 1 2.6 1.8 3.9 2.2 1.4.5 2.9.7 4.6.7 1.8 0 3.2-.3 4-.9a3 3 0 0 0 1.5-2.7c0-1-.3-1.7-1-2.3-.6-.6-1.6-1-3.1-1.4l-4-1a9 9 0 0 1-4.8-2.3 5.8 5.8 0 0 1-1.6-4.2c0-1.4.4-2.6 1.1-3.7.8-1 1.9-1.9 3.3-2.5 1.3-.6 3-1 4.8-1 1.7 0 3.3.4 4.8.9a9 9 0 0 1 3.8 2.3l-1.3 2.9a9.9 9.9 0 0 0-3.5-2.1 9.9 9.9 0 0 0-3.8-.8 7 7 0 0 0-4 1c-1 .7-1.4 1.6-1.4 2.8 0 1 .3 1.8.9 2.3.6.6 1.6 1 2.9 1.4l4 1c2.3.5 4 1.3 5 2.4 1.1 1 1.7 2.5 1.7 4.2 0 2-.9 3.7-2.6 5-1.7 1.2-4 1.8-6.9 1.8zm24.7-21.4v-3h15.5v3h-15.5zm15.4 17.6v3.4l-1.6.3-1.8.1c-2.2 0-4-.6-5.4-1.9-1.3-1.3-2-3.2-2-5.7v-23l4-1.4v23.8c0 1.3.1 2.3.5 3 .4.7.9 1.2 1.5 1.5.7.2 1.4.4 2.2.4a8 8 0 0 0 2.6-.5zm14.7 3.8c-2.3 0-4.3-.5-6-1.5a11 11 0 0 1-4-4.3 15 15 0 0 1-1.4-6.7c0-2.5.5-4.7 1.4-6.6a10.6 10.6 0 0 1 10-6c2.4 0 4.4.6 6 1.6 1.8 1 3.1 2.5 4 4.4 1 1.9 1.5 4 1.5 6.6 0 2.6-.5 4.8-1.5 6.7a9.8 9.8 0 0 1-4 4.3c-1.6 1-3.6 1.5-6 1.5zm0-3.2c2.4 0 4.2-.8 5.5-2.3 1.3-1.6 2-4 2-7s-.7-5.3-2-6.9a6.7 6.7 0 0 0-5.5-2.4 7 7 0 0 0-5.5 2.4c-1.3 1.6-2 4-2 7s.7 5.3 2 6.9a6.9 6.9 0 0 0 5.5 2.3zm40.2 3.2c-2.4 0-4.4-.5-6.2-1.5a11 11 0 0 1-4-4.3c-1-1.9-1.4-4-1.4-6.6 0-2.5.5-4.7 1.4-6.6a11 11 0 0 1 4.1-4.4 13 13 0 0 1 14.7 1.6l-1.2 2.8a14 14 0 0 0-3.5-2 8.8 8.8 0 0 0-3.5-.8c-2.5 0-4.4.9-5.8 2.5-1.5 1.6-2.2 4-2.2 6.9 0 3 .7 5.2 2.2 6.8a7.3 7.3 0 0 0 5.8 2.4c1.1 0 2.3-.2 3.5-.7 1.1-.4 2.3-1.1 3.5-2l1.3 2.8a11 11 0 0 1-4 2.3c-1.5.6-3 .8-4.7.8zm23.6 0c-2.3 0-4.3-.5-6-1.5a11 11 0 0 1-4-4.3 15 15 0 0 1-1.4-6.7c0-2.5.4-4.7 1.4-6.6a10.6 10.6 0 0 1 10-6 10.7 10.7 0 0 1 10 6c1 1.9 1.4 4 1.4 6.6 0 2.6-.5 4.8-1.4 6.7a11 11 0 0 1-4 4.3c-1.7 1-3.7 1.5-6 1.5zm0-3.2c2.4 0 4.2-.8 5.5-2.3 1.3-1.6 2-4 2-7s-.7-5.3-2-6.9a6.7 6.7 0 0 0-5.5-2.4c-2.3 0-4.2.8-5.5 2.4-1.3 1.6-2 4-2 7s.7 5.3 2 6.9a6.9 6.9 0 0 0 5.5 2.3zm17.5 2.9v-17.4a58.9 58.9 0 0 0-.4-6.7h3.7l.4 5-.5.3a8 8 0 0 1 3.4-4.4 10 10 0 0 1 5.4-1.5c5.8 0 8.7 3.2 8.7 9.5v15.2h-3.9v-15c0-2.2-.4-3.8-1.3-4.9-1-1-2.3-1.6-4.2-1.6-2.3 0-4 .7-5.4 2.1a7.6 7.6 0 0 0-2 5.6v13.8h-4zm28 0v-17.4a58.9 58.9 0 0 0-.3-6.7h3.7l.4 5-.5.3a8 8 0 0 1 3.4-4.4 10 10 0 0 1 5.4-1.5c5.8 0 8.7 3.2 8.7 9.5v15.2h-3.9v-15c0-2.2-.4-3.8-1.3-4.9-1-1-2.3-1.6-4.3-1.6a7 7 0 0 0-5.3 2.1 7.6 7.6 0 0 0-2 5.6v13.8h-4zm48-2.9c-1.1 1-2.5 1.8-4.2 2.4a15 15 0 0 1-11.5-.7c-1.8-1-3.2-2.4-4.2-4.2-1-2-1.4-4.2-1.4-6.7s.5-4.7 1.4-6.6c1-2 2.3-3.4 4-4.4a12 12 0 0 1 11.5-.2c1.5 1 2.7 2.3 3.5 4 .8 1.8 1.2 4 1.2 6.4v.7H677v-2.5h16l-1.2 1.7c0-2.8-.5-5-1.7-6.4a5.9 5.9 0 0 0-5-2.3c-2.4 0-4.3.8-5.6 2.5-1.3 1.6-2 3.9-2 6.8 0 3.2.7 5.5 2.1 7.1 1.4 1.6 3.5 2.4 6.1 2.4a12.1 12.1 0 0 0 7.8-2.8l1.3 2.8zm16.4 3.2c-2.4 0-4.4-.5-6.2-1.5a11 11 0 0 1-4-4.3c-1-1.9-1.4-4-1.4-6.6 0-2.5.5-4.7 1.4-6.6a11 11 0 0 1 4.1-4.4 13 13 0 0 1 14.7 1.6l-1.2 2.8a14 14 0 0 0-3.5-2 8.8 8.8 0 0 0-3.5-.8c-2.5 0-4.4.9-5.8 2.5-1.5 1.6-2.2 4-2.2 6.9 0 3 .7 5.2 2.2 6.8a7.3 7.3 0 0 0 5.8 2.4c1.1 0 2.3-.2 3.5-.7 1.1-.4 2.3-1.1 3.5-2l1.3 2.8a11 11 0 0 1-4 2.3c-1.5.6-3 .8-4.7.8zm10.3-21.4v-3H737v3h-15.5zm15.4 17.6v3.4l-1.7.3-1.7.1c-2.2 0-4-.6-5.4-1.9-1.3-1.3-2-3.2-2-5.7v-23l4-1.4v23.8c0 1.3.1 2.3.5 3 .4.7.9 1.2 1.5 1.5.6.2 1.4.4 2.2.4a8 8 0 0 0 2.6-.5zm13.9-17.6v-3h15.5v3h-15.5zm15.4 17.6v3.4l-1.7.3-1.7.1c-2.2 0-4-.6-5.4-1.9-1.3-1.3-2-3.2-2-5.7v-23l4-1.4v23.8c0 1.3.1 2.3.5 3 .4.7.9 1.2 1.5 1.5.6.2 1.4.4 2.2.4a8 8 0 0 0 2.6-.5zm14.7 3.8c-2.3 0-4.3-.5-6-1.5a11 11 0 0 1-4-4.3 15 15 0 0 1-1.4-6.7c0-2.5.5-4.7 1.4-6.6a10.6 10.6 0 0 1 10-6c2.3 0 4.3.6 6 1.6 1.8 1 3 2.5 4 4.4 1 1.9 1.4 4 1.4 6.6a14 14 0 0 1-1.4 6.7c-1 1.8-2.2 3.3-4 4.3-1.7 1-3.7 1.5-6 1.5zm0-3.2c2.4 0 4.2-.8 5.5-2.3 1.3-1.6 2-4 2-7s-.7-5.3-2-6.9a6.7 6.7 0 0 0-5.5-2.4c-2.3 0-4.2.8-5.5 2.4-1.3 1.6-2 4-2 7s.7 5.3 2 6.9a6.9 6.9 0 0 0 5.5 2.3zm39.3 3.2c-2.2 0-4-.5-5.7-1.5a9.8 9.8 0 0 1-3.7-4.3 15 15 0 0 1-1.3-6.6c0-2.5.4-4.7 1.3-6.6a10.1 10.1 0 0 1 9.4-6c2.2 0 4 .5 5.6 1.6a8 8 0 0 1 3.1 4.7l-.6.4v-6.1h3.9v24.1h-3.9v-6.2l.6.2a8 8 0 0 1-3.1 4.7 9.5 9.5 0 0 1-5.6 1.6zm.8-3.2c2.3 0 4.1-.8 5.4-2.4 1.3-1.6 2-4 2-6.9 0-3-.7-5.3-2-6.9a6.5 6.5 0 0 0-5.4-2.4 7 7 0 0 0-5.6 2.5c-1.3 1.7-2 4-2 6.9 0 3 .7 5.2 2 6.8a6.9 6.9 0 0 0 5.6 2.4zm31.2 2.9v-17.4a58.9 58.9 0 0 0-.4-6.7h3.7l.5 5-.5.3c.7-2 1.8-3.4 3.3-4.4a10 10 0 0 1 5.5-1.5c5.8 0 8.7 3.2 8.7 9.5v15.2h-4v-15c0-2.2-.4-3.8-1.3-4.9-.9-1-2.3-1.6-4.2-1.6-2.2 0-4 .7-5.4 2.1a7.6 7.6 0 0 0-2 5.6v13.8h-3.9zm38 .3c-2.2 0-4.2-.5-6-1.5a11 11 0 0 1-4-4.3 15 15 0 0 1-1.3-6.7c0-2.5.4-4.7 1.4-6.6a10.6 10.6 0 0 1 10-6 10.7 10.7 0 0 1 10 6c1 1.9 1.4 4 1.4 6.6 0 2.6-.5 4.8-1.4 6.7a11 11 0 0 1-4 4.3c-1.7 1-3.7 1.5-6 1.5zm0-3.2a7 7 0 0 0 5.6-2.3c1.3-1.6 2-4 2-7s-.7-5.3-2-6.9a6.7 6.7 0 0 0-5.5-2.4c-2.4 0-4.2.8-5.5 2.4-1.3 1.6-2 4-2 7s.6 5.3 2 6.9a6.9 6.9 0 0 0 5.5 2.3zm38.8 2.9h-3.8V170l.6.5a8 8 0 0 1-3.2 4.7 9.5 9.5 0 0 1-5.6 1.6c-2 0-4-.5-5.6-1.5a10 10 0 0 1-3.7-4.4 16.9 16.9 0 0 1-.1-13.3c1-1.8 2.2-3.3 3.8-4.3 1.6-1 3.5-1.5 5.6-1.5 2.2 0 4.1.5 5.6 1.7a8 8 0 0 1 3.2 4.6l-.7.4v-17.3h4v35.3zm-11.2-2.9c2.3 0 4.1-.8 5.4-2.4 1.3-1.6 2-4 2-6.9 0-3-.6-5.2-2-6.8a6.5 6.5 0 0 0-5.4-2.5 7 7 0 0 0-5.6 2.4c-1.3 1.6-2 3.9-2 6.8 0 3 .7 5.3 2 7a6.8 6.8 0 0 0 5.6 2.4zm38.5 0c-1 1-2.4 1.8-4 2.4a15 15 0 0 1-11.6-.7c-1.8-1-3.2-2.4-4.2-4.2-1-2-1.4-4.2-1.4-6.7s.5-4.7 1.4-6.6c1-2 2.3-3.4 4-4.4a12 12 0 0 1 11.5-.2c1.5 1 2.7 2.3 3.5 4 .8 1.8 1.3 4 1.3 6.4v.7h-18.3v-2.5h16l-1.2 1.7c0-2.8-.5-5-1.7-6.4a5.9 5.9 0 0 0-5-2.3c-2.4 0-4.2.8-5.6 2.5-1.3 1.6-2 3.9-2 6.8 0 3.2.7 5.5 2.1 7.1 1.4 1.6 3.5 2.4 6.2 2.4a12.1 12.1 0 0 0 7.7-2.8l1.3 2.8zM54.5 234.5v-24.1h3.9v24.1h-4zm-.4-34.4h4.7v4.4h-4.7v-4.4zm11.8 34.4v-17.4a58.9 58.9 0 0 0-.4-6.7h3.7l.5 5-.5.3c.7-2 1.8-3.4 3.3-4.4a10 10 0 0 1 5.5-1.5c5.8 0 8.7 3.2 8.7 9.5v15.2h-4v-15c0-2.2-.4-3.8-1.3-4.9-.9-1-2.3-1.6-4.2-1.6-2.2 0-4 .7-5.4 2.1a7.6 7.6 0 0 0-2 5.6v13.8h-3.9zm50.6.3c-2.3 0-4.3-.5-6-1.5-1.8-1-3-2.5-4-4.3a15 15 0 0 1-1.4-6.7c0-2.5.4-4.7 1.4-6.6a10.6 10.6 0 0 1 10-6 10.7 10.7 0 0 1 10 6c1 1.9 1.4 4 1.4 6.6 0 2.6-.5 4.8-1.4 6.7a11 11 0 0 1-4 4.3c-1.7 1-3.7 1.5-6 1.5zm0-3.2c2.4 0 4.2-.8 5.5-2.3 1.3-1.6 2-4 2-7s-.7-5.3-2-6.9a6.7 6.7 0 0 0-5.5-2.4c-2.3 0-4.2.8-5.5 2.4-1.3 1.6-2 4-2 7s.6 5.3 2 6.9a6.9 6.9 0 0 0 5.5 2.3zm17.5 2.9v-17.4a58.9 58.9 0 0 0-.4-6.7h3.7l.5 6-.5-.2a7.5 7.5 0 0 1 2.9-4.8 8.4 8.4 0 0 1 7.2-1.3v3.5c-.8-.2-1.7-.4-2.6-.4-1.7 0-3 .4-4 1.1-1 .8-1.8 1.7-2.3 2.9a9.5 9.5 0 0 0-.6 3.5v13.8h-4zm38.2 0h-3.9V228l.6.5a8 8 0 0 1-3.1 4.7 9.5 9.5 0 0 1-5.6 1.6c-2.1 0-4-.5-5.7-1.5a10 10 0 0 1-3.7-4.4c-.9-2-1.3-4.2-1.3-6.7s.4-4.7 1.3-6.6c.9-1.8 2.1-3.3 3.7-4.3s3.5-1.5 5.7-1.5 4 .5 5.6 1.7a8 8 0 0 1 3.1 4.6l-.6.4v-17.3h3.9v35.3zm-11.3-2.9c2.4 0 4.2-.8 5.5-2.4 1.3-1.6 2-4 2-6.9 0-3-.7-5.2-2-6.8a6.5 6.5 0 0 0-5.5-2.5c-2.3 0-4.2.8-5.5 2.4-1.3 1.6-2 3.9-2 6.8 0 3 .7 5.3 2 7a6.8 6.8 0 0 0 5.5 2.4zm38.6 0c-1.1 1-2.5 1.8-4.1 2.4a15 15 0 0 1-11.5-.7c-1.8-1-3.2-2.4-4.2-4.2-1-2-1.5-4.2-1.5-6.7s.5-4.7 1.5-6.6c1-2 2.3-3.4 4-4.4a11.7 11.7 0 0 1 11.4-.2 9 9 0 0 1 3.5 4c.9 1.8 1.3 4 1.3 6.4v.7h-18.3v-2.5h16l-1.2 1.7c.1-2.8-.5-5-1.6-6.4a6.2 6.2 0 0 0-5.1-2.3c-2.4 0-4.2.8-5.6 2.5-1.3 1.6-2 3.9-2 6.8 0 3.2.8 5.5 2.1 7.1a8 8 0 0 0 6.2 2.4 12.1 12.1 0 0 0 7.8-2.8l1.3 2.8zm6.3 2.9v-17.4a58.9 58.9 0 0 0-.4-6.7h3.7l.5 6-.5-.2a7.5 7.5 0 0 1 2.9-4.8 8.4 8.4 0 0 1 7.2-1.3v3.5c-.8-.2-1.6-.4-2.6-.4-1.7 0-3 .4-4 1.1-1 .8-1.8 1.7-2.2 2.9a9.5 9.5 0 0 0-.7 3.5v13.8h-4zm26.5-21v-3.1h15.5v3h-15.5zm15.4 17.5v3.4l-1.6.3-1.8.1c-2.2 0-4-.6-5.3-1.9-1.4-1.3-2-3.2-2-5.7v-23l3.9-1.4v23.8c0 1.3.2 2.3.5 3 .4.7 1 1.2 1.5 1.5.7.2 1.4.4 2.2.4a8 8 0 0 0 2.6-.5zm14.8 3.8c-2.3 0-4.4-.5-6-1.5a9.8 9.8 0 0 1-4-4.3 15 15 0 0 1-1.5-6.7c0-2.5.5-4.7 1.4-6.6a10.6 10.6 0 0 1 10-6c2.4 0 4.4.6 6 1.6 1.8 1 3.1 2.5 4 4.4 1 1.9 1.5 4 1.5 6.6 0 2.6-.5 4.8-1.5 6.7a9.8 9.8 0 0 1-4 4.3c-1.6 1-3.6 1.5-6 1.5zm0-3.2c2.3 0 4.2-.8 5.4-2.3 1.3-1.6 2-4 2-7s-.7-5.3-2-6.9a6.7 6.7 0 0 0-5.4-2.4 7 7 0 0 0-5.6 2.4c-1.3 1.6-2 4-2 7s.7 5.3 2 6.9a6.9 6.9 0 0 0 5.6 2.3zm39.2 3.2a10 10 0 0 1-9.4-5.8 16.5 16.5 0 0 1 .1-13.2c.9-2 2.1-3.4 3.7-4.4 1.6-1 3.5-1.6 5.6-1.6 2.2 0 4.1.5 5.6 1.6a8 8 0 0 1 3.2 4.7l-.6.4v-6.1h3.8v24.1H310v-6.2l.6.2a8 8 0 0 1-3.2 4.7 9.5 9.5 0 0 1-5.6 1.6zm.8-3.2c2.4 0 4.2-.8 5.5-2.4 1.2-1.6 1.9-4 1.9-6.9 0-3-.7-5.3-2-6.9a6.5 6.5 0 0 0-5.4-2.4 7 7 0 0 0-5.6 2.5c-1.3 1.7-2 4-2 6.9 0 3 .7 5.2 2 6.8a6.9 6.9 0 0 0 5.6 2.4zm28.9 3.2c-2.4 0-4.4-.5-6.2-1.5a11 11 0 0 1-4-4.3c-1-1.9-1.4-4-1.4-6.6 0-2.5.5-4.7 1.4-6.6a11 11 0 0 1 4.1-4.4A13 13 0 0 1 340 213l-1.2 2.8a14 14 0 0 0-3.5-2 8.8 8.8 0 0 0-3.5-.8c-2.5 0-4.4.9-5.9 2.5-1.4 1.6-2 4-2 6.9 0 3 .6 5.2 2 6.8a7.3 7.3 0 0 0 5.9 2.4c1.1 0 2.3-.2 3.5-.7 1.1-.4 2.3-1.1 3.5-2l1.3 2.8a11 11 0 0 1-4 2.3c-1.5.6-3 .8-4.7.8zm23.7 0a12 12 0 0 1-6.1-1.5 11 11 0 0 1-4-4.3c-1-1.9-1.4-4-1.4-6.6 0-2.5.4-4.7 1.4-6.6 1-1.9 2.3-3.4 4-4.4a13 13 0 0 1 14.7 1.6l-1.2 2.8a14 14 0 0 0-3.5-2 8.8 8.8 0 0 0-3.5-.8c-2.4 0-4.3.9-5.8 2.5-1.4 1.6-2.1 4-2.1 6.9 0 3 .7 5.2 2.1 6.8a7.3 7.3 0 0 0 5.8 2.4 12.5 12.5 0 0 0 7-2.7l1.3 2.8a12.7 12.7 0 0 1-8.7 3.1zm33.5-3.2c-1.1 1-2.5 1.8-4.1 2.4a15 15 0 0 1-11.5-.7c-1.8-1-3.2-2.4-4.2-4.2-1-2-1.5-4.2-1.5-6.7s.5-4.7 1.5-6.6c1-2 2.3-3.4 4-4.4a11.7 11.7 0 0 1 11.4-.2 9 9 0 0 1 3.5 4c.9 1.8 1.3 4 1.3 6.4v.7h-18.3v-2.5h16l-1.2 1.7c0-2.8-.5-5-1.7-6.4a5.9 5.9 0 0 0-5-2.3c-2.4 0-4.2.8-5.6 2.5-1.3 1.6-2 3.9-2 6.8 0 3.2.8 5.5 2.1 7.1 1.4 1.6 3.5 2.4 6.2 2.4a12.1 12.1 0 0 0 7.8-2.8l1.3 2.8zm14.4 3.2c-4 0-7.2-1-9.6-3l1.3-3c1.3 1 2.6 1.8 4 2.2 1.3.5 2.8.7 4.5.7 1.8 0 3.2-.3 4.1-.9a3 3 0 0 0 1.5-2.7 3 3 0 0 0-1-2.3c-.6-.6-1.7-1-3.2-1.4l-4-1c-2-.4-3.6-1.2-4.8-2.3a5.8 5.8 0 0 1-1.6-4.2 6 6 0 0 1 1.2-3.7c.7-1 1.8-1.9 3.2-2.5 1.4-.6 3-1 4.9-1 1.7 0 3.3.4 4.8.9s2.7 1.3 3.8 2.3l-1.3 2.9c-1.2-1-2.4-1.7-3.6-2.1a9.9 9.9 0 0 0-3.7-.8 7 7 0 0 0-4 1c-1 .7-1.4 1.6-1.4 2.8 0 1 .2 1.8.8 2.3.6.6 1.6 1 2.9 1.4l4 1c2.3.5 4 1.3 5 2.4 1.2 1 1.7 2.5 1.7 4.2a6 6 0 0 1-2.5 5c-1.7 1.2-4 1.8-7 1.8zm23.9 0c-4.1 0-7.3-1-9.7-3l1.3-3c1.3 1 2.6 1.8 4 2.2 1.3.5 2.8.7 4.5.7 1.8 0 3.2-.3 4.1-.9a3 3 0 0 0 1.5-2.7 3 3 0 0 0-1-2.3c-.6-.6-1.7-1-3.2-1.4l-4-1a9 9 0 0 1-4.7-2.3 5.8 5.8 0 0 1-1.7-4.2 6 6 0 0 1 1.2-3.7c.7-1 1.8-1.9 3.2-2.5 1.4-.6 3-1 4.9-1 1.7 0 3.3.4 4.8.9s2.8 1.3 3.8 2.3l-1.3 2.9c-1.2-1-2.4-1.7-3.6-2.1a9.9 9.9 0 0 0-3.7-.8 7 7 0 0 0-4 1c-1 .7-1.4 1.6-1.4 2.8 0 1 .3 1.8.8 2.3a7 7 0 0 0 3 1.4l4 1c2.3.5 4 1.3 5 2.4 1 1 1.6 2.5 1.6 4.2a6 6 0 0 1-2.5 5c-1.7 1.2-4 1.8-7 1.8zm24.7-21.4v-3h15.5v3h-15.5zM467 231v3.4l-1.6.3-1.7.1c-2.3 0-4-.6-5.4-1.9-1.3-1.3-2-3.2-2-5.7v-23l4-1.4v23.8c0 1.3 0 2.3.4 3 .4.7 1 1.2 1.6 1.5.6.2 1.3.4 2.1.4a8 8 0 0 0 2.6-.5zm4.8 3.5v-35.3h3.9v16l-.6.5c.6-2 1.8-3.4 3.3-4.4a10 10 0 0 1 5.5-1.5c5.7 0 8.6 3.2 8.6 9.5v15.2h-3.8v-15c0-2.2-.5-3.8-1.4-4.9-.9-1-2.3-1.6-4.2-1.6-2.3 0-4 .7-5.4 2.1a7.6 7.6 0 0 0-2 5.6v13.8h-3.9zm47.9-2.9c-1.1 1-2.5 1.8-4.1 2.4a15 15 0 0 1-11.5-.7c-1.8-1-3.2-2.4-4.2-4.2-1-2-1.5-4.2-1.5-6.7s.5-4.7 1.5-6.6c1-2 2.3-3.4 4-4.4a11.7 11.7 0 0 1 11.4-.2 9 9 0 0 1 3.5 4c.9 1.8 1.3 4 1.3 6.4v.7h-18.2v-2.5h16l-1.3 1.7c.1-2.8-.5-5-1.6-6.4a6.2 6.2 0 0 0-5.1-2.3c-2.4 0-4.2.8-5.6 2.5-1.3 1.6-2 3.9-2 6.8 0 3.2.8 5.5 2.1 7.1a8 8 0 0 0 6.2 2.4 12.1 12.1 0 0 0 7.8-2.8l1.3 2.8zm18.8 2.9v-35.3h3.9v17.3l-.5-.4a8 8 0 0 1 3-4.6 9.2 9.2 0 0 1 5.7-1.7c2.1 0 4 .5 5.6 1.5 1.6 1 2.8 2.5 3.7 4.3 1 1.9 1.4 4 1.4 6.6 0 2.5-.5 4.8-1.4 6.7a10.1 10.1 0 0 1-9.4 6c-2.1 0-4-.6-5.5-1.7a8 8 0 0 1-3.1-4.7l.5-.5v6.5h-3.9zm11.3-2.9c2.4 0 4.2-.8 5.5-2.4 1.3-1.7 2-4 2-7 0-2.9-.7-5.2-2-6.8a6.7 6.7 0 0 0-5.5-2.4c-2.4 0-4.2.9-5.5 2.5a10.6 10.6 0 0 0-1.9 6.8c0 3 .6 5.3 2 7a6.7 6.7 0 0 0 5.4 2.3zm17.5 2.9v-35.3h3.9v35.3h-4zm21.4.3c-2.3 0-4.3-.5-6-1.5a11 11 0 0 1-4-4.3 15 15 0 0 1-1.4-6.7c0-2.5.5-4.7 1.4-6.6a10.6 10.6 0 0 1 10-6 10.7 10.7 0 0 1 10 6c1 1.9 1.4 4 1.4 6.6a14 14 0 0 1-1.4 6.7 11 11 0 0 1-4 4.3c-1.7 1-3.7 1.5-6 1.5zm0-3.2c2.4 0 4.2-.8 5.5-2.3 1.3-1.6 2-4 2-7s-.7-5.3-2-6.9a6.7 6.7 0 0 0-5.5-2.4c-2.3 0-4.2.8-5.5 2.4-1.3 1.6-2 4-2 7s.7 5.3 2 6.9a6.9 6.9 0 0 0 5.5 2.3zm27.6 3.2a12 12 0 0 1-6.1-1.5 11 11 0 0 1-4-4.3c-1-1.9-1.4-4-1.4-6.6 0-2.5.4-4.7 1.4-6.6 1-1.9 2.3-3.4 4-4.4A13 13 0 0 1 625 213l-1.2 2.8a14 14 0 0 0-3.5-2 8.8 8.8 0 0 0-3.5-.8c-2.4 0-4.4.9-5.8 2.5-1.4 1.6-2.1 4-2.1 6.9 0 3 .7 5.2 2.1 6.8a7.3 7.3 0 0 0 5.8 2.4 12.5 12.5 0 0 0 7-2.7l1.3 2.8a12.7 12.7 0 0 1-8.7 3.1zm30-.3L633 222.2l12.1-11.8h5l-13.5 12.9.2-2.5 14.4 13.7h-5zm-16.3 0v-35.3h3.9v35.3h-4zm34.4.3c-2.4 0-4.4-.5-6.2-1.5a11 11 0 0 1-4-4.3c-1-1.9-1.4-4-1.4-6.6 0-2.5.5-4.7 1.4-6.6a11 11 0 0 1 4.1-4.4A13 13 0 0 1 673 213l-1.2 2.8a14 14 0 0 0-3.5-2 8.8 8.8 0 0 0-3.5-.8c-2.5 0-4.4.9-5.9 2.5-1.4 1.6-2 4-2 6.9 0 3 .6 5.2 2 6.8a7.3 7.3 0 0 0 5.9 2.4c1.1 0 2.3-.2 3.5-.7 1.1-.4 2.3-1.1 3.5-2l1.3 2.8a11 11 0 0 1-4 2.3c-1.5.6-3 .8-4.7.8zm13.6-.3v-35.3h3.9v16l-.6.5c.6-2 1.8-3.4 3.3-4.4a10 10 0 0 1 5.5-1.5c5.8 0 8.6 3.2 8.6 9.5v15.2H695v-15c0-2.2-.5-3.8-1.4-4.9-.9-1-2.3-1.6-4.2-1.6-2.3 0-4 .7-5.4 2.1a7.6 7.6 0 0 0-2 5.6v13.8h-4zm37.4.3a10 10 0 0 1-9.5-5.8 16.5 16.5 0 0 1 .1-13.2c.9-2 2.1-3.4 3.7-4.4a10.8 10.8 0 0 1 11.3 0 8 8 0 0 1 3 4.7l-.5.4v-6.1h3.9v24.1h-3.9v-6.2l.6.2a8 8 0 0 1-3.1 4.7 9.5 9.5 0 0 1-5.6 1.6zm.7-3.2c2.4 0 4.2-.8 5.5-2.4 1.3-1.6 2-4 2-6.9 0-3-.7-5.3-2-6.9a6.5 6.5 0 0 0-5.5-2.4c-2.3 0-4.2.9-5.5 2.5-1.4 1.7-2 4-2 6.9 0 3 .6 5.2 2 6.8a6.9 6.9 0 0 0 5.5 2.4zm18.8 2.9v-24.1h3.9v24.1h-4zm-.4-34.4h4.7v4.4h-4.7v-4.4zm11.8 34.4v-17.4a58.9 58.9 0 0 0-.4-6.7h3.7l.5 5-.5.3c.6-2 1.8-3.4 3.3-4.4a10 10 0 0 1 5.5-1.5c5.7 0 8.6 3.2 8.6 9.5v15.2h-3.8v-15c0-2.2-.5-3.8-1.4-4.9-.9-1-2.3-1.6-4.2-1.6-2.3 0-4 .7-5.4 2.1a7.6 7.6 0 0 0-2 5.6v13.8h-3.9zm40.6 0v-17.4a58.9 58.9 0 0 0-.4-6.7h3.7l.4 5-.4.3c.6-2 1.8-3.4 3.3-4.4a10 10 0 0 1 5.4-1.5c5.8 0 8.7 3.2 8.7 9.5v15.2h-3.9v-15c0-2.2-.4-3.8-1.3-4.9-.9-1-2.3-1.6-4.2-1.6-2.3 0-4 .7-5.4 2.1a7.6 7.6 0 0 0-2 5.6v13.8h-3.9zm47.9-2.9c-1.1 1-2.5 1.8-4.1 2.4a15 15 0 0 1-11.5-.7c-1.8-1-3.2-2.4-4.2-4.2-1-2-1.5-4.2-1.5-6.7s.5-4.7 1.5-6.6c1-2 2.3-3.4 4-4.4a11.7 11.7 0 0 1 11.4-.2 9 9 0 0 1 3.5 4c.9 1.8 1.3 4 1.3 6.4v.7h-18.3v-2.5h16l-1.2 1.7c0-2.8-.5-5-1.7-6.4a5.9 5.9 0 0 0-5-2.3c-2.4 0-4.2.8-5.6 2.5-1.3 1.6-2 3.9-2 6.8 0 3.2.8 5.5 2.1 7.1 1.4 1.6 3.5 2.4 6.2 2.4a12.1 12.1 0 0 0 7.8-2.8l1.3 2.8zm2.7-18.2v-3H853v3h-15.5zM853 231v3.4l-1.6.3-1.7.1c-2.3 0-4-.6-5.4-1.9-1.3-1.3-2-3.2-2-5.7v-23l4-1.4v23.8c0 1.3.1 2.3.5 3 .3.7.9 1.2 1.5 1.5.6.2 1.4.4 2.2.4a8 8 0 0 0 2.5-.5zm11.6 3.5l-9-24.1h4.1l7.5 21.2h-1.3l7.7-21.2h3.4l7.6 21.2h-1.2l7.5-21.2h3.9l-9 24.1H882l-8-21.7h2.2l-8 21.7h-3.7zm45 .3c-2.4 0-4.4-.5-6.1-1.5a11 11 0 0 1-4-4.3 15 15 0 0 1-1.4-6.7c0-2.5.5-4.7 1.4-6.6a10.6 10.6 0 0 1 10-6c2.3 0 4.3.6 6 1.6 1.8 1 3 2.5 4 4.4 1 1.9 1.5 4 1.5 6.6 0 2.6-.5 4.8-1.5 6.7-1 1.8-2.2 3.3-4 4.3-1.7 1-3.7 1.5-6 1.5zm0-3.2c2.3 0 4.1-.8 5.4-2.3 1.3-1.6 2-4 2-7s-.7-5.3-2-6.9a6.7 6.7 0 0 0-5.5-2.4 7 7 0 0 0-5.5 2.4c-1.3 1.6-2 4-2 7s.7 5.3 2 6.9a6.9 6.9 0 0 0 5.5 2.3zm17.4 2.9v-17.4a58.9 58.9 0 0 0-.4-6.7h3.7l.6 6-.6-.2a7.5 7.5 0 0 1 3-4.8 8.4 8.4 0 0 1 7.2-1.3l-.1 3.5c-.8-.2-1.6-.4-2.6-.4a7 7 0 0 0-4 1.1 7 7 0 0 0-2.2 2.9 9.5 9.5 0 0 0-.7 3.5v13.8H927zm33.7 0l-13.2-12.3 12.2-11.8h5L951 223.3l.1-2.5 14.5 13.7h-5.1zm-16.3 0v-35.3h3.9v35.3h-3.9zm659.3-192.1h7.7V88h-6.2l-24.5-32v32h-7.7V42.4h6.1l24.6 31.9V42.4zm17 45.6V55.7h8V88h-8zm-.5-47h9v8h-9v-8zm55.4 13.8c3.6 0 6.4 1.2 8.2 3.4 1.7 2.2 2.6 5.5 2.6 10V88h-8V68.4c0-2.5-.4-4.4-1.2-5.5-.9-1.1-2.2-1.7-4.1-1.7-2.3 0-4 .8-5.3 2.4a10 10 0 0 0-1.8 6.4v18h-8V68.4a9 9 0 0 0-1.4-5.5c-.8-1.1-2.2-1.7-4-1.7-2.3 0-4 .8-5.3 2.4a9.7 9.7 0 0 0-2 6.4v18h-7.9V64.8c0-3.4-.2-6.4-.5-9.1h7.5l.6 5.1c.9-2 2.3-3.4 4-4.4 1.8-1 3.8-1.6 6.1-1.6 5 0 8.2 2.1 9.7 6.2 1-2 2.5-3.4 4.4-4.5 1.9-1.1 4-1.7 6.4-1.7zM1695 88V55.7h8V88h-8zm-.5-47h8.9v8h-9v-8zm48.7 14.7c-.4 2.5-.6 5.6-.6 9.1v37h-8V83.1a10 10 0 0 1-4.3 4 13 13 0 0 1-6 1.4c-3 0-5.4-.7-7.6-2a13.5 13.5 0 0 1-5-5.9 20.3 20.3 0 0 1-1.8-8.7c0-3.4.6-6.3 1.8-8.9a15 15 0 0 1 5-6 13 13 0 0 1 7.5-2.2c2.5 0 4.7.6 6.6 1.7a10 10 0 0 1 4.2 4.7l.6-5.5h7.6zm-16.8 26.5c2.6 0 4.7-.9 6.1-2.7 1.5-1.8 2.2-4.4 2.2-7.8 0-3.4-.7-6-2.2-7.8a7.5 7.5 0 0 0-6.2-2.8c-2.6 0-4.7 1-6.2 2.9a12.6 12.6 0 0 0-2.2 7.9c0 3.3.8 5.9 2.2 7.7a7.7 7.7 0 0 0 6.3 2.6zm-334.9 94.3v-15.4l.9 2.8-14.3-21.6h4.6l11.5 17.9h-1.3l11.5-17.9h4.5l-14.2 21.6.8-2.8v15.4h-4zm26.6.3c-2.3 0-4.3-.5-6-1.5a11 11 0 0 1-4-4.3 15 15 0 0 1-1.4-6.7c0-2.5.5-4.7 1.4-6.6a10.6 10.6 0 0 1 10-6c2.4 0 4.4.6 6 1.6 1.8 1 3.1 2.5 4 4.4 1 1.9 1.5 4 1.5 6.6 0 2.6-.5 4.8-1.5 6.7a9.8 9.8 0 0 1-4 4.3c-1.6 1-3.6 1.5-6 1.5zm0-3.2c2.4 0 4.2-.8 5.5-2.3 1.3-1.6 2-4 2-7s-.7-5.3-2-6.9a6.7 6.7 0 0 0-5.5-2.4 7 7 0 0 0-5.5 2.4c-1.3 1.6-2 4-2 7s.7 5.3 2 6.9a6.9 6.9 0 0 0 5.5 2.3zm26 3.2c-2.8 0-5-.8-6.5-2.4-1.4-1.6-2.1-4-2.1-7v-15h3.9v14.8c0 2.2.4 3.8 1.3 4.8 1 1 2.3 1.6 4 1.6 2.2 0 4-.7 5.3-2 1.3-1.5 2-3.3 2-5.6v-13.6h3.8v24.1h-3.8v-5.2l.6-.3a8 8 0 0 1-3.3 4.3 9.2 9.2 0 0 1-5.1 1.5zm19.2-.3v-17.4a53.8 53.8 0 0 0-.3-6.7h3.6l.6 6-.6-.2a7.5 7.5 0 0 1 3-4.8 8.4 8.4 0 0 1 7.2-1.3l-.1 3.5c-.8-.2-1.6-.4-2.6-.4a7 7 0 0 0-4 1.1 7 7 0 0 0-2.2 2.9 9.4 9.4 0 0 0-.7 3.5v13.8h-3.9zm30 0v-35.3h3.8v17.3l-.5-.4a8 8 0 0 1 3.1-4.6 9.2 9.2 0 0 1 5.6-1.7c2.1 0 4 .5 5.6 1.5 1.6 1 2.8 2.5 3.7 4.3 1 1.9 1.4 4 1.4 6.6 0 2.5-.4 4.8-1.4 6.7a10 10 0 0 1-9.4 6c-2 0-4-.6-5.5-1.7a8 8 0 0 1-3.1-4.7l.5-.5v6.5h-3.9zm11.3-2.9c2.3 0 4.1-.8 5.4-2.4 1.3-1.7 2-4 2-7 0-2.9-.7-5.2-2-6.8a6.7 6.7 0 0 0-5.4-2.4 7 7 0 0 0-5.6 2.5 11.2 11.2 0 0 0-1.9 6.8c0 3 .7 5.3 2 7a6.7 6.7 0 0 0 5.5 2.3zm17.4 2.9v-17.4a53.8 53.8 0 0 0-.4-6.7h3.7l.6 6-.6-.2a7.5 7.5 0 0 1 3-4.8 8.4 8.4 0 0 1 7.2-1.3l-.1 3.5c-.8-.2-1.6-.4-2.6-.4a7 7 0 0 0-4 1.1 7 7 0 0 0-2.2 2.9 9.4 9.4 0 0 0-.7 3.5v13.8h-3.9zm27 .3c-2.4 0-4.4-.5-6.1-1.5a11 11 0 0 1-4-4.3 15 15 0 0 1-1.4-6.7c0-2.5.5-4.7 1.4-6.6a10.5 10.5 0 0 1 10-6c2.3 0 4.3.6 6 1.6 1.8 1 3 2.5 4 4.4 1 1.9 1.4 4 1.4 6.6a14 14 0 0 1-1.4 6.7 11 11 0 0 1-4 4.3c-1.7 1-3.7 1.5-6 1.5zm0-3.2c2.3 0 4.1-.8 5.4-2.3 1.3-1.6 2-4 2-7s-.7-5.3-2-6.9a6.7 6.7 0 0 0-5.5-2.4c-2.3 0-4.2.8-5.5 2.4-1.3 1.6-2 4-2 7s.7 5.3 2 6.9a6.8 6.8 0 0 0 5.5 2.3zm23.6 2.9l-9-24.1h4.2l7.4 21.2h-1.3l7.7-21.2h3.4l7.6 21.2h-1.2l7.6-21.2h3.8l-9 24.1h-3.7l-8-21.7h2.2l-8 21.7h-3.7zm43 .3c-4 0-7.3-1-9.7-3l1.3-3a12.9 12.9 0 0 0 8.5 2.9c1.8 0 3.2-.3 4.2-.9 1-.6 1.4-1.5 1.4-2.7 0-1-.3-1.7-1-2.3-.6-.6-1.7-1-3.1-1.4l-4.1-1a9 9 0 0 1-4.7-2.3 5.8 5.8 0 0 1-1.7-4.2 6 6 0 0 1 1.2-3.7c.8-1 1.8-1.9 3.2-2.5a14 14 0 0 1 9.7-.1c1.5.5 2.8 1.3 3.8 2.3l-1.3 2.9a12 12 0 0 0-7.3-2.9 7 7 0 0 0-4 1c-1 .7-1.4 1.6-1.4 2.8 0 1 .3 1.8.9 2.3.6.6 1.5 1 2.8 1.4l4.1 1c2.3.5 4 1.3 5 2.4 1.1 1 1.6 2.5 1.6 4.2a6 6 0 0 1-2.5 5c-1.7 1.2-4 1.8-7 1.8zm35.4-3.2c-1 1-2.4 1.8-4 2.4a15 15 0 0 1-11.6-.7c-1.8-1-3.2-2.4-4.2-4.2-1-2-1.4-4.2-1.4-6.7s.5-4.7 1.4-6.6c1-2 2.3-3.4 4-4.4a12 12 0 0 1 11.5-.2c1.5 1 2.7 2.3 3.5 4 .8 1.8 1.2 4 1.2 6.4v.7h-18.2v-2.5h16l-1.2 1.7c0-2.8-.5-5-1.7-6.4a5.9 5.9 0 0 0-5-2.3c-2.4 0-4.3.8-5.6 2.5-1.3 1.6-2 3.9-2 6.8 0 3.2.7 5.5 2.1 7.1 1.4 1.6 3.5 2.4 6.1 2.4a12.1 12.1 0 0 0 7.8-2.8l1.3 2.8zm6.3 2.9v-17.4a62.8 62.8 0 0 0-.3-6.7h3.7l.5 6-.5-.2a7.5 7.5 0 0 1 2.8-4.8 8.4 8.4 0 0 1 7.3-1.3l-.1 3.5c-.8-.2-1.6-.4-2.5-.4-1.7 0-3 .4-4 1.1-1 .8-1.8 1.7-2.3 2.9a9.4 9.4 0 0 0-.7 3.5v13.8h-3.9zm30 0v-24.1h3.8v24.1h-3.8zm-.4-34.4h4.7v4.4h-4.7v-4.4zm20 34.7c-4.1 0-7.3-1-9.7-3l1.3-3c1.3 1 2.6 1.8 4 2.2 1.3.5 2.8.7 4.5.7 1.8 0 3.2-.3 4.1-.9a3 3 0 0 0 1.5-2.7 3 3 0 0 0-1-2.3c-.6-.6-1.7-1-3.2-1.4l-4-1c-2-.4-3.6-1.2-4.8-2.3a5.8 5.8 0 0 1-1.6-4.2 6 6 0 0 1 1.2-3.7c.7-1 1.8-1.9 3.2-2.5 1.4-.6 3-1 4.9-1 1.7 0 3.3.4 4.8.9a10 10 0 0 1 3.8 2.3l-1.3 2.9c-1.2-1-2.4-1.7-3.6-2.1a10 10 0 0 0-3.7-.8 7 7 0 0 0-4 1c-1 .7-1.4 1.6-1.4 2.8 0 1 .3 1.8.8 2.3.6.6 1.6 1 2.9 1.4l4 1a9 9 0 0 1 5 2.4c1.2 1 1.7 2.5 1.7 4.2a6 6 0 0 1-2.5 5c-1.7 1.2-4 1.8-7 1.8zm37.4 0c-2.2 0-4-.5-5.7-1.5a9.8 9.8 0 0 1-3.7-4.3 15 15 0 0 1-1.3-6.6c0-2.5.4-4.7 1.3-6.6a10 10 0 0 1 9.4-6c2.2 0 4 .5 5.6 1.6a8.2 8.2 0 0 1 3.1 4.7l-.6.4v-6.1h3.9v24.1h-3.9v-6.2l.6.2c-.5 2-1.6 3.6-3.1 4.7a9.5 9.5 0 0 1-5.6 1.6zm.8-3.2c2.3 0 4.1-.8 5.4-2.4 1.3-1.6 2-4 2-6.9 0-3-.7-5.3-2-6.9a6.5 6.5 0 0 0-5.5-2.4c-2.3 0-4.2.9-5.5 2.5-1.3 1.7-2 4-2 6.9 0 3 .7 5.2 2 6.8a6.9 6.9 0 0 0 5.5 2.4zm31.2 2.9v-17.4a62.8 62.8 0 0 0-.4-6.7h3.7l.5 5-.5.3c.7-2 1.8-3.4 3.3-4.4a10 10 0 0 1 5.5-1.5c5.8 0 8.6 3.2 8.6 9.5v15.2h-3.8v-15c0-2.2-.5-3.8-1.4-4.9-.9-1-2.3-1.6-4.2-1.6-2.3 0-4 .7-5.4 2.1a7.6 7.6 0 0 0-2 5.6v13.8h-3.9zm38 .3c-2.2 0-4.2-.5-6-1.5a11 11 0 0 1-4-4.3 15 15 0 0 1-1.3-6.7c0-2.5.4-4.7 1.3-6.6a10.5 10.5 0 0 1 10-6c2.4 0 4.4.6 6 1.6 1.8 1 3.1 2.5 4 4.4 1 1.9 1.5 4 1.5 6.6 0 2.6-.5 4.8-1.4 6.7a11 11 0 0 1-4 4.3c-1.7 1-3.7 1.5-6 1.5zm0-3.2c2.4 0 4.3-.8 5.5-2.3 1.4-1.6 2-4 2-7s-.6-5.3-2-6.9a6.7 6.7 0 0 0-5.4-2.4c-2.4 0-4.2.8-5.5 2.4-1.4 1.6-2 4-2 7s.6 5.3 2 6.9a6.9 6.9 0 0 0 5.5 2.3zm38.8 2.9h-3.8V170l.6.5a8 8 0 0 1-3.2 4.7 9.5 9.5 0 0 1-5.6 1.6c-2 0-4-.5-5.6-1.5a10 10 0 0 1-3.7-4.4c-1-2-1.4-4.2-1.4-6.7s.4-4.7 1.3-6.6c1-1.8 2.2-3.3 3.8-4.3 1.6-1 3.5-1.5 5.6-1.5 2.2 0 4.1.5 5.6 1.7a8 8 0 0 1 3.2 4.6l-.7.4v-17.3h4v35.3zm-11.2-2.9c2.3 0 4.1-.8 5.4-2.4 1.3-1.6 2-4 2-6.9 0-3-.6-5.2-2-6.8a6.6 6.6 0 0 0-5.4-2.5 7 7 0 0 0-5.6 2.4c-1.3 1.6-2 3.9-2 6.8 0 3 .7 5.3 2 7a6.8 6.8 0 0 0 5.6 2.4zm38.5 0c-1 1-2.4 1.8-4 2.4a15 15 0 0 1-11.6-.7c-1.8-1-3.2-2.4-4.2-4.2-1-2-1.4-4.2-1.4-6.7s.5-4.7 1.4-6.6c1-2 2.3-3.4 4-4.4a12 12 0 0 1 11.5-.2c1.5 1 2.7 2.3 3.5 4 .8 1.8 1.3 4 1.3 6.4v.7h-18.3v-2.5h16l-1.2 1.7c0-2.8-.5-5-1.7-6.4a5.9 5.9 0 0 0-5-2.3c-2.4 0-4.3.8-5.6 2.5-1.3 1.6-2 3.9-2 6.8 0 3.2.7 5.5 2.1 7.1 1.4 1.6 3.5 2.4 6.1 2.4a12.1 12.1 0 0 0 7.8-2.8l1.3 2.8zm18.9 2.9v-24.1h3.9v24.1h-4zm-.4-34.4h4.7v4.4h-4.7v-4.4zm11.8 34.4v-17.4a62.8 62.8 0 0 0-.4-6.7h3.7l.5 5-.5.3c.6-2 1.8-3.4 3.3-4.4a10 10 0 0 1 5.5-1.5c5.7 0 8.6 3.2 8.6 9.5v15.2h-3.9v-15c0-2.2-.4-3.8-1.3-4.9-.9-1-2.3-1.6-4.2-1.6-2.3 0-4 .7-5.4 2.1a7.6 7.6 0 0 0-2 5.6v13.8h-3.9zm-510.4 37v-3.1h15.5v3h-15.5zm15.5 17.5v3.4l-1.7.3-1.7.1c-2.3 0-4-.6-5.4-1.9-1.3-1.3-2-3.2-2-5.7v-23l4-1.4v23.8c0 1.3.1 2.3.5 3 .3.7.9 1.2 1.5 1.5.6.2 1.4.4 2.2.4a8 8 0 0 0 2.5-.5zm4.7 3.5v-35.3h4v16l-.7.5a8 8 0 0 1 3.4-4.4c1.5-1 3.3-1.5 5.4-1.5 5.8 0 8.7 3.2 8.7 9.5v15.2h-4v-15c0-2.2-.4-3.8-1.3-4.9-.9-1-2.3-1.6-4.2-1.6-2.2 0-4 .7-5.4 2.1a7.6 7.6 0 0 0-2 5.6v13.8h-3.9zm47.9-2.9c-1 1-2.4 1.8-4 2.4a15 15 0 0 1-11.6-.7c-1.8-1-3.2-2.4-4.2-4.2-1-2-1.4-4.2-1.4-6.7s.5-4.7 1.4-6.6c1-2 2.3-3.4 4-4.4a11.7 11.7 0 0 1 11.5-.2c1.5 1 2.7 2.3 3.5 4 .8 1.8 1.2 4 1.2 6.4v.7h-18.2v-2.5h16l-1.2 1.7c0-2.8-.5-5-1.7-6.4a6.2 6.2 0 0 0-5.1-2.3c-2.3 0-4.2.8-5.5 2.5-1.3 1.6-2 3.9-2 6.8 0 3.2.7 5.5 2 7.1a8 8 0 0 0 6.2 2.4 12.1 12.1 0 0 0 7.8-2.8l1.3 2.8zm18.8 2.9v-35.3h4v17.3l-.6-.4a8 8 0 0 1 3.1-4.6 9.2 9.2 0 0 1 5.6-1.7c2.1 0 4 .5 5.6 1.5 1.6 1 2.8 2.5 3.7 4.3 1 1.9 1.4 4 1.4 6.6 0 2.5-.4 4.8-1.4 6.7a10 10 0 0 1-9.4 6c-2 0-4-.6-5.5-1.7a8 8 0 0 1-3.1-4.7l.5-.5v6.5h-3.9zm11.4-2.9c2.3 0 4.1-.8 5.4-2.4 1.3-1.7 2-4 2-7 0-2.9-.7-5.2-2-6.8a6.7 6.7 0 0 0-5.4-2.4 7 7 0 0 0-5.6 2.5 11.2 11.2 0 0 0-1.9 6.8c0 3 .7 5.3 2 7a6.7 6.7 0 0 0 5.5 2.3zm17.4 2.9v-35.3h4v35.3h-4zm21.4.3c-2.3 0-4.3-.5-6-1.5a11 11 0 0 1-4-4.3 15 15 0 0 1-1.4-6.7c0-2.5.5-4.7 1.4-6.6a10.5 10.5 0 0 1 10-6c2.3 0 4.3.6 6 1.6 1.8 1 3 2.5 4 4.4 1 1.9 1.5 4 1.5 6.6 0 2.6-.5 4.8-1.5 6.7-1 1.8-2.2 3.3-4 4.3-1.7 1-3.7 1.5-6 1.5zm0-3.2c2.4 0 4.2-.8 5.5-2.3 1.3-1.6 2-4 2-7s-.7-5.3-2-6.9a6.7 6.7 0 0 0-5.5-2.4 7 7 0 0 0-5.5 2.4c-1.3 1.6-2 4-2 7s.7 5.3 2 6.9a6.9 6.9 0 0 0 5.5 2.3zm27.6 3.2a10.5 10.5 0 0 1-10.2-5.9c-.8-1.8-1.3-4-1.3-6.5s.5-4.7 1.4-6.6c1-1.9 2.3-3.4 4.1-4.4a13 13 0 0 1 14.7 1.6l-1.3 2.8c-1.1-.9-2.3-1.6-3.5-2a8.8 8.8 0 0 0-3.5-.8c-2.4 0-4.3.9-5.8 2.5-1.4 1.6-2 4-2 6.9 0 3 .6 5.2 2 6.8a7.3 7.3 0 0 0 5.8 2.4c1.2 0 2.4-.2 3.5-.7 1.2-.4 2.4-1.1 3.5-2l1.3 2.8c-1 1-2.3 1.7-3.9 2.3-1.5.6-3 .8-4.8.8zm30-.3l-13.2-12.3 12.2-11.8h4.9l-13.4 12.9.1-2.5 14.5 13.7h-5.1zm-16.3 0v-35.3h3.9v35.3h-4zm34.4.3a10.6 10.6 0 0 1-10.2-5.9c-1-1.8-1.4-4-1.4-6.5s.5-4.7 1.5-6.6c1-1.9 2.3-3.4 4-4.4a13 13 0 0 1 14.7 1.6l-1.2 2.8c-1.2-.9-2.4-1.6-3.5-2a8.8 8.8 0 0 0-3.5-.8c-2.5 0-4.4.9-5.8 2.5-1.4 1.6-2.1 4-2.1 6.9 0 3 .7 5.2 2 6.8a7.3 7.3 0 0 0 5.9 2.4c1.2 0 2.3-.2 3.5-.7 1.1-.4 2.3-1.1 3.5-2l1.3 2.8a12.7 12.7 0 0 1-8.7 3.1zm13.6-.3v-35.3h4v16l-.7.5a8 8 0 0 1 3.4-4.4c1.5-1 3.3-1.5 5.4-1.5 5.8 0 8.7 3.2 8.7 9.5v15.2h-4v-15c0-2.2-.4-3.8-1.3-4.9-.9-1-2.3-1.6-4.2-1.6-2.2 0-4 .7-5.4 2.1a7.6 7.6 0 0 0-2 5.6v13.8h-3.9zm37.4.3c-2.2 0-4-.5-5.7-1.5a9.8 9.8 0 0 1-3.7-4.3 15 15 0 0 1-1.3-6.6c0-2.5.4-4.7 1.3-6.6a10.1 10.1 0 0 1 9.4-6c2.2 0 4 .5 5.6 1.6a8 8 0 0 1 3.1 4.7l-.6.4v-6.1h3.9v24.1h-3.9v-6.2l.6.2a8 8 0 0 1-3.1 4.7 9.4 9.4 0 0 1-5.6 1.6zm.8-3.2c2.3 0 4.1-.8 5.4-2.4 1.3-1.6 2-4 2-6.9 0-3-.7-5.3-2-6.9a6.5 6.5 0 0 0-5.5-2.4c-2.3 0-4.2.9-5.5 2.5-1.3 1.7-2 4-2 6.9 0 3 .7 5.2 2 6.8a6.9 6.9 0 0 0 5.5 2.4zm18.7 2.9v-24.1h3.9v24.1h-3.9zm-.4-34.4h4.8v4.4h-4.8v-4.4zm11.8 34.4v-17.4a62.8 62.8 0 0 0-.3-6.7h3.6l.5 5-.5.3a8 8 0 0 1 3.4-4.4c1.5-1 3.3-1.5 5.4-1.5 5.8 0 8.7 3.2 8.7 9.5v15.2h-4v-15c0-2.2-.4-3.8-1.3-4.9-.9-1-2.3-1.6-4.2-1.6-2.2 0-4 .7-5.4 2.1a7.6 7.6 0 0 0-2 5.6v13.8h-3.9zm40.6 0v-17.4a62.8 62.8 0 0 0-.4-6.7h3.7l.5 5-.5.3c.7-2 1.8-3.4 3.3-4.4a10 10 0 0 1 5.5-1.5c5.8 0 8.7 3.2 8.7 9.5v15.2h-4v-15c0-2.2-.4-3.8-1.3-4.9-.9-1-2.3-1.6-4.2-1.6-2.2 0-4 .7-5.4 2.1a7.6 7.6 0 0 0-2 5.6v13.8h-3.9zm47.9-2.9c-1 1-2.4 1.8-4.1 2.4a15 15 0 0 1-11.5-.7c-1.8-1-3.2-2.4-4.2-4.2-1-2-1.4-4.2-1.4-6.7s.4-4.7 1.4-6.6c1-2 2.3-3.4 4-4.4a11.7 11.7 0 0 1 11.5-.2c1.5 1 2.7 2.3 3.5 4 .8 1.8 1.2 4 1.2 6.4v.7h-18.2v-2.5h16l-1.2 1.7c0-2.8-.5-5-1.7-6.4a6.2 6.2 0 0 0-5.1-2.3c-2.4 0-4.2.8-5.5 2.5-1.3 1.6-2 3.9-2 6.8 0 3.2.7 5.5 2 7.1a8 8 0 0 0 6.2 2.4 12.1 12.1 0 0 0 7.8-2.8l1.3 2.8zm2.8-18.2v-3h15.5v3h-15.5zm15.4 17.6v3.4l-1.7.3-1.7.1c-2.2 0-4-.6-5.4-1.9-1.3-1.3-2-3.2-2-5.7v-23l4-1.4v23.8c0 1.3.1 2.3.5 3 .4.7.9 1.2 1.5 1.5.7.2 1.4.4 2.2.4a8 8 0 0 0 2.6-.5zm11.5 3.5l-9-24.1h4.2l7.4 21.2h-1.2l7.6-21.2h3.5l7.5 21.2h-1.2l7.6-21.2h3.8l-9 24.1h-3.7l-8-21.7h2.2l-8 21.7h-3.7zm45 .3c-2.4 0-4.4-.5-6-1.5a9.8 9.8 0 0 1-4-4.3 15 15 0 0 1-1.5-6.7c0-2.5.5-4.7 1.4-6.6a10.5 10.5 0 0 1 10-6c2.4 0 4.4.6 6 1.6 1.8 1 3.1 2.5 4 4.4 1 1.9 1.5 4 1.5 6.6 0 2.6-.5 4.8-1.5 6.7a9.8 9.8 0 0 1-4 4.3c-1.6 1-3.6 1.5-6 1.5zm0-3.2c2.3 0 4.1-.8 5.4-2.3 1.3-1.6 2-4 2-7s-.7-5.3-2-6.9a6.7 6.7 0 0 0-5.4-2.4 7 7 0 0 0-5.6 2.4c-1.3 1.6-2 4-2 7s.7 5.3 2 6.9a6.9 6.9 0 0 0 5.6 2.3zm17.4 2.9v-17.4a62.8 62.8 0 0 0-.3-6.7h3.7l.5 6-.5-.2a7.5 7.5 0 0 1 2.8-4.8 8.4 8.4 0 0 1 7.3-1.3l-.1 3.5c-.8-.2-1.6-.4-2.6-.4a7 7 0 0 0-4 1.1 7 7 0 0 0-2.2 2.9 9.4 9.4 0 0 0-.7 3.5v13.8h-3.9zm33.7 0l-13.1-12.3 12.1-11.8h5l-13.5 12.9.2-2.5 14.4 13.7h-5zm-16.3 0v-35.3h4v35.3h-4z" fill="#1F2348"/><path d="M1670.5 1114.3a4 4 0 0 1-.1-8c13-.6 26.3-2 39.2-4.2a4 4 0 0 1 1.3 7.9 319.3 319.3 0 0 1-40.2 4.3h-.2zm-49.9-1.9h-.4l-2.1-.2a323.8 323.8 0 0 1-37.8-7 4 4 0 1 1 2-7.7c12 3 24.4 5.2 36.8 6.7l2 .3a4 4 0 0 1-.5 8zm138-14.7a4 4 0 0 1-1.3-7.8c12.4-4.3 24.7-9.3 36.5-15.1a4 4 0 1 1 3.5 7.2 321 321 0 0 1-38.6 15.7zm-224.7-8c-.6 0-1 0-1.6-.3a318 318 0 0 1-36.2-18 4 4 0 0 1 4-7 311.7 311.7 0 0 0 35.3 17.6 4 4 0 0 1 2.1 5.3 4 4 0 0 1-3.6 2.4zm304.6-32.8a4 4 0 0 1-2.3-7.3c10.7-7.5 21-15.8 30.8-24.7a4 4 0 1 1 5.3 6c-9.9 9-20.5 17.5-31.5 25.3a4 4 0 0 1-2.3.7zm-381.5-13.5a4 4 0 0 1-2.5-1 320.4 320.4 0 0 1-29.6-27.5 4 4 0 0 1 5.8-5.5 294 294 0 0 0 28.9 26.9 4 4 0 0 1-2.6 7zm446.8-48a4 4 0 0 1-3.1-6.5 312.4 312.4 0 0 0 22.5-32.3 4 4 0 1 1 6.9 4.1c-7 11.5-14.8 22.7-23.2 33.2a4 4 0 0 1-3.1 1.5zm-507.4-18a4 4 0 0 1-3.3-1.8 321.8 321.8 0 0 1-20.8-34.7 4 4 0 1 1 7.1-3.7c6 11.7 12.8 23 20.3 33.9a4 4 0 0 1-3.3 6.3zM1949 918c-.5 0-1 0-1.5-.3a4 4 0 0 1-2.2-5.2 310 310 0 0 0 12.5-37.4 4 4 0 1 1 7.8 2 320 320 0 0 1-12.9 38.4 4 4 0 0 1-3.7 2.5zm-592.5-21a4 4 0 0 1-3.8-2.8c-4.2-12.8-7.6-26-10.1-39.1a4 4 0 1 1 7.8-1.5c2.5 12.8 5.8 25.7 10 38.2a4 4 0 0 1-2.6 5l-1.3.2zm614.2-66h-.5a4 4 0 0 1-3.5-4.4 314.6 314.6 0 0 0 1.5-39.5 4 4 0 1 1 8-.1 312.4 312.4 0 0 1-1.6 40.4 4 4 0 0 1-4 3.6zM1341 808.7a4 4 0 0 1-4-4 339.2 339.2 0 0 1 1.4-40.4 4 4 0 0 1 8 .8 316.5 316.5 0 0 0-1.4 39.4 4 4 0 0 1-3.8 4.2h-.2zm626.1-67.3a4 4 0 0 1-4-3.3 310 310 0 0 0-9.6-38.3 4 4 0 1 1 7.7-2.4c4 12.8 7.4 26 9.8 39.3a4 4 0 0 1-3.9 4.7zm-616-21.9h-1a4 4 0 0 1-3-5c3.4-13 7.6-26 12.6-38.4a4 4 0 0 1 7.5 3 303 303 0 0 0-12.3 37.4 4 4 0 0 1-3.9 3zm587.3-63a4 4 0 0 1-3.6-2.3 325 325 0 0 0-20-34 4 4 0 1 1 6.6-4.4 322.6 322.6 0 0 1 20.5 34.8 4 4 0 0 1-3.5 5.8zm-552.8-19.7a4 4 0 0 1-3.4-6 304.5 304.5 0 0 1 23-33.4 4 4 0 1 1 6.2 5 312.4 312.4 0 0 0-22.4 32.4 4 4 0 0 1-3.4 2zM1887 583a4 4 0 0 1-3-1.3 314 314 0 0 0-28.7-27 4 4 0 1 1 5.1-6.2 335.6 335.6 0 0 1 29.5 27.7 4 4 0 0 1-.2 5.7c-.8.7-1.8 1-2.7 1zm-444.8-15.8a4 4 0 0 1-2.8-7c10-9.1 20.5-17.7 31.4-25.5a4 4 0 1 1 4.7 6.5 315 315 0 0 0-30.6 25 4 4 0 0 1-2.7 1zm374.8-40.4a4 4 0 0 1-2-.5 311.8 311.8 0 0 0-35.2-17.9 4 4 0 1 1 3.1-7.3 319.5 319.5 0 0 1 36.1 18.3 4 4 0 0 1-2 7.4zm-301-10.6a4 4 0 0 1-1.8-7.6c12-6 24.5-11.3 37.2-15.7a4 4 0 1 1 2.7 7.5 311.9 311.9 0 0 0-36.4 15.4c-.5.3-1.1.4-1.8.4zm218-23.4c-.3 0-.6 0-1-.2a315.7 315.7 0 0 0-38.7-7.2l-4-.4a4 4 0 1 1 .8-8l4.1.5c13.4 1.6 26.8 4.1 39.8 7.4a4 4 0 0 1-1 7.9zm-133-4.8a4 4 0 0 1-.7-8 341 341 0 0 1 40.2-4.5 4 4 0 0 1 .4 8 312.2 312.2 0 0 0-39.9 4.5z" fill="#1F2348" opacity=".1"/><path d="M1416.7 834.8a40 40 0 1 0 0-80 40 40 0 0 0 0 80z" fill="url(#l)"/><path d="M1776.7 627a40 40 0 1 0 0-80 40 40 0 0 0 0 80z" fill="url(#i)"/><path d="M1896.7 834.8a40 40 0 1 0 0-80 40 40 0 0 0 0 80z" fill="url(#h)"/><path d="M1536.7 628.5a40 40 0 1 0 0-80 40 40 0 0 0 0 80z" fill="url(#g)"/><path d="M1536.7 1042.7a40 40 0 1 0 0-80 40 40 0 0 0 0 80z" fill="url(#f)"/><path d="M1776.7 1042.7a40 40 0 1 0 0-80 40 40 0 0 0 0 80z" fill="url(#e)"/><path d="M1588.7 976.7a4 4 0 0 1-2-7.5l256-147.9a4 4 0 1 1 4 7l-256 147.9a4 4 0 0 1-2 .5zm-82-22a4 4 0 0 1-3.4-2l-60-104a4 4 0 0 1 6.9-4l60 104a4 4 0 0 1-3.5 6zm360-207.8a4 4 0 0 1-3.4-2l-60-104a4 4 0 0 1 6.9-4l60 104a4 4 0 0 1-3.5 6zm-60 207.8a4 4 0 0 1-3.5-6l60-104a4 4 0 1 1 7 4l-60 104a4 4 0 0 1-3.5 2zm-360-207.8a4 4 0 0 1-3.5-6l59.4-102.9a4 4 0 1 1 7 4l-59.5 103a4 4 0 0 1-3.5 2zm90 199.8a4 4 0 0 1-4-4V648.5a4 4 0 1 1 8 0v294.2a4 4 0 0 1-4 4zm308.1-177.8a4 4 0 0 1-2-.6l-255.5-147.5a4 4 0 1 1 4-7l255.5 147.6a4 4 0 0 1-2 7.5zm-128.1 237.8h-120a4 4 0 1 1 0-8h120a4 4 0 1 1 0 8zm0-414.2h-120a4 4 0 1 1 0-8h120a4 4 0 1 1 0 8z" fill="#1F2348" opacity=".2"/><path d="M472.1 1113.6a4 4 0 0 1-.3-8c13.1-1 26.3-2.8 39.1-5.5a4 4 0 0 1 1.6 7.9 317.6 317.6 0 0 1-40 5.6h-.4zm-50-.1h-.2l-2.1-.2a324 324 0 0 1-38-5.6 4 4 0 0 1 1.6-7.9c12.2 2.6 24.6 4.4 37 5.5l2.1.2a4 4 0 0 1-.3 8zm137.5-19.4a4 4 0 0 1-1.4-7.8 311.5 311.5 0 0 0 36-16.3 4 4 0 1 1 3.7 7 321 321 0 0 1-36.8 16.8l-1.5.3zm-224.9-.4c-.4 0-1 0-1.4-.3-12.6-4.8-25-10.5-36.8-16.8a4 4 0 1 1 3.8-7 311.6 311.6 0 0 0 35.9 16.4 4 4 0 0 1-1.5 7.7zm303.4-43a4 4 0 0 1-2.4-7.2c10.4-8 20.5-16.6 29.9-25.8a4 4 0 0 1 5.6 5.8 325 325 0 0 1-30.7 26.3c-.7.6-1.6.9-2.4.9zm-381.7-.7a4 4 0 0 1-2.4-.8c-10.7-8.2-21-17.1-30.6-26.6a4 4 0 0 1 5.6-5.7 313 313 0 0 0 29.8 25.9 4 4 0 0 1-2.4 7.2zm444.8-63a4 4 0 0 1-3.2-6.4 312 312 0 0 0 21.5-33.1 4 4 0 1 1 7 3.9c-6.6 11.7-14 23.1-22 34a4 4 0 0 1-3.3 1.6zm-507.7-1a4 4 0 0 1-3.2-1.6c-8-10.8-15.4-22.3-22-34a4 4 0 0 1 7-4 315.1 315.1 0 0 0 21.4 33.3 4 4 0 0 1-3.2 6.3zM744 908c-.5 0-1 0-1.4-.2a4 4 0 0 1-2.4-5.1c4.5-12.3 8.3-25 11.3-37.8a4 4 0 1 1 7.7 1.8c-3 13.1-6.9 26.1-11.5 38.8a4 4 0 0 1-3.7 2.6zm-593-1a4 4 0 0 1-3.7-2.6 321 321 0 0 1-11.4-38.8 4 4 0 1 1 7.8-1.8c2.9 12.8 6.6 25.6 11.1 37.9a4 4 0 0 1-3.7 5.3zm-18.4-87.7a4 4 0 0 1-4-3.8 320.7 320.7 0 0 1 0-40.4 4 4 0 1 1 8 .5 313.9 313.9 0 0 0 0 39.4 4 4 0 0 1-3.7 4.3h-.3zM756.1 731a4 4 0 0 1-4-3.2 312.6 312.6 0 0 0-10.8-38 4 4 0 1 1 7.5-2.6c4.5 12.7 8.3 25.8 11.2 38.9a4 4 0 0 1-4 4.9zm-616.5-1.1l-.9-.1a4 4 0 0 1-3-4.8c3-13.1 6.7-26.2 11.3-38.9a4 4 0 0 1 7.5 2.8c-4.4 12.3-8.1 25-11 37.9a4 4 0 0 1-3.9 3zm585-82.9a4 4 0 0 1-3.6-2 315 315 0 0 0-21.1-33.4 4 4 0 0 1 6.5-4.7 322 322 0 0 1 21.6 34.2 4 4 0 0 1-3.5 6zm-553.2-1a4 4 0 0 1-3.5-6 319 319 0 0 1 21.8-34 4 4 0 1 1 6.5 4.7c-7.8 10.6-15 21.8-21.3 33.3a4 4 0 0 1-3.5 2zm499.3-70.7c-1 0-2-.3-2.9-1.1-9.3-9.3-19.2-18-29.6-26.1a4 4 0 1 1 4.9-6.3 322.7 322.7 0 0 1 30.4 26.7 4 4 0 0 1-2.8 6.8zm-445.1-.8c-1 0-2-.4-2.9-1.2a4 4 0 0 1 0-5.6 324 324 0 0 1 30.6-26.6 4 4 0 0 1 4.8 6.3c-10.4 8-20.4 16.7-29.7 26a4 4 0 0 1-2.8 1.1zm373.2-52.9a4 4 0 0 1-1.9-.5 310 310 0 0 0-35.8-16.7 4 4 0 1 1 3-7.4 316.8 316.8 0 0 1 36.7 17 4 4 0 0 1-2 7.6zm-301.2-.5a4 4 0 0 1-2-7.5 321.9 321.9 0 0 1 36.8-17 4 4 0 1 1 2.9 7.4 313.3 313.3 0 0 0-35.8 16.6c-.6.3-1.3.5-2 .5zm217.2-30.8h-.9a316.6 316.6 0 0 0-43-6.3 4 4 0 1 1 .6-8 303.7 303.7 0 0 1 44.1 6.4 4 4 0 0 1-.8 8zm-133.1-.3a4 4 0 0 1-.8-7.9c13.1-2.8 26.6-4.8 40-5.9a4 4 0 0 1 .7 8 311 311 0 0 0-40 5.9z" fill="#1F2348" opacity=".1"/><path d="M254.2 975.4a40 40 0 1 0 0-80 40 40 0 0 0 0 80z" fill="url(#d)"/><path d="M254.2 694.3a40 40 0 1 0 0-80 40 40 0 0 0 0 80z" fill="url(#c)"/><path d="M521.6 1062.3a40 40 0 1 0 0-80 40 40 0 0 0 0 80z" fill="url(#b)"/><path d="M521.6 607.4a40 40 0 1 0 0-80 40 40 0 0 0 0 80z" fill="url(#a)"/><path d="M686.8 835.3a40 40 0 1 0 0-80 40 40 0 0 0 0 80z" fill="url(#k)"/><path d="M973.5 835.3a40 40 0 1 0 0-80 40 40 0 0 0 0 80z" fill="url(#j)"/><path d="M254.2 879.4a4 4 0 0 1-4-4V714.3a4 4 0 1 1 8 0v161a4 4 0 0 1-4 4zm57.1-239.7a4 4 0 0 1-1.2-7.8l153.2-49.8a4 4 0 0 1 2.5 7.6l-153.3 49.8c-.4.2-.8.2-1.2.2zm340.5 110.9a4 4 0 0 1-3.2-1.6l-95-130.7a4 4 0 0 1 6.5-4.7l95 130.7a4 4 0 0 1-3.3 6.4zm-95 227.2a4 4 0 0 1-3.2-6.4l94.5-130a4 4 0 1 1 6.5 4.6L560 976.1a4 4 0 0 1-3.3 1.6zm-92.3 29.9c-.4 0-.8 0-1.2-.2L310 957.7a4 4 0 0 1 2.5-7.6l153.3 49.8a4 4 0 0 1-1.3 7.8zM630 780.3c-.5 0-.9 0-1.3-.2L310 676.6a4 4 0 0 1 2.5-7.6l318.7 103.5a4 4 0 0 1-1.3 7.8zM311.3 920.9a4 4 0 0 1-1.2-7.9l318.3-103.4a4 4 0 0 1 2.5 7.6L312.5 920.7l-1.2.1zm602.2-122.1H746.8a4 4 0 1 1 0-8h166.7a4 4 0 1 1 0 8z" fill="#1F2348" opacity=".2"/><defs><radialGradient id="l" cx="0" cy="0" r="1" gradientTransform="matrix(-80 0 0 -80 1456.7 834.8)" gradientUnits="userSpaceOnUse"><stop stop-color="#260133" offset="0"/><stop stop-color="#1F2348" offset="1"/></radialGradient><radialGradient id="i" cx="0" cy="0" r="1" gradientTransform="matrix(-80 0 0 -80 1816.7 627)" gradientUnits="userSpaceOnUse"><stop stop-color="#260133" offset="0"/><stop stop-color="#1F2348" offset="1"/></radialGradient><radialGradient id="h" cx="0" cy="0" r="1" gradientTransform="matrix(-80 0 0 -80 1936.7 834.8)" gradientUnits="userSpaceOnUse"><stop stop-color="#260133" offset="0"/><stop stop-color="#1F2348" offset="1"/></radialGradient><radialGradient id="g" cx="0" cy="0" r="1" gradientTransform="matrix(-80 0 0 -80 1576.7 628.5)" gradientUnits="userSpaceOnUse"><stop stop-color="#EC991C" offset="0"/><stop stop-color="#E9B213" offset="1"/></radialGradient><radialGradient id="f" cx="0" cy="0" r="1" gradientTransform="rotate(180 788.4 521.3) scale(80)" gradientUnits="userSpaceOnUse"><stop stop-color="#260133" offset="0"/><stop stop-color="#1F2348" offset="1"/></radialGradient><radialGradient id="e" cx="0" cy="0" r="1" gradientTransform="rotate(180 908.4 521.3) scale(80)" gradientUnits="userSpaceOnUse"><stop stop-color="#260133" offset="0"/><stop stop-color="#1F2348" offset="1"/></radialGradient><radialGradient id="d" cx="0" cy="0" r="1" gradientTransform="matrix(-80 0 0 -80 294.2 975.4)" gradientUnits="userSpaceOnUse"><stop stop-color="#260133" offset="0"/><stop stop-color="#1F2348" offset="1"/></radialGradient><radialGradient id="c" cx="0" cy="0" r="1" gradientTransform="matrix(-80 0 0 -80 294.2 694.3)" gradientUnits="userSpaceOnUse"><stop stop-color="#260133" offset="0"/><stop stop-color="#1F2348" offset="1"/></radialGradient><radialGradient id="b" cx="0" cy="0" r="1" gradientTransform="matrix(-80 0 0 -80 561.6 1062.3)" gradientUnits="userSpaceOnUse"><stop stop-color="#260133" offset="0"/><stop stop-color="#1F2348" offset="1"/></radialGradient><radialGradient id="a" cx="0" cy="0" r="1" gradientTransform="matrix(-80 0 0 -80 561.6 607.4)" gradientUnits="userSpaceOnUse"><stop stop-color="#260133" offset="0"/><stop stop-color="#1F2348" offset="1"/></radialGradient><radialGradient id="k" cx="0" cy="0" r="1" gradientTransform="matrix(-80 0 0 -80 726.8 835.3)" gradientUnits="userSpaceOnUse"><stop stop-color="#260133" offset="0"/><stop stop-color="#1F2348" offset="1"/></radialGradient><radialGradient id="j" cx="0" cy="0" r="1" gradientTransform="matrix(-80 0 0 -80 1013.5 835.3)" gradientUnits="userSpaceOnUse"><stop stop-color="#EC991C" offset="0"/><stop stop-color="#E9B213" offset="1"/></radialGradient></defs></svg>