<svg xmlns="http://www.w3.org/2000/svg" width="1000" height="890" fill="none" viewBox="0 0 1000 890"><path fill="url(#a)" d="M988.871 403.163 780.519 41.707C765.518 15.849 738.015 0 708.291 0H291.588a83.12 83.12 0 0 0-72.09 41.707L11.147 403.163a83.6 83.6 0 0 0 0 83.413l208.351 361.456a83.12 83.12 0 0 0 72.09 41.707h416.703a83.12 83.12 0 0 0 72.089-41.707l208.352-361.456c14.998-25.858 14.998-57.555.139-83.413"/><path stroke="url(#b)" stroke-linecap="round" stroke-linejoin="round" stroke-width="18" d="M317.954 319.703a19.921 19.921 0 0 0-33.566-21.286s-24.334 41.617-35.159 56.899c-40.708 57.537-56.672 85.372-41.708 119.712 12.508 28.791 32.884 47.758 50.031 54.035 23.788 8.778 39.707 5.458 69.59-3.639a64.8 64.8 0 0 1 21.104-3.002c37.115.773 62.858 31.838 74.729 21.332 11.826-10.598 7.641-20.786-4.639-39.571-8.703-14.237-24.233-41.462-32.559-55.288a5.77 5.77 0 0 1-.043-5.898l54.297-92.729a19.92 19.92 0 0 0-2.263-23.039 19.92 19.92 0 0 0-22.525-5.343c-3.548 1.41-6.595 3.866-8.778 7.005m-88.511-9.188-31.974 55.49m31.974-55.49 21.377-33.567a19.93 19.93 0 0 1 19.984-8.144 19.93 19.93 0 0 1 15.675 14.83 19.92 19.92 0 0 1-2.092 14.691m33.567 21.378 14.373-22.742a19.25 19.25 0 0 0 2.865-15.093 19.24 19.24 0 0 0-9.097-12.379 20.693 20.693 0 0 0-27.472 6.095l-14.236 22.741m33.567 21.378-47.576 79.868m14.009-101.246-47.575 79.869m368.141-37.524a19.97 19.97 0 0 0 11.69 10.189 19.94 19.94 0 0 0 15.437-1.283 19.91 19.91 0 0 0 9.851-11.953 19.87 19.87 0 0 0-1.728-15.464s-24.015-41.618-31.929-58.765c-29.564-63.904-46.12-91.831-83.053-95.833-31.156-3.366-57.946 5.049-71.681 16.51-19.467 16.329-24.652 31.702-31.611 62.176a66.1 66.1 0 0 1-7.869 19.74c-19.103 31.793-58.901 38.479-55.672 54.17 3.275 15.738 14.191 16.147 36.66 15.738h62.465a5.73 5.73 0 0 1 4.96 2.858l16.264 28.07 38.843 64.223a19.92 19.92 0 0 0 33.205 3.841 19.914 19.914 0 0 0 2.09-22.308m19.922-127.262 32.202 55.308 18.512 35.204a19.927 19.927 0 0 1-4.984 24.953 19.925 19.925 0 0 1-25.445-.301 20 20 0 0 1-4.866-6.14l-45.575-80.961m45.529 81.006 12.644 23.742a20.603 20.603 0 0 1-8.596 26.836 19.104 19.104 0 0 1-26.79-8.551l-12.598-23.788-45.62-80.96M438.349 582.142a19.923 19.923 0 0 1-6.498-38.873 19.9 19.9 0 0 1 7.999-.88h107.936a5.74 5.74 0 0 0 5.003-2.919c7.682-13.614 23.413-40.996 30.924-55.891 10.007-20.103 15.874-29.2 31.839-24.06 15.964 5.185 1.228 42.936 19.33 75.32a64.8 64.8 0 0 0 13.145 16.647c23.014 21.24 33.748 33.339 38.206 58.309 3.183 17.784-2.82 44.756-21.378 70.499-21.923 30.065-54.261 30.474-124.351 24.334-18.694-1.546-66.86-1.546-66.86-1.546a19.923 19.923 0 0 1-19.194-20.65 19.92 19.92 0 0 1 12.968-17.959 19.9 19.9 0 0 1 7.681-1.235m-36.75-81.096 92.876.909m-92.876-.909-26.881-.865a19.24 19.24 0 0 0-18.993 11.485 19.2 19.2 0 0 0-1.611 7.664 20.56 20.56 0 0 0 19.103 20.649l26.926.91 92.877.773m-54.671 40.48-39.752-1.455a19.89 19.89 0 0 1-14.555-6.049 19.97 19.97 0 0 1-3.73-22.469 19.93 19.93 0 0 1 19.786-11.28m38.251 41.253h64.041m7.223-316.416 62.594 100.151c2.021 3.233.38 7.502-3.286 8.549l-6.314 1.804a5.73 5.73 0 0 0-3.436 2.728L553.229 536.9a5.73 5.73 0 0 1-5.011 2.949h-113.7a5.73 5.73 0 0 1-5.732-5.733v-4.252c0-.911-.217-1.809-.633-2.619l-41.165-80.162a5.74 5.74 0 0 1 .109-5.44l55.875-98.855a5.73 5.73 0 0 1 5.251-2.906l93.539 4.252a5.73 5.73 0 0 1 4.601 2.688"/><path fill="url(#c)" d="m449 345-59.5 96.5 50 103h114L608 451l-66.5-106z"/><defs><linearGradient id="b" x1="731.277" x2="71.849" y1="150.022" y2="533.111" gradientUnits="userSpaceOnUse"><stop offset=".19" stop-color="#fff"/><stop offset=".61" stop-color="#fff" stop-opacity=".86"/><stop offset="1" stop-color="#fff" stop-opacity=".6"/></linearGradient><linearGradient id="c" x1="551" x2="429" y1="349.5" y2="545" gradientUnits="userSpaceOnUse"><stop stop-color="#fefbf5"/><stop offset="1" stop-color="#fcf3df"/></linearGradient><radialGradient id="a" cx="0" cy="0" r="1" gradientTransform="matrix(1000.34 0 0 1001.21 752.276 878.151)" gradientUnits="userSpaceOnUse"><stop stop-color="#ec991c"/><stop offset="1" stop-color="#e9b213"/></radialGradient></defs></svg>
