<svg xmlns="http://www.w3.org/2000/svg" fill="none" viewBox="0 0 166 147">
  <path fill="url(#a)" d="M163.354 66.6 128.936 6.89A13.794 13.794 0 0 0 117.005 0H48.168A13.73 13.73 0 0 0 36.26 6.89L1.84 66.6a13.81 13.81 0 0 0 0 13.779l34.419 59.71a13.73 13.73 0 0 0 11.908 6.889h68.837a13.73 13.73 0 0 0 11.908-6.889l34.418-59.71a13.75 13.75 0 0 0 .023-13.78Z"/>
  <path fill="url(#b)" d="M82.5 37C62.975 37 47 52.975 47 72.5S62.975 108 82.5 108c1.4 0 2.536-1.135 2.536-2.536V39.536c0-1.4-1.136-2.536-2.536-2.536Zm-2.536 5.071V68c0 1.085-.88 1.964-1.964 1.964h-8.5c-1.206 0-2.171-1.008-2.054-2.208.956-9.752 5.126-18.732 11.906-25.33a.36.36 0 0 1 .251-.101h.108c.14 0 .253-.114.253-.254Zm0 32.965v27.531c0 .2-.161.362-.36.362a.361.361 0 0 1-.252-.102c-6.78-6.597-10.95-15.577-11.906-25.33-.117-1.199.849-2.208 2.054-2.208h10.21c.14 0 .254-.113.254-.253ZM71.09 44.354c-.118.046-6.059 11.696-8.167 20.956-.587 2.578-2.778 4.654-5.422 4.654-2.92 0-5.245-2.52-4.48-5.337 2.519-9.283 9.302-16.852 18.07-20.273ZM52.476 77.427c-.313-1.268.718-2.391 2.024-2.391h6c.961 0 1.75.75 1.866 1.705 1.133 9.401 7.227 22.856 8.723 23.905-1.947-1.068-15.903-12.26-18.613-23.22Zm62.988 12.823a2.535 2.535 0 0 1-2.535-2.536V85.18c0-4.311-3.297-7.608-7.608-7.608-4.31 0-7.607 3.297-7.607 7.608v2.535c0 1.4-1.135 2.536-2.535 2.536-1.522 0-2.536 1.014-2.536 2.536v12.678c0 1.522 1.014 2.536 2.536 2.536h20.285c1.522 0 2.536-1.014 2.536-2.536V92.786c0-1.522-1.014-2.536-2.536-2.536Zm-12.678-5.071c0-1.522 1.014-2.536 2.535-2.536 1.522 0 2.536 1.014 2.536 2.536v2.535a2.535 2.535 0 1 1-5.071 0V85.18Zm10.143 13.946a3.804 3.804 0 0 1-3.804 3.804h-7.607a3.804 3.804 0 1 1 0-7.608h7.607a3.804 3.804 0 0 1 3.804 3.804Zm-7.608-46.91c4.311 0 7.608-3.297 7.608-7.608 0-4.31-3.297-7.607-7.608-7.607-4.31 0-7.607 3.296-7.607 7.607 0 4.31 3.297 7.607 7.607 7.607Zm0-10.144c1.522 0 2.536 1.015 2.536 2.536 0 1.522-1.014 2.536-2.536 2.536-1.521 0-2.535-1.014-2.535-2.536 0-1.521 1.014-2.536 2.535-2.536Zm0 25.358c1.522 0 2.536 1.014 2.536 2.535 0 1.522-1.014 2.536-2.536 2.536-1.521 0-2.535-1.014-2.535-2.536 0-1.521 1.014-2.535 2.535-2.535Zm0-10.143c1.522 0 2.536 1.014 2.536 2.535 0 1.522-1.014 2.536-2.536 2.536-1.521 0-2.535-1.014-2.535-2.536 0-1.521 1.014-2.535 2.535-2.535Z"/>
  <defs>
    <radialGradient id="a" cx="0" cy="0" r="1" gradientTransform="matrix(165.25 0 0 165.393 124.271 145.064)" gradientUnits="userSpaceOnUse">
      <stop stop-color="#EC991C"/>
      <stop offset="1" stop-color="#E9B213"/>
    </radialGradient>
    <linearGradient id="b" x1="118" x2="13.539" y1="19.267" y2="81.887" gradientUnits="userSpaceOnUse">
      <stop offset=".19" stop-color="white"/>
      <stop offset=".61" stop-color="white" stop-opacity=".86"/>
      <stop offset="1" stop-color="white" stop-opacity=".6"/>
    </linearGradient>
  </defs>
</svg>
