<svg xmlns="http://www.w3.org/2000/svg" fill="none" viewBox="0 0 166 147">
  <path fill="url(#a)" d="M163.354 66.6 128.936 6.89A13.794 13.794 0 0 0 117.005 0H48.168A13.73 13.73 0 0 0 36.26 6.89L1.84 66.6a13.81 13.81 0 0 0 0 13.779l34.419 59.71a13.73 13.73 0 0 0 11.908 6.889h68.837a13.73 13.73 0 0 0 11.908-6.889l34.418-59.71a13.75 13.75 0 0 0 .023-13.78Z"/>
  <path fill="url(#b)" d="M59.618 40.359c-2.075-2.077-1.178-5.53 1.751-5.32a15.278 15.278 0 0 1 9.714 4.436 15.274 15.274 0 0 1 4.234 13.49c-.273 1.521.046 3.14 1.14 4.232l42.709 42.71a4 4 0 0 1 0 5.657l-3.603 3.604a4 4 0 0 1-5.657 0l-42.71-42.71c-1.093-1.093-2.711-1.412-4.232-1.14a15.273 15.273 0 0 1-17.926-13.956c-.207-2.93 3.245-3.824 5.321-1.747l5.29 5.29a6.546 6.546 0 0 0 9.255-9.255l-5.286-5.291Zm40.412 5.559a4 4 0 0 1 1.979-2.711l9.632-5.352a4 4 0 0 1 4.772.67l1.905 1.906a4 4 0 0 1 .667 4.77l-5.352 9.632a4 4 0 0 1-2.713 1.98l-4.712.94a3.994 3.994 0 0 0-2.046 1.096l-5.568 5.57a4 4 0 0 1-5.656.001l-.516-.515a4 4 0 0 1 0-5.658l5.57-5.57a4 4 0 0 0 1.094-2.044l.944-4.715Zm-33.324 34.96a4 4 0 0 1 5.657 0l3.6 3.602a4 4 0 0 1 0 5.657L57.19 108.91a6.546 6.546 0 0 1-9.675-8.794l.423-.467 18.769-18.772Z"/>
  <defs>
    <radialGradient id="a" cx="0" cy="0" r="1" gradientTransform="matrix(165.25 0 0 165.393 124.271 145.064)" gradientUnits="userSpaceOnUse">
      <stop stop-color="#EC991C"/>
      <stop offset="1" stop-color="#E9B213"/>
    </radialGradient>
    <linearGradient id="b" x1="121.995" x2="8.712" y1="15.769" y2="83.676" gradientUnits="userSpaceOnUse">
      <stop offset=".19" stop-color="white"/>
      <stop offset=".61" stop-color="white" stop-opacity=".86"/>
      <stop offset="1" stop-color="white" stop-opacity=".6"/>
    </linearGradient>
  </defs>
</svg>
