<svg xmlns="http://www.w3.org/2000/svg" fill="none" viewBox="0 0 166 147">
  <path fill="url(#a)" d="M163.354 66.6 128.936 6.89A13.794 13.794 0 0 0 117.005 0H48.168A13.73 13.73 0 0 0 36.26 6.89L1.84 66.6a13.81 13.81 0 0 0 0 13.779l34.419 59.71a13.73 13.73 0 0 0 11.908 6.889h68.837a13.73 13.73 0 0 0 11.908-6.889l34.418-59.71a13.75 13.75 0 0 0 .023-13.78Z"/>
  <path fill="url(#b)" d="M92.926 25.51a10.19 10.19 0 0 1 6.807-1.404 5.515 5.515 0 0 1 5.128 4.283c.25 1.52-.671 2.266 2.565 3.412 3.263 1.169 10.683 2.713 12.85 4.28 2.166 1.595-.896 3.214-4.282 3.438a38.282 38.282 0 0 1-10.258-1.717c-3.162-.723-5.754-.973-6.003 3.436a40.831 40.831 0 0 0 5.128 18.823c3.315 5.43 7.846 7.296 3.44 16.26-4.406 8.964-17.78 25.051-27.393 32.522-9.636 7.467-15.512 6.298-21.412 5.129l.726-1.47-.726.622c-8.642 7.396-12.752 10.907-14.543 6.001-1.767-4.93-1.222-18.301 2.863-27.714 4.108-9.387 11.755-14.816 19.398-20.219 5.855-3.184 11.73-6.346 16.165-5.556l.358-.724a15.15 15.15 0 0 0 4.02-10.852c.274-6.474-1.195-17.106.846-23.107a10.19 10.19 0 0 1 4.323-5.442Z"/>
  <defs>
    <radialGradient id="a" cx="0" cy="0" r="1" gradientTransform="matrix(165.25 0 0 165.393 124.271 145.064)" gradientUnits="userSpaceOnUse">
      <stop stop-color="#EC991C"/>
      <stop offset="1" stop-color="#E9B213"/>
    </radialGradient>
    <linearGradient id="b" x1="121.001" x2="-4.755" y1="-.327" y2="59.272" gradientUnits="userSpaceOnUse">
      <stop offset=".19" stop-color="white"/>
      <stop offset=".61" stop-color="white" stop-opacity=".86"/>
      <stop offset="1" stop-color="white" stop-opacity=".6"/>
    </linearGradient>
  </defs>
</svg>
