<svg width="166" height="147" viewBox="0 0 166 147" fill="none" xmlns="http://www.w3.org/2000/svg">
<path d="M163.354 66.5996L128.936 6.88962C126.458 2.61805 121.915 0 117.005 0H48.1682C43.2579 0 38.7147 2.61805 36.2595 6.88962L1.84137 66.5996C-0.613791 70.8712 -0.613791 76.1073 1.84137 80.3788L36.2595 140.089C38.7147 144.36 43.2579 146.978 48.1682 146.978H117.005C121.915 146.978 126.458 144.36 128.913 140.089L163.331 80.3788C165.81 76.1073 165.81 70.8712 163.354 66.5996Z" fill="url(#paint0_radial_1814_9571)"/>
<path fill-rule="evenodd" clip-rule="evenodd" d="M79.2868 39.2898C75.816 36.8107 71.1058 38.0502 69.3704 41.7689L67.3871 47.2229C66.3955 49.454 64.4122 50.9415 62.4289 51.1894L56.4791 51.9331C52.5126 52.4289 49.7856 56.8913 51.521 60.6099L53.7521 65.816C54.4959 68.0472 54.248 70.5263 52.7605 72.2617L49.2898 76.724C46.8107 80.1948 48.0502 84.905 51.7689 86.6404L57.2229 88.6237C59.454 89.6153 60.9415 91.5986 61.1894 93.5819L61.9331 99.5317C62.4289 103.498 66.8913 105.977 70.6099 104.49L75.816 102.259C78.0472 101.515 80.5263 101.763 82.2617 103.25L86.724 106.721C90.1948 109.2 94.905 107.961 96.6404 103.994L98.6237 98.7879C99.6153 96.5568 101.599 95.0693 103.582 94.8214L109.532 94.0777C113.498 93.5819 115.977 89.1195 114.49 85.4009L112.259 80.1948C111.515 77.9636 111.763 75.4845 113.25 73.7491L116.721 69.2868C119.2 65.816 117.961 61.1058 113.994 59.3704L108.788 57.3871C107.755 56.9733 106.847 56.2992 106.152 55.4303C105.457 54.5615 104.998 53.5275 104.821 52.4289L104.078 46.4791C103.582 42.5126 99.1195 39.7856 95.4009 41.521L90.1948 43.7521C87.9636 44.4959 85.4845 44.248 83.7491 42.7605L79.2868 39.2898ZM97.1362 67.3035C97.3804 67.0756 97.5773 66.8018 97.7156 66.4979C97.854 66.1939 97.9312 65.8656 97.9427 65.5318C97.9542 65.198 97.8998 64.8652 97.7827 64.5524C97.6656 64.2396 97.4881 63.953 97.2602 63.7088C97.0323 63.4646 96.7585 63.2677 96.4545 63.1294C96.1506 62.991 95.8223 62.9139 95.4885 62.9024C95.1547 62.8908 94.8219 62.9452 94.5091 63.0623C94.1963 63.1794 93.9097 63.357 93.6655 63.5849L79.3641 77.4095C79.046 77.717 78.5401 77.7127 78.2272 77.3999L72.3453 71.5179C71.8522 71.0577 71.1964 70.8122 70.5223 70.8354C69.8482 70.8587 69.2109 71.1488 68.7506 71.6419C68.2904 72.135 68.0449 72.7908 68.0681 73.4649C68.0914 74.139 68.3815 74.7763 68.8746 75.2366L77.0556 83.1697C78.0472 83.9134 79.5347 83.9134 80.5263 83.1697L97.1362 67.3035Z" fill="url(#paint1_linear_1814_9571)"/>
<defs>
<radialGradient id="paint0_radial_1814_9571" cx="0" cy="0" r="1" gradientUnits="userSpaceOnUse" gradientTransform="translate(124.271 145.064) scale(165.25 165.393)">
<stop stop-color="#EC991C"/>
<stop offset="1" stop-color="#E9B213"/>
</radialGradient>
<linearGradient id="paint1_linear_1814_9571" x1="118" y1="21.5737" x2="18.5049" y2="85.0562" gradientUnits="userSpaceOnUse">
<stop offset="0.19" stop-color="white"/>
<stop offset="0.61" stop-color="white" stop-opacity="0.86"/>
<stop offset="1" stop-color="white" stop-opacity="0.6"/>
</linearGradient>
</defs>
</svg>
