<svg xmlns="http://www.w3.org/2000/svg" width="136" height="40" fill="none"><g filter="url(#a)"><path fill="#EC991C" d="M38.806 14.22 31.473 1.471A2.938 2.938 0 0 0 28.93 0H14.263a2.924 2.924 0 0 0-2.537 1.471L4.392 14.22a2.954 2.954 0 0 0 0 2.942l7.334 12.749a2.924 2.924 0 0 0 2.537 1.471H28.93a2.924 2.924 0 0 0 2.538-1.471L38.8 17.162c.528-.912.528-2.03.005-2.942Z"/></g><path fill="#fff" stroke="url(#b)" stroke-width=".461" d="M55.345 12.014v12.763h-2.718V6.605h2.101l9.954 12.904.412.535V6.605h2.727v18.172h-2.11l-9.954-12.904-.412-.535v.676Z"/><path fill="#fff" stroke="url(#c)" stroke-width=".461" d="M74.628 24.777V6.605h2.962v18.172h-2.962Z"/><path fill="#fff" stroke="url(#d)" stroke-width=".461" d="M99.121 13.393 94.17 24.777h-1.898L87.32 13.393l-.442.091v11.293h-2.473V6.605h2.308l6.296 14.45.21.484.212-.485 6.296-14.45h2.307v18.173h-2.472V13.484l-.442-.091Z"/><path fill="#fff" stroke="url(#e)" stroke-width=".461" d="M108.852 24.777V6.605h2.961v18.172h-2.961Z"/><path fill="#fff" stroke="url(#f)" stroke-width=".461" d="m130.896 24.27-.216.09.093.214c.092.214.338.586.618.966.284.386.623.804.918 1.113a21.48 21.48 0 0 0 1.736 1.66l-1.963 1.555c-.779-.564-1.469-1.233-2.179-2.014-.744-.82-1.38-1.727-1.96-2.74l-.072-.125-.144.01c-.136.009-.527.024-.771.024-1.859 0-3.398-.38-4.722-1.128-1.323-.751-2.332-1.825-3.031-3.236h-.001c-.642-1.284-1.061-3.008-1.061-4.968s.361-3.552 1.071-4.967c.709-1.407 1.724-2.486 3.047-3.237 1.323-.752 2.876-1.127 4.697-1.127 1.82 0 3.398.38 4.722 1.127 1.322.751 2.332 1.825 3.031 3.236.705 1.415 1.061 3.007 1.061 4.968 0 1.96-.428 3.688-1.07 4.967-.97 1.93-2.475 3.062-3.804 3.612Zm-8.258-3.347c1.038 1.248 2.486 1.863 4.318 1.863 1.831 0 3.285-.615 4.318-1.863 1.034-1.247 1.534-2.984 1.534-5.232 0-2.232-.5-4.01-1.535-5.243-1.038-1.237-2.486-1.852-4.317-1.852-1.83 0-3.283.605-4.317 1.838-1.036 1.229-1.536 3.011-1.536 5.257 0 2.248.501 3.985 1.535 5.232Z"/><defs><radialGradient id="b" cx="0" cy="0" r="1" gradientTransform="matrix(-15.6546 0 0 -18.6331 68.052 25.008)" gradientUnits="userSpaceOnUse"><stop stop-color="#260133"/><stop offset="1" stop-color="#1F2348"/></radialGradient><radialGradient id="c" cx="0" cy="0" r="1" gradientTransform="matrix(-3.42218 0 0 -18.6331 77.82 25.008)" gradientUnits="userSpaceOnUse"><stop stop-color="#260133"/><stop offset="1" stop-color="#1F2348"/></radialGradient><radialGradient id="d" cx="0" cy="0" r="1" gradientTransform="matrix(-18.0893 0 0 -18.6331 102.266 25.008)" gradientUnits="userSpaceOnUse"><stop stop-color="#260133"/><stop offset="1" stop-color="#1F2348"/></radialGradient><radialGradient id="e" cx="0" cy="0" r="1" gradientTransform="matrix(-3.42218 0 0 -18.6331 112.044 25.008)" gradientUnits="userSpaceOnUse"><stop stop-color="#260133"/><stop offset="1" stop-color="#1F2348"/></radialGradient><radialGradient id="f" cx="0" cy="0" r="1" gradientTransform="matrix(-18.0893 0 0 -24.0268 136 30.156)" gradientUnits="userSpaceOnUse"><stop stop-color="#260133"/><stop offset="1" stop-color="#1F2348"/></radialGradient><filter id="a" width="43.198" height="39.382" x="0" y="0" color-interpolation-filters="sRGB" filterUnits="userSpaceOnUse"><feFlood flood-opacity="0" result="BackgroundImageFix"/><feColorMatrix in="SourceAlpha" result="hardAlpha" values="0 0 0 0 0 0 0 0 0 0 0 0 0 0 0 0 0 0 127 0"/><feOffset dy="4"/><feGaussianBlur stdDeviation="2"/><feComposite in2="hardAlpha" operator="out"/><feColorMatrix values="0 0 0 0 0 0 0 0 0 0 0 0 0 0 0 0 0 0 0.25 0"/><feBlend in2="BackgroundImageFix" result="effect1_dropShadow_1747_1072"/><feBlend in="SourceGraphic" in2="effect1_dropShadow_1747_1072" result="shape"/></filter></defs></svg>
