<svg xmlns="http://www.w3.org/2000/svg" width="132" height="32" fill="none"><path fill="url(#a)" d="m34.806 14.316-7.333-12.75A2.938 2.938 0 0 0 24.93.097H10.263a2.924 2.924 0 0 0-2.537 1.47L.392 14.317a2.954 2.954 0 0 0 0 2.942l7.334 12.749a2.924 2.924 0 0 0 2.537 1.47H24.93a2.924 2.924 0 0 0 2.538-1.47l7.333-12.75c.528-.911.528-2.03.005-2.941Z"/><path fill="url(#b)" d="M60.864 6.47h3.188v18.633h-2.455L51.575 12.11v12.994h-3.178V6.47h2.445l10.022 12.994V6.47Z"/><path fill="url(#c)" d="M70.398 25.103V6.47h3.422v18.633h-3.422Z"/><path fill="url(#d)" d="M95.577 6.47h2.689v18.633h-2.934V13.58l-5.011 11.523h-2.2L83.11 13.58v11.523h-2.934V6.47h2.69l6.355 14.588L95.577 6.47Z"/><path fill="url(#e)" d="M104.622 25.103V6.47h3.422v18.633h-3.422Z"/><path fill="url(#f)" d="M130.905 20.857c-.997 1.986-2.547 3.153-3.921 3.722.162.372.919 1.412 1.492 2.01.572.598 1.173 1.206 1.936 1.824l-2.323 1.839c-.855-.598-1.598-1.314-2.356-2.148-.758-.833-1.403-1.755-1.99-2.78-.142.01-.538.024-.787.024-1.892 0-3.471-.387-4.835-1.157-1.364-.774-2.406-1.883-3.125-3.334-.66-1.32-1.085-3.08-1.085-5.07 0-1.991.367-3.619 1.095-5.07.729-1.447 1.775-2.56 3.139-3.335 1.364-.774 2.958-1.157 4.811-1.157 1.853 0 3.471.387 4.835 1.157 1.364.775 2.405 1.883 3.124 3.335.724 1.451 1.085 3.079 1.085 5.07 0 1.99-.435 3.756-1.095 5.07Zm-12.09.015c.987 1.186 2.366 1.78 4.141 1.78s3.158-.594 4.141-1.78c.987-1.192 1.481-2.869 1.481-5.085 0-2.202-.494-3.918-1.481-5.095-.988-1.177-2.366-1.77-4.141-1.77s-3.158.583-4.141 1.755c-.988 1.172-1.482 2.893-1.482 5.11 0 2.216.494 3.893 1.482 5.085Z"/><defs><radialGradient id="a" cx="0" cy="0" r="1" gradientTransform="matrix(-35.1978 0 0 -31.382 35.198 31.478)" gradientUnits="userSpaceOnUse"><stop stop-color="#265DD7"/><stop offset="1" stop-color="#0582CA"/></radialGradient><radialGradient id="b" cx="0" cy="0" r="1" gradientTransform="matrix(-15.6546 0 0 -18.6331 64.052 25.103)" gradientUnits="userSpaceOnUse"><stop stop-color="#265DD7"/><stop offset="1" stop-color="#0582CA"/></radialGradient><radialGradient id="c" cx="0" cy="0" r="1" gradientTransform="matrix(-3.42218 0 0 -18.6331 73.82 25.103)" gradientUnits="userSpaceOnUse"><stop stop-color="#265DD7"/><stop offset="1" stop-color="#0582CA"/></radialGradient><radialGradient id="d" cx="0" cy="0" r="1" gradientTransform="matrix(-18.0893 0 0 -18.6331 98.266 25.103)" gradientUnits="userSpaceOnUse"><stop stop-color="#265DD7"/><stop offset="1" stop-color="#0582CA"/></radialGradient><radialGradient id="e" cx="0" cy="0" r="1" gradientTransform="matrix(-3.42218 0 0 -18.6331 108.044 25.103)" gradientUnits="userSpaceOnUse"><stop stop-color="#265DD7"/><stop offset="1" stop-color="#0582CA"/></radialGradient><radialGradient id="f" cx="0" cy="0" r="1" gradientTransform="matrix(-18.0893 0 0 -24.0269 132 30.252)" gradientUnits="userSpaceOnUse"><stop stop-color="#265DD7"/><stop offset="1" stop-color="#0582CA"/></radialGradient></defs></svg>
