<svg xmlns="http://www.w3.org/2000/svg" fill="none" viewBox="0 0 209 208"><path stroke="currentColor" stroke-linecap="round" stroke-linejoin="round" stroke-width="15" d="M239.186 104.089c1.364 0 2.672.506 3.636 1.407.965.901 1.507 2.123 1.507 3.397v72.067c0 5.097-2.168 9.985-6.026 13.589-3.857 3.604-9.09 5.629-14.546 5.629H28.332c-5.456 0-10.689-2.025-14.546-5.629-3.858-3.604-6.025-8.492-6.025-13.589V27.218c0-5.097 2.167-9.985 6.025-13.59C17.643 10.026 22.876 8 28.332 8H136.33c1.364 0 2.672.506 3.637 1.407.964.901 1.506 2.123 1.506 3.397V94.48c0 2.548 1.084 4.992 3.012 6.794 1.929 1.802 4.546 2.815 7.273 2.815h87.428ZM7.76 56.045h133.713"/><path stroke="currentColor" stroke-linecap="round" stroke-linejoin="round" stroke-width="15" d="M43.76 29.62c.508 0 1.005.141 1.428.405.423.264.753.64.947 1.078.195.439.246.922.147 1.388-.1.466-.344.894-.704 1.23-.36.336-.818.565-1.317.657a2.74 2.74 0 0 1-1.485-.136 2.541 2.541 0 0 1-1.154-.885 2.29 2.29 0 0 1-.434-1.335c0-.637.271-1.248.753-1.698a2.666 2.666 0 0 1 1.819-.704M74.557 29.62c.509 0 1.006.141 1.429.405.423.264.752.64.947 1.078.194.439.245.922.146 1.388-.099.466-.344.894-.703 1.23-.36.336-.818.565-1.317.657a2.74 2.74 0 0 1-1.486-.136 2.541 2.541 0 0 1-1.154-.885 2.29 2.29 0 0 1-.433-1.335c0-.637.27-1.248.753-1.698a2.666 2.666 0 0 1 1.818-.704M105.599 29.62c.509 0 1.006.141 1.429.405.423.264.753.64.947 1.078.195.439.246.922.146 1.388a2.36 2.36 0 0 1-.703 1.23c-.36.336-.818.565-1.317.657a2.741 2.741 0 0 1-1.486-.136 2.548 2.548 0 0 1-1.154-.885 2.295 2.295 0 0 1-.433-1.335c0-.637.271-1.248.753-1.698a2.665 2.665 0 0 1 1.818-.704M141.472 65.653h102.856M141.472 27.218h102.856M182.615 8v96.089"/></svg>
