<svg xmlns="http://www.w3.org/2000/svg" fill="none" viewBox="0 0 96 96">
  <g stroke="currentColor" stroke-width="6">
    <path stroke-linecap="round" stroke-linejoin="round" d="M52 92h-8" />
    <path
      d="M48 24c-13.255 0-24 10.745-24 24 0 7.279 4.583 13.8 10.184 18.202C36.43 67.966 38 70.548 38 73.404V76a4 4 0 0 0 4 4h12a4 4 0 0 0 4-4v-2.596c0-2.856 1.57-5.438 3.816-7.202C67.417 61.8 72 55.279 72 48c0-13.255-10.745-24-24-24Z" />
    <path stroke-linecap="round"
      d="M92 48h-7M4 48h7M48 4v7M79.112 16.887l-4.95 4.95M16.888 16.887l4.95 4.95" />
  </g>
</svg>
