<svg xmlns="http://www.w3.org/2000/svg" fill="none" viewBox="0 0 204 228"><path stroke="currentColor" stroke-linecap="round" stroke-linejoin="round" stroke-width="15" d="M172.18 26.802c0-1.838-.635-3.628-1.81-5.103-1.174-1.475-2.827-2.556-4.712-3.084L129.069 8.361a9.766 9.766 0 0 0-5.26 0l-36.59 10.254c-1.882.53-3.533 1.612-4.706 3.086-1.174 1.475-1.807 3.264-1.806 5.1v43.403a8.155 8.155 0 0 0 1.575 4.79c1.026 1.413 2.481 2.507 4.179 3.14l36.589 13.673a9.745 9.745 0 0 0 6.796 0l36.589-13.672c1.696-.635 3.149-1.73 4.173-3.143a8.157 8.157 0 0 0 1.572-4.788V26.802Z"/><path stroke="currentColor" stroke-linecap="round" stroke-linejoin="round" stroke-width="15" d="m169.846 21.102-43.404 12.16-43.403-12.16M126.443 32.945v59.819M235.042 137.137c0-.869-.284-1.717-.813-2.432a4.542 4.542 0 0 0-2.151-1.567l-32.015-11.212a4.883 4.883 0 0 0-3.211 0l-32.015 11.212a4.542 4.542 0 0 0-2.151 1.567 4.084 4.084 0 0 0-.813 2.432v32.849c0 .793.236 1.57.682 2.245a4.477 4.477 0 0 0 1.843 1.575l32.015 14.954a4.832 4.832 0 0 0 2.045.451 4.83 4.83 0 0 0 2.044-.451l32.015-14.954a4.477 4.477 0 0 0 1.843-1.575 4.067 4.067 0 0 0 .682-2.245v-32.849Z"/><path stroke="currentColor" stroke-linecap="round" stroke-linejoin="round" stroke-width="15" d="m234.077 134.513-35.619 12.476-35.611-12.476M198.453 146.674v42.727M117.88 140.879a8.176 8.176 0 0 0-1.727-4.999c-1.123-1.455-2.708-2.544-4.53-3.111l-45.736-14.245a9.757 9.757 0 0 0-5.781 0l-45.737 14.245c-1.822.567-3.407 1.656-4.53 3.111a8.173 8.173 0 0 0-1.726 4.999v56.05c0 1.794.603 3.543 1.726 4.998 1.123 1.456 2.708 2.544 4.53 3.111l45.737 14.246a9.773 9.773 0 0 0 5.78 0l45.737-14.246c1.822-.567 3.407-1.655 4.53-3.111a8.171 8.171 0 0 0 1.727-4.998v-56.05Z"/><path stroke="currentColor" stroke-linecap="round" stroke-linejoin="round" stroke-width="15" d="M115.743 135.384 63 151.808l-52.743-16.424M62.996 151.492v68.364"/></svg>
