<svg width="16" height="16" viewBox="0 0 16 16" fill="none" xmlns="http://www.w3.org/2000/svg">
<path d="M1 15V1" stroke="currentColor" stroke-width="1.5" stroke-linecap="round" stroke-linejoin="round"/>
<path d="M1 1H9.55556C9.76184 1 9.95967 1.08194 10.1055 1.22781C10.2514 1.37367 10.3333 1.5715 10.3333 1.77778V8C10.3333 8.20628 10.2514 8.40411 10.1055 8.54997C9.95967 8.69583 9.76184 8.77778 9.55556 8.77778H1" stroke="currentColor" stroke-width="1.5" stroke-linecap="round" stroke-linejoin="round"/>
<path d="M10.3334 4.11115H14.2223C14.4286 4.11115 14.6264 4.19309 14.7723 4.33895C14.9181 4.48481 15.0001 4.68264 15.0001 4.88892V11.1111C15.0001 11.3174 14.9181 11.5153 14.7723 11.6611C14.6264 11.807 14.4286 11.8889 14.2223 11.8889H9.55561C9.34933 11.8889 9.1515 11.807 9.00564 11.6611C8.85978 11.5153 8.77783 11.3174 8.77783 11.1111V8.77781" stroke="currentColor" stroke-width="1.5" stroke-linecap="round" stroke-linejoin="round"/>
</svg>
