<svg xmlns="http://www.w3.org/2000/svg" fill="none" viewBox="0 0 24 24"><g clip-path="url(#a)"><mask id="b" width="24" height="24" x="0" y="0" maskUnits="userSpaceOnUse" style="mask-type:luminance"><path fill="#fff" d="M0 0h24v24H0V0Z"/></mask><g stroke="currentColor" stroke-linecap="round" stroke-linejoin="round" stroke-width="2" mask="url(#b)"><path d="M23 12c0 6.075-4.925 11-11 11S1 18.075 1 12 5.925 1 12 1s11 4.925 11 11Z"/><path d="M2.118 8.47h19.764M2.118 15.53h19.764M12 1.412S7.06 3.53 7.06 12c0 8.47 4.94 10.588 4.94 10.588S16.941 20.47 16.941 12c0-8.47-4.94-10.588-4.94-10.588Z"/></g></g><defs><clipPath id="a"><path fill="#fff" d="M0 0h24v24H0z"/></clipPath></defs></svg>
