<svg xmlns="http://www.w3.org/2000/svg" fill="none" viewBox="0 0 96 96"><path stroke="currentColor" stroke-linecap="round" stroke-linejoin="round" stroke-width="6" d="M72.454 9.85c-4.15 4.152-11.894 3.757-18.585-2.934L48 12.781l31.302 31.3 13.694-13.693L72.454 9.85ZM47.761 39.934l-14.84-14.836a15.65 15.65 0 0 0-20.706-20.71l8.397 8.393v7.825h-7.826L4.39 12.214a15.65 15.65 0 0 0 20.706 20.709l14.84 14.836M48.239 56.062l14.84 14.84a15.65 15.65 0 0 0 20.706 20.71l-8.397-8.405v-7.825h7.826l8.396 8.4a15.65 15.65 0 0 0-20.706-20.709l-14.84-14.84"/><path stroke="currentColor" stroke-linecap="round" stroke-linejoin="round" stroke-width="6" d="M61.456 26.24 4.723 82.972a5.87 5.87 0 1 0 8.302 8.302L69.76 34.542"/></svg>
