<svg xmlns="http://www.w3.org/2000/svg" fill="none" viewBox="0 0 166 147">
  <path fill="url(#a)" d="M163.354 66.6 128.936 6.89A13.794 13.794 0 0 0 117.005 0H48.168A13.73 13.73 0 0 0 36.26 6.89L1.84 66.6a13.81 13.81 0 0 0 0 13.779l34.419 59.71a13.73 13.73 0 0 0 11.908 6.889h68.837a13.73 13.73 0 0 0 11.908-6.889l34.418-59.71a13.75 13.75 0 0 0 .023-13.78Z"/>
  <path fill="url(#b)" d="M36.818 91a3 3 0 0 1-3-3V59.732a3 3 0 0 1 3-3h13.867c4.05 0 7.178.972 9.381 2.916 2.204 1.944 3.305 4.634 3.305 8.069 0 2.268-.502 4.229-1.507 5.881-.972 1.62-2.414 2.884-4.325 3.792-1.7.777-3.718 1.209-6.056 1.296a.686.686 0 0 1-.685-.854.705.705 0 0 1 .685-.54h2.313c1.426 0 2.706.422 3.84 1.264 1.134.81 2.074 1.88 2.819 3.208l2.72 4.743c1.148 2-.296 4.493-2.602 4.493h-4.558a3 3 0 0 1-2.634-1.565l-5.03-9.226c-.258-.486-.68-.827-1.263-1.02a4.922 4.922 0 0 0-1.798-.341.972.972 0 0 0-.973.972V88a3 3 0 0 1-3 3h-4.499Zm7.5-22.492a3 3 0 0 0 3 3h1.471c1.49 0 2.625-.275 3.403-.826.777-.583 1.166-1.458 1.166-2.625 0-1.134-.389-1.977-1.166-2.527-.778-.551-1.912-.827-3.403-.827h-1.472a3 3 0 0 0-3 3v.805Z"/>
  <path fill="url(#c)" d="M71.802 91a3 3 0 0 1-3-3V59.732a3 3 0 0 1 3-3h14.693c4.05 0 7.096 1.004 9.138 3.013 2.041 1.977 3.062 4.65 3.062 8.02 0 3.338-1.02 6.011-3.062 8.02-2.041 2.01-5.087 3.014-9.138 3.014H82.3a3 3 0 0 0-3 3V88a3 3 0 0 1-3 3h-4.499Zm7.5-23.172a3 3 0 0 0 3 3h2.783c1.232 0 2.139-.26 2.722-.778.584-.55.875-1.312.875-2.284 0-.973-.291-1.718-.875-2.236-.583-.551-1.49-.827-2.722-.827h-2.784a3 3 0 0 0-3 3v.125Z"/>
  <path fill="url(#d)" d="M120.487 91.583c-3.823 0-7.145-.73-9.964-2.188-2.787-1.49-4.958-3.564-6.513-6.221-1.523-2.657-2.285-5.768-2.285-9.333 0-3.564.762-6.659 2.285-9.284 1.555-2.657 3.726-4.714 6.513-6.173 2.819-1.49 6.141-2.236 9.964-2.236 2.334 0 4.472.308 6.417.924 1.183.35 2.245.792 3.185 1.327 1.097.625 1.43 1.989.989 3.172l-1.004 2.694c-.676 1.812-2.847 2.449-4.656 1.764a9.483 9.483 0 0 0-.605-.208c-1.166-.389-2.478-.583-3.937-.583-2.624 0-4.65.745-6.076 2.236-1.393 1.458-2.09 3.58-2.09 6.367 0 2.82.697 4.974 2.09 6.465 1.426 1.458 3.452 2.187 6.076 2.187 1.459 0 2.771-.178 3.937-.534.202-.068.408-.144.619-.228 1.795-.723 3.966-.077 4.642 1.736l1.004 2.694c.441 1.183.108 2.545-.985 3.177-.941.544-2.004 1-3.189 1.37-1.945.583-4.083.875-6.417.875Z"/>
  <path stroke="url(#e)" d="M36.818 91a3 3 0 0 1-3-3V59.732a3 3 0 0 1 3-3h13.867c4.05 0 7.178.972 9.381 2.916 2.204 1.944 3.305 4.634 3.305 8.069 0 2.268-.502 4.229-1.507 5.881-.972 1.62-2.414 2.884-4.325 3.792-1.7.777-3.718 1.209-6.056 1.296a.686.686 0 0 1-.685-.854.705.705 0 0 1 .685-.54h2.313c1.426 0 2.706.422 3.84 1.264 1.134.81 2.074 1.88 2.819 3.208l2.72 4.743c1.148 2-.296 4.493-2.602 4.493h-4.558a3 3 0 0 1-2.634-1.565l-5.03-9.226c-.258-.486-.68-.827-1.263-1.02a4.922 4.922 0 0 0-1.798-.341.972.972 0 0 0-.973.972V88a3 3 0 0 1-3 3h-4.499Zm7.5-22.492a3 3 0 0 0 3 3h1.471c1.49 0 2.625-.275 3.403-.826.777-.583 1.166-1.458 1.166-2.625 0-1.134-.389-1.977-1.166-2.527-.778-.551-1.912-.827-3.403-.827h-1.472a3 3 0 0 0-3 3v.805Z"/>
  <path stroke="url(#f)" d="M71.802 91a3 3 0 0 1-3-3V59.732a3 3 0 0 1 3-3h14.693c4.05 0 7.096 1.004 9.138 3.013 2.041 1.977 3.062 4.65 3.062 8.02 0 3.338-1.02 6.011-3.062 8.02-2.041 2.01-5.087 3.014-9.138 3.014H82.3a3 3 0 0 0-3 3V88a3 3 0 0 1-3 3h-4.499Zm7.5-23.172a3 3 0 0 0 3 3h2.783c1.232 0 2.139-.26 2.722-.778.584-.55.875-1.312.875-2.284 0-.973-.291-1.718-.875-2.236-.583-.551-1.49-.827-2.722-.827h-2.784a3 3 0 0 0-3 3v.125Z"/>
  <path stroke="url(#g)" d="M120.487 91.583c-3.823 0-7.145-.73-9.964-2.188-2.787-1.49-4.958-3.564-6.513-6.221-1.523-2.657-2.285-5.768-2.285-9.333 0-3.564.762-6.659 2.285-9.284 1.555-2.657 3.726-4.714 6.513-6.173 2.819-1.49 6.141-2.236 9.964-2.236 2.334 0 4.472.308 6.417.924 1.183.35 2.245.792 3.185 1.327 1.097.625 1.43 1.989.989 3.172l-1.004 2.694c-.676 1.812-2.847 2.449-4.656 1.764a9.483 9.483 0 0 0-.605-.208c-1.166-.389-2.478-.583-3.937-.583-2.624 0-4.65.745-6.076 2.236-1.393 1.458-2.09 3.58-2.09 6.367 0 2.82.697 4.974 2.09 6.465 1.426 1.458 3.452 2.187 6.076 2.187 1.459 0 2.771-.178 3.937-.534.202-.068.408-.144.619-.228 1.795-.723 3.966-.077 4.642 1.736l1.004 2.694c.441 1.183.108 2.545-.985 3.177-.941.544-2.004 1-3.189 1.37-1.945.583-4.083.875-6.417.875Z"/>
  <defs>
    <linearGradient id="b" x1="131.813" x2="84.168" y1="47.833" y2="131.904" gradientUnits="userSpaceOnUse">
      <stop offset=".19" stop-color="white"/>
      <stop offset=".61" stop-color="white" stop-opacity=".86"/>
      <stop offset="1" stop-color="white" stop-opacity=".6"/>
    </linearGradient>
    <linearGradient id="c" x1="131.813" x2="84.168" y1="47.833" y2="131.904" gradientUnits="userSpaceOnUse">
      <stop offset=".19" stop-color="white"/>
      <stop offset=".61" stop-color="white" stop-opacity=".86"/>
      <stop offset="1" stop-color="white" stop-opacity=".6"/>
    </linearGradient>
    <linearGradient id="d" x1="131.813" x2="84.168" y1="47.833" y2="131.904" gradientUnits="userSpaceOnUse">
      <stop offset=".19" stop-color="white"/>
      <stop offset=".61" stop-color="white" stop-opacity=".86"/>
      <stop offset="1" stop-color="white" stop-opacity=".6"/>
    </linearGradient>
    <linearGradient id="e" x1="131.813" x2="86.522" y1="54.417" y2="127.524" gradientUnits="userSpaceOnUse">
      <stop offset=".19" stop-color="white"/>
      <stop offset=".61" stop-color="white" stop-opacity=".86"/>
      <stop offset="1" stop-color="white" stop-opacity=".6"/>
    </linearGradient>
    <linearGradient id="f" x1="131.813" x2="86.522" y1="54.417" y2="127.524" gradientUnits="userSpaceOnUse">
      <stop offset=".19" stop-color="white"/>
      <stop offset=".61" stop-color="white" stop-opacity=".86"/>
      <stop offset="1" stop-color="white" stop-opacity=".6"/>
    </linearGradient>
    <linearGradient id="g" x1="131.813" x2="86.522" y1="54.417" y2="127.524" gradientUnits="userSpaceOnUse">
      <stop offset=".19" stop-color="white"/>
      <stop offset=".61" stop-color="white" stop-opacity=".86"/>
      <stop offset="1" stop-color="white" stop-opacity=".6"/>
    </linearGradient>
    <radialGradient id="a" cx="0" cy="0" r="1" gradientTransform="matrix(165.25 0 0 165.393 124.271 145.064)" gradientUnits="userSpaceOnUse">
      <stop stop-color="#EC991C"/>
      <stop offset="1" stop-color="#E9B213"/>
    </radialGradient>
  </defs>
</svg>
