<svg xmlns="http://www.w3.org/2000/svg" width="1444" height="152" fill="none"><path fill="url(#a)" d="M168.757 68.74 133.201 7.112A14.254 14.254 0 0 0 120.874 0H49.761A14.187 14.187 0 0 0 37.46 7.111L1.902 68.741a14.243 14.243 0 0 0 0 14.222l35.557 61.63a14.188 14.188 0 0 0 12.302 7.111h71.113c5.073 0 9.767-2.703 12.303-7.111l35.557-61.63a14.184 14.184 0 0 0 .023-14.222Z"/><path fill="#1F2348" d="M295.101 30.814h15.456v90.075h-11.9l-48.594-62.815v62.815h-15.408V30.814h11.852l48.594 62.815V30.814ZM341.325 120.889V30.814h16.593v90.075h-16.593ZM463.402 30.814h13.038v90.075h-14.223V65.185l-24.297 55.704h-10.667l-24.297-55.704v55.704h-14.223V30.814h13.038l30.815 70.519 30.816-70.519ZM507.256 120.889V30.814h16.592v90.075h-16.592ZM634.69 100.362c-4.835 9.6-12.35 15.241-19.011 17.991.783 1.801 4.457 6.827 7.23 9.718 2.774 2.892 5.689 5.831 9.387 8.818l-11.259 8.889c-4.149-2.892-7.752-6.353-11.426-10.382-3.674-4.03-6.803-8.486-9.648-13.44-.687.047-2.607.118-3.816.118-9.174 0-16.83-1.872-23.444-5.594-6.613-3.745-11.662-9.102-15.147-16.118-3.2-6.377-5.262-14.886-5.262-24.51 0-9.624 1.778-17.493 5.31-24.51 3.532-6.992 8.604-12.373 15.218-16.118 6.613-3.745 14.341-5.594 23.325-5.594s16.83 1.873 23.444 5.594c6.613 3.745 11.662 9.102 15.147 16.119 3.508 7.016 5.262 14.885 5.262 24.51 0 9.623-2.11 18.156-5.31 24.509Zm-58.621.071c4.789 5.736 11.473 8.604 20.078 8.604 8.605 0 15.313-2.868 20.078-8.604 4.788-5.76 7.182-13.867 7.182-24.58 0-10.644-2.394-18.94-7.182-24.629-4.789-5.689-11.473-8.557-20.078-8.557-8.605 0-15.313 2.82-20.078 8.486-4.788 5.665-7.182 13.985-7.182 24.7 0 10.713 2.394 18.82 7.182 24.58ZM714.788 121V39.22h31.784c8.429 0 14.925 2.01 19.488 6.032 4.64 4.021 6.96 9.667 6.96 16.936 0 7.115-2.32 12.721-6.96 16.82-4.563 4.099-11.059 6.148-19.488 6.148H721.98V121h-7.192Zm7.192-42.108h24.128c6.419 0 11.291-1.43 14.616-4.292 3.325-2.939 4.988-7.076 4.988-12.412 0-5.336-1.663-9.473-4.988-12.412s-8.197-4.408-14.616-4.408H721.98v33.524ZM787.032 121V76.456c0-2.243-.078-4.485-.232-6.728a66.478 66.478 0 0 0-.58-6.844h6.96l.928 13.34-1.392.116c.773-3.248 2.165-5.916 4.176-8.004 2.01-2.165 4.33-3.79 6.96-4.872a21.134 21.134 0 0 1 8.12-1.624c1.005 0 1.933.077 2.784.232.928.077 1.778.232 2.552.464l-.232 6.38a11.91 11.91 0 0 0-2.784-.58 36.478 36.478 0 0 0-3.016-.116c-3.48 0-6.535.85-9.164 2.552-2.552 1.701-4.524 3.867-5.916 6.496-1.392 2.63-2.088 5.297-2.088 8.004V121h-7.076Zm62.845.928c-5.49 0-10.246-1.199-14.268-3.596-3.944-2.397-6.998-5.839-9.164-10.324-2.165-4.485-3.248-9.86-3.248-16.124 0-6.187 1.083-11.523 3.248-16.008 2.166-4.485 5.22-7.927 9.164-10.324 4.022-2.475 8.778-3.712 14.268-3.712 5.414 0 10.092 1.237 14.036 3.712 4.022 2.397 7.115 5.839 9.28 10.324 2.243 4.485 3.364 9.821 3.364 16.008 0 6.264-1.121 11.639-3.364 16.124-2.165 4.485-5.258 7.927-9.28 10.324-3.944 2.397-8.622 3.596-14.036 3.596Zm0-6.032c5.878 0 10.595-2.049 14.152-6.148 3.558-4.099 5.336-10.053 5.336-17.864 0-7.81-1.778-13.765-5.336-17.864-3.557-4.099-8.274-6.148-14.152-6.148-5.954 0-10.71 2.05-14.268 6.148-3.48 4.099-5.22 10.053-5.22 17.864 0 7.81 1.74 13.765 5.22 17.864 3.558 4.099 8.314 6.148 14.268 6.148Zm65.137 6.032c-5.491 0-10.247-1.199-14.268-3.596-3.944-2.397-6.999-5.839-9.164-10.324-2.165-4.485-3.248-9.86-3.248-16.124 0-6.187 1.083-11.523 3.248-16.008 2.165-4.485 5.22-7.927 9.164-10.324 4.021-2.475 8.777-3.712 14.268-3.712 5.413 0 10.092 1.237 14.036 3.712 4.021 2.397 7.115 5.839 9.28 10.324 2.243 4.485 3.364 9.821 3.364 16.008 0 6.264-1.121 11.639-3.364 16.124-2.165 4.485-5.259 7.927-9.28 10.324-3.944 2.397-8.623 3.596-14.036 3.596Zm0-6.032c5.877 0 10.595-2.049 14.152-6.148 3.557-4.099 5.336-10.053 5.336-17.864 0-7.81-1.779-13.765-5.336-17.864-3.557-4.099-8.275-6.148-14.152-6.148-5.955 0-10.711 2.05-14.268 6.148-3.48 4.099-5.22 10.053-5.22 17.864 0 7.81 1.74 13.765 5.22 17.864 3.557 4.099 8.313 6.148 14.268 6.148ZM959.4 121V68.568h-11.6v-5.684h13.34l-1.74 1.856V54.648c0-6.187 1.547-10.981 4.64-14.384 3.094-3.403 7.502-5.104 13.224-5.104 1.47 0 2.978.155 4.524.464 1.547.232 2.823.541 3.828.928v6.264c-.928-.387-2.049-.735-3.364-1.044a18.18 18.18 0 0 0-4.176-.464c-2.552 0-4.717.541-6.496 1.624-1.701 1.083-3.016 2.668-3.944 4.756-.85 2.01-1.276 4.601-1.276 7.772v9.28l-1.16-1.856h17.864v5.684h-16.588V121H959.4Zm87.36.928c-5.49 0-10.25-1.199-14.27-3.596-3.94-2.397-7-5.839-9.16-10.324-2.17-4.485-3.25-9.86-3.25-16.124 0-6.187 1.08-11.523 3.25-16.008 2.16-4.485 5.22-7.927 9.16-10.324 4.02-2.475 8.78-3.712 14.27-3.712 5.41 0 10.09 1.237 14.04 3.712 4.02 2.397 7.11 5.839 9.28 10.324 2.24 4.485 3.36 9.821 3.36 16.008 0 6.264-1.12 11.639-3.36 16.124-2.17 4.485-5.26 7.927-9.28 10.324-3.95 2.397-8.63 3.596-14.04 3.596Zm0-6.032c5.88 0 10.59-2.049 14.15-6.148 3.56-4.099 5.34-10.053 5.34-17.864 0-7.81-1.78-13.765-5.34-17.864-3.56-4.099-8.27-6.148-14.15-6.148-5.95 0-10.71 2.05-14.27 6.148-3.48 4.099-5.22 10.053-5.22 17.864 0 7.81 1.74 13.765 5.22 17.864 3.56 4.099 8.32 6.148 14.27 6.148Zm44.39 5.104V68.568h-11.6v-5.684h13.34l-1.74 1.856V54.648c0-6.187 1.54-10.981 4.64-14.384 3.09-3.403 7.5-5.104 13.22-5.104 1.47 0 2.98.155 4.52.464 1.55.232 2.83.541 3.83.928v6.264c-.93-.387-2.05-.735-3.36-1.044-1.32-.31-2.71-.464-4.18-.464-2.55 0-4.71.541-6.49 1.624-1.7 1.083-3.02 2.668-3.95 4.756-.85 2.01-1.27 4.601-1.27 7.772v9.28l-1.16-1.856h17.86v5.684h-16.59V121h-7.07Zm91.42.928c-6.58 0-12.38-.851-17.4-2.552-5.03-1.701-9.52-4.176-13.46-7.424l3.02-5.916c2.78 2.165 5.49 3.944 8.12 5.336 2.7 1.392 5.64 2.436 8.81 3.132 3.17.619 6.77.928 10.79.928 7.19 0 12.61-1.392 16.24-4.176 3.63-2.861 5.45-6.612 5.45-11.252 0-4.021-1.27-7.076-3.83-9.164-2.47-2.165-6.84-3.867-13.1-5.104l-11.84-2.436c-7.5-1.547-13.1-4.021-16.82-7.424-3.63-3.403-5.45-8.043-5.45-13.92 0-4.795 1.24-8.97 3.71-12.528 2.48-3.557 5.92-6.303 10.33-8.236 4.41-1.933 9.51-2.9 15.31-2.9 5.8 0 11.06.89 15.78 2.668 4.79 1.701 8.89 4.253 12.29 7.656l-2.9 5.8c-3.63-3.403-7.46-5.839-11.48-7.308-4.02-1.547-8.59-2.32-13.69-2.32-6.73 0-12.06 1.547-16.01 4.64-3.94 3.016-5.91 7.115-5.91 12.296 0 4.176 1.23 7.424 3.71 9.744 2.55 2.32 6.65 4.06 12.29 5.22l11.95 2.436c7.97 1.624 13.81 4.021 17.52 7.192 3.71 3.093 5.57 7.54 5.57 13.34 0 4.408-1.2 8.313-3.6 11.716-2.32 3.325-5.65 5.916-9.98 7.772-4.33 1.856-9.47 2.784-15.42 2.784Zm62.9 0c-5.18 0-9.16-1.547-11.95-4.64-2.7-3.093-4.06-7.849-4.06-14.268V68.568h-11.6v-5.684h11.6v-16.24l7.08-2.32v18.56h17.17v5.684h-17.17v33.408c0 4.872.77 8.391 2.32 10.556 1.55 2.165 4.02 3.248 7.42 3.248 1.55 0 2.9-.155 4.06-.464 1.24-.309 2.28-.657 3.13-1.044v6.264c-.92.387-2.12.696-3.59.928-1.47.309-2.94.464-4.41.464Zm42.33 0c-5.26 0-9.82-1.199-13.69-3.596-3.86-2.397-6.84-5.839-8.93-10.324-2.09-4.485-3.13-9.86-3.13-16.124 0-6.264 1.04-11.6 3.13-16.008 2.17-4.485 5.18-7.927 9.05-10.324 3.87-2.475 8.39-3.712 13.57-3.712 5.34 0 9.94 1.392 13.8 4.176 3.95 2.784 6.54 6.573 7.78 11.368h-1.4l1.16-14.5h6.85c-.23 2.243-.47 4.447-.7 6.612a92.365 92.365 0 0 0-.23 6.38V121h-7.08v-14.5h1.28c-1.24 4.795-3.83 8.584-7.77 11.368-3.87 2.707-8.43 4.06-13.69 4.06Zm.93-6.032c5.95 0 10.67-2.049 14.15-6.148 3.48-4.099 5.22-10.053 5.22-17.864 0-7.81-1.74-13.765-5.22-17.864-3.48-4.099-8.2-6.148-14.15-6.148-5.96 0-10.71 2.05-14.27 6.148-3.48 4.099-5.22 10.053-5.22 17.864 0 7.81 1.74 13.765 5.22 17.864 3.56 4.099 8.31 6.148 14.27 6.148ZM1334.3 121V35.624h7.07v53.592h.23l28.66-26.332h9.16l-32.94 30.276.34-4.292L1382.9 121h-9.63l-31.67-27.956h-.23V121h-7.07Zm81.12.928c-8.81 0-15.81-2.629-20.99-7.888-5.11-5.259-7.66-12.567-7.66-21.924 0-6.187 1.12-11.523 3.37-16.008 2.32-4.485 5.52-7.965 9.62-10.44 4.1-2.552 8.86-3.828 14.27-3.828 5.18 0 9.55 1.121 13.11 3.364 3.56 2.165 6.3 5.297 8.24 9.396 1.93 4.021 2.9 8.816 2.9 14.384v3.248h-46.4v-5.104h41.99l-1.97 1.508c0-6.573-1.51-11.716-4.53-15.428-3.01-3.79-7.5-5.684-13.45-5.684-6.35 0-11.3 2.204-14.85 6.612-3.56 4.33-5.34 10.092-5.34 17.284v.812c0 7.733 1.9 13.611 5.69 17.632 3.86 4.021 9.24 6.032 16.12 6.032 3.56 0 6.88-.541 9.98-1.624 3.09-1.083 6.07-2.939 8.93-5.568l2.9 5.22c-2.48 2.552-5.69 4.524-9.63 5.916-3.94 1.392-8.04 2.088-12.3 2.088Z"/><defs><radialGradient id="a" cx="0" cy="0" r="1" gradientTransform="matrix(170.715 0 0 170.711 128.381 149.728)" gradientUnits="userSpaceOnUse"><stop stop-color="#EC991C"/><stop offset="1" stop-color="#E9B213"/></radialGradient></defs></svg>