<svg width="1616" height="152" viewBox="0 0 1616 152" fill="none" xmlns="http://www.w3.org/2000/svg">
<path d="M168.757 68.7407L133.201 7.11111C130.641 2.70222 125.947 0 120.874 0H49.7614C44.6887 0 39.9952 2.70222 37.4588 7.11111L1.90228 68.7407C-0.634092 73.1496 -0.634092 78.5541 1.90228 82.963L37.4588 144.593C39.9952 149.001 44.6887 151.704 49.7614 151.704H120.874C125.947 151.704 130.641 149.001 133.177 144.593L168.734 82.963C171.294 78.5541 171.294 73.1496 168.757 68.7407Z" fill="url(#paint0_radial_264_2814)"/>
<path d="M295.101 30.8145H310.557V120.889H298.657L250.063 58.0737V120.889H234.655V30.8145H246.507L295.101 93.6293V30.8145Z" fill="#1F2348"/>
<path d="M341.325 120.889V30.8145H357.918V120.889H341.325Z" fill="#1F2348"/>
<path d="M463.402 30.8145H476.44V120.889H462.217V65.1848L437.92 120.889H427.253L402.956 65.1848V120.889H388.733V30.8145H401.771L432.586 101.333L463.402 30.8145Z" fill="#1F2348"/>
<path d="M507.256 120.889V30.8145H523.848V120.889H507.256Z" fill="#1F2348"/>
<path d="M634.69 100.362C629.855 109.962 622.34 115.603 615.679 118.353C616.462 120.154 620.136 125.18 622.909 128.071C625.683 130.963 628.598 133.902 632.296 136.889L621.037 145.778C616.888 142.886 613.285 139.425 609.611 135.396C605.937 131.366 602.808 126.91 599.963 121.956C599.276 122.003 597.356 122.074 596.147 122.074C586.973 122.074 579.317 120.202 572.703 116.48C566.09 112.735 561.041 107.378 557.556 100.362C554.356 93.9854 552.294 85.4758 552.294 75.8521C552.294 66.2284 554.072 58.3588 557.604 51.3425C561.136 44.3499 566.208 38.9691 572.822 35.224C579.435 31.4788 587.163 29.6299 596.147 29.6299C605.131 29.6299 612.977 31.5025 619.591 35.224C626.204 38.9691 631.253 44.3262 634.738 51.3425C638.246 58.3588 640 66.2284 640 75.8521C640 85.4758 637.89 94.0091 634.69 100.362ZM576.069 100.433C580.858 106.169 587.542 109.037 596.147 109.037C604.752 109.037 611.46 106.169 616.225 100.433C621.013 94.6728 623.407 86.5662 623.407 75.8521C623.407 65.2091 621.013 56.9128 616.225 51.224C611.436 45.5351 604.752 42.6669 596.147 42.6669C587.542 42.6669 580.834 45.4877 576.069 51.1528C571.281 56.818 568.887 65.138 568.887 75.8521C568.887 86.5662 571.281 94.6728 576.069 100.433Z" fill="#1F2348"/>
<path d="M714.788 121V39.22H740.656C749.627 39.22 757.205 40.8053 763.392 43.976C769.579 47.0693 774.257 51.6707 777.428 57.78C780.676 63.812 782.3 71.236 782.3 80.052C782.3 88.868 780.676 96.3307 777.428 102.44C774.257 108.549 769.579 113.189 763.392 116.36C757.205 119.453 749.627 121 740.656 121H714.788ZM721.98 114.62H740.076C751.753 114.62 760.453 111.759 766.176 106.036C771.899 100.236 774.76 91.5747 774.76 80.052C774.76 68.452 771.899 59.7907 766.176 54.068C760.453 48.3453 751.753 45.484 740.076 45.484H721.98V114.62ZM824.435 121.928C815.619 121.928 808.621 119.299 803.439 114.04C798.335 108.781 795.783 101.473 795.783 92.116C795.783 85.9293 796.905 80.5933 799.147 76.108C801.467 71.6227 804.677 68.1427 808.775 65.668C812.874 63.116 817.63 61.84 823.043 61.84C828.225 61.84 832.594 62.9613 836.151 65.204C839.709 67.3693 842.454 70.5013 844.387 74.6C846.321 78.6213 847.287 83.416 847.287 88.984V92.232H800.887V87.128H842.879L840.907 88.636C840.907 82.0627 839.399 76.92 836.383 73.208C833.367 69.4187 828.882 67.524 822.927 67.524C816.586 67.524 811.637 69.728 808.079 74.136C804.522 78.4667 802.743 84.228 802.743 91.42V92.232C802.743 99.9653 804.638 105.843 808.427 109.864C812.294 113.885 817.669 115.896 824.551 115.896C828.109 115.896 831.434 115.355 834.527 114.272C837.621 113.189 840.598 111.333 843.459 108.704L846.359 113.924C843.885 116.476 840.675 118.448 836.731 119.84C832.787 121.232 828.689 121.928 824.435 121.928ZM878.968 121L854.26 62.884H862.148L884.188 116.592H881.172L903.444 62.884H910.984L886.276 121H878.968ZM947.006 121.928C938.19 121.928 931.191 119.299 926.01 114.04C920.906 108.781 918.354 101.473 918.354 92.116C918.354 85.9293 919.475 80.5933 921.718 76.108C924.038 71.6227 927.247 68.1427 931.346 65.668C935.444 63.116 940.2 61.84 945.614 61.84C950.795 61.84 955.164 62.9613 958.722 65.204C962.279 67.3693 965.024 70.5013 966.958 74.6C968.891 78.6213 969.858 83.416 969.858 88.984V92.232H923.458V87.128H965.45L963.478 88.636C963.478 82.0627 961.97 76.92 958.954 73.208C955.938 69.4187 951.452 67.524 945.498 67.524C939.156 67.524 934.207 69.728 930.65 74.136C927.092 78.4667 925.314 84.228 925.314 91.42V92.232C925.314 99.9653 927.208 105.843 930.998 109.864C934.864 113.885 940.239 115.896 947.122 115.896C950.679 115.896 954.004 115.355 957.098 114.272C960.191 113.189 963.168 111.333 966.03 108.704L968.93 113.924C966.455 116.476 963.246 118.448 959.302 119.84C955.358 121.232 951.259 121.928 947.006 121.928ZM985.05 121V35.624H992.126V121H985.05ZM1034.41 121.928C1028.92 121.928 1024.17 120.729 1020.14 118.332C1016.2 115.935 1013.15 112.493 1010.98 108.008C1008.82 103.523 1007.73 98.148 1007.73 91.884C1007.73 85.6973 1008.82 80.3613 1010.98 75.876C1013.15 71.3907 1016.2 67.9493 1020.14 65.552C1024.17 63.0773 1028.92 61.84 1034.41 61.84C1039.83 61.84 1044.5 63.0773 1048.45 65.552C1052.47 67.9493 1055.56 71.3907 1057.73 75.876C1059.97 80.3613 1061.09 85.6973 1061.09 91.884C1061.09 98.148 1059.97 103.523 1057.73 108.008C1055.56 112.493 1052.47 115.935 1048.45 118.332C1044.5 120.729 1039.83 121.928 1034.41 121.928ZM1034.41 115.896C1040.29 115.896 1045.01 113.847 1048.56 109.748C1052.12 105.649 1053.9 99.6947 1053.9 91.884C1053.9 84.0733 1052.12 78.1187 1048.56 74.02C1045.01 69.9213 1040.29 67.872 1034.41 67.872C1028.46 67.872 1023.7 69.9213 1020.14 74.02C1016.66 78.1187 1014.92 84.0733 1014.92 91.884C1014.92 99.6947 1016.66 105.649 1020.14 109.748C1023.7 113.847 1028.46 115.896 1034.41 115.896ZM1076.58 146.056V75.876C1076.58 73.788 1076.5 71.6613 1076.35 69.496C1076.19 67.3307 1075.96 65.1267 1075.65 62.884H1082.61L1083.77 77.384H1082.38C1083.7 72.5893 1086.25 68.8 1090.04 66.016C1093.83 63.232 1098.43 61.84 1103.84 61.84C1109.1 61.84 1113.62 63.0773 1117.41 65.552C1121.28 67.9493 1124.3 71.3907 1126.46 75.876C1128.63 80.284 1129.71 85.62 1129.71 91.884C1129.71 98.148 1128.63 103.523 1126.46 108.008C1124.37 112.493 1121.4 115.935 1117.53 118.332C1113.66 120.729 1109.1 121.928 1103.84 121.928C1098.51 121.928 1093.9 120.575 1090.04 117.868C1086.25 115.084 1083.7 111.295 1082.38 106.5H1083.66V146.056H1076.58ZM1102.91 115.896C1108.87 115.896 1113.62 113.847 1117.18 109.748C1120.74 105.649 1122.52 99.6947 1122.52 91.884C1122.52 84.0733 1120.74 78.1187 1117.18 74.02C1113.62 69.9213 1108.87 67.872 1102.91 67.872C1097.04 67.872 1092.32 69.9213 1088.76 74.02C1085.28 78.1187 1083.54 84.0733 1083.54 91.884C1083.54 99.6947 1085.28 105.649 1088.76 109.748C1092.32 113.847 1097.04 115.896 1102.91 115.896ZM1170.06 121.928C1161.24 121.928 1154.24 119.299 1149.06 114.04C1143.96 108.781 1141.4 101.473 1141.4 92.116C1141.4 85.9293 1142.53 80.5933 1144.77 76.108C1147.09 71.6227 1150.3 68.1427 1154.4 65.668C1158.49 63.116 1163.25 61.84 1168.66 61.84C1173.85 61.84 1178.21 62.9613 1181.77 65.204C1185.33 67.3693 1188.07 70.5013 1190.01 74.6C1191.94 78.6213 1192.91 83.416 1192.91 88.984V92.232H1146.51V87.128H1188.5L1186.53 88.636C1186.53 82.0627 1185.02 76.92 1182 73.208C1178.99 69.4187 1174.5 67.524 1168.55 67.524C1162.21 67.524 1157.26 69.728 1153.7 74.136C1150.14 78.4667 1148.36 84.228 1148.36 91.42V92.232C1148.36 99.9653 1150.26 105.843 1154.05 109.864C1157.91 113.885 1163.29 115.896 1170.17 115.896C1173.73 115.896 1177.05 115.355 1180.15 114.272C1183.24 113.189 1186.22 111.333 1189.08 108.704L1191.98 113.924C1189.51 116.476 1186.3 118.448 1182.35 119.84C1178.41 121.232 1174.31 121.928 1170.06 121.928ZM1207.98 121V76.456C1207.98 74.2133 1207.91 71.9707 1207.75 69.728C1207.68 67.408 1207.48 65.1267 1207.17 62.884H1214.13L1215.06 76.224L1213.67 76.34C1214.44 73.092 1215.83 70.424 1217.84 68.336C1219.86 66.1707 1222.18 64.5467 1224.8 63.464C1227.43 62.3813 1230.14 61.84 1232.92 61.84C1233.93 61.84 1234.86 61.9173 1235.71 62.072C1236.64 62.1493 1237.49 62.304 1238.26 62.536L1238.03 68.916C1237.1 68.6067 1236.17 68.4133 1235.24 68.336C1234.32 68.2587 1233.31 68.22 1232.23 68.22C1228.75 68.22 1225.69 69.0707 1223.06 70.772C1220.51 72.4733 1218.54 74.6387 1217.15 77.268C1215.76 79.8973 1215.06 82.5653 1215.06 85.272V121H1207.98ZM1313.72 121.928C1305.68 121.928 1298.83 120.265 1293.19 116.94C1287.62 113.537 1283.37 108.704 1280.43 102.44C1277.49 96.176 1276.02 88.7133 1276.02 80.052C1276.02 71.3907 1277.49 63.9667 1280.43 57.78C1283.37 51.516 1287.62 46.7213 1293.19 43.396C1298.83 39.9933 1305.68 38.292 1313.72 38.292C1319.6 38.292 1324.82 39.22 1329.38 41.076C1333.94 42.8547 1337.93 45.5227 1341.33 49.08L1338.31 54.88C1334.52 51.4 1330.73 48.8867 1326.94 47.34C1323.16 45.716 1318.75 44.904 1313.72 44.904C1303.9 44.904 1296.44 47.9973 1291.33 54.184C1286.23 60.2933 1283.68 68.916 1283.68 80.052C1283.68 91.188 1286.23 99.8493 1291.33 106.036C1296.44 112.223 1303.9 115.316 1313.72 115.316C1318.75 115.316 1323.16 114.543 1326.94 112.996C1330.73 111.372 1334.52 108.82 1338.31 105.34L1341.33 111.14C1337.93 114.697 1333.9 117.404 1329.26 119.26C1324.7 121.039 1319.52 121.928 1313.72 121.928ZM1378.27 121.928C1369.45 121.928 1362.45 119.299 1357.27 114.04C1352.17 108.781 1349.62 101.473 1349.62 92.116C1349.62 85.9293 1350.74 80.5933 1352.98 76.108C1355.3 71.6227 1358.51 68.1427 1362.61 65.668C1366.71 63.116 1371.46 61.84 1376.88 61.84C1382.06 61.84 1386.43 62.9613 1389.98 65.204C1393.54 67.3693 1396.29 70.5013 1398.22 74.6C1400.15 78.6213 1401.12 83.416 1401.12 88.984V92.232H1354.72V87.128H1396.71L1394.74 88.636C1394.74 82.0627 1393.23 76.92 1390.22 73.208C1387.2 69.4187 1382.71 67.524 1376.76 67.524C1370.42 67.524 1365.47 69.728 1361.91 74.136C1358.35 78.4667 1356.58 84.228 1356.58 91.42V92.232C1356.58 99.9653 1358.47 105.843 1362.26 109.864C1366.13 113.885 1371.5 115.896 1378.38 115.896C1381.94 115.896 1385.27 115.355 1388.36 114.272C1391.45 113.189 1394.43 111.333 1397.29 108.704L1400.19 113.924C1397.72 116.476 1394.51 118.448 1390.56 119.84C1386.62 121.232 1382.52 121.928 1378.27 121.928ZM1416.31 121V75.876C1416.31 73.788 1416.23 71.6613 1416.08 69.496C1415.92 67.3307 1415.69 65.1267 1415.38 62.884H1422.34L1423.39 76.224H1422C1423.7 71.584 1426.44 68.0267 1430.23 65.552C1434.02 63.0773 1438.43 61.84 1443.46 61.84C1450.34 61.84 1455.52 63.6573 1459 67.292C1462.56 70.9267 1464.34 76.6107 1464.34 84.344V121H1457.26V84.924C1457.26 78.9693 1456.06 74.6773 1453.66 72.048C1451.27 69.3413 1447.55 67.988 1442.53 67.988C1436.65 67.988 1431.97 69.7667 1428.49 73.324C1425.09 76.8813 1423.39 81.676 1423.39 87.708V121H1416.31ZM1502.17 121.928C1496.98 121.928 1493 120.381 1490.22 117.288C1487.51 114.195 1486.16 109.439 1486.16 103.02V68.568H1474.56V62.884H1486.16V46.644L1493.23 44.324V62.884H1510.4V68.568H1493.23V101.976C1493.23 106.848 1494.01 110.367 1495.55 112.532C1497.1 114.697 1499.58 115.78 1502.98 115.78C1504.52 115.78 1505.88 115.625 1507.04 115.316C1508.28 115.007 1509.32 114.659 1510.17 114.272V120.536C1509.24 120.923 1508.04 121.232 1506.57 121.464C1505.1 121.773 1503.64 121.928 1502.17 121.928ZM1546.83 121.928C1538.01 121.928 1531.02 119.299 1525.83 114.04C1520.73 108.781 1518.18 101.473 1518.18 92.116C1518.18 85.9293 1519.3 80.5933 1521.54 76.108C1523.86 71.6227 1527.07 68.1427 1531.17 65.668C1535.27 63.116 1540.02 61.84 1545.44 61.84C1550.62 61.84 1554.99 62.9613 1558.55 65.204C1562.1 67.3693 1564.85 70.5013 1566.78 74.6C1568.72 78.6213 1569.68 83.416 1569.68 88.984V92.232H1523.28V87.128H1565.27L1563.3 88.636C1563.3 82.0627 1561.79 76.92 1558.78 73.208C1555.76 69.4187 1551.28 67.524 1545.32 67.524C1538.98 67.524 1534.03 69.728 1530.47 74.136C1526.92 78.4667 1525.14 84.228 1525.14 91.42V92.232C1525.14 99.9653 1527.03 105.843 1530.82 109.864C1534.69 113.885 1540.06 115.896 1546.95 115.896C1550.5 115.896 1553.83 115.355 1556.92 114.272C1560.02 113.189 1562.99 111.333 1565.85 108.704L1568.75 113.924C1566.28 116.476 1563.07 118.448 1559.13 119.84C1555.18 121.232 1551.08 121.928 1546.83 121.928ZM1584.76 121V76.456C1584.76 74.2133 1584.68 71.9707 1584.53 69.728C1584.45 67.408 1584.26 65.1267 1583.95 62.884H1590.91L1591.83 76.224L1590.44 76.34C1591.22 73.092 1592.61 70.424 1594.62 68.336C1596.63 66.1707 1598.95 64.5467 1601.58 63.464C1604.21 62.3813 1606.91 61.84 1609.7 61.84C1610.7 61.84 1611.63 61.9173 1612.48 62.072C1613.41 62.1493 1614.26 62.304 1615.03 62.536L1614.8 68.916C1613.87 68.6067 1612.95 68.4133 1612.02 68.336C1611.09 68.2587 1610.08 68.22 1609 68.22C1605.52 68.22 1602.47 69.0707 1599.84 70.772C1597.29 72.4733 1595.31 74.6387 1593.92 77.268C1592.53 79.8973 1591.83 82.5653 1591.83 85.272V121H1584.76Z" fill="#1F2348"/>
<defs>
<radialGradient id="paint0_radial_264_2814" cx="0" cy="0" r="1" gradientUnits="userSpaceOnUse" gradientTransform="translate(128.381 149.728) scale(170.715 170.711)">
<stop stop-color="#EC991C"/>
<stop offset="1" stop-color="#E9B213"/>
</radialGradient>
</defs>
</svg>
