<svg width="1444" height="152" viewBox="0 0 1444 152" fill="none" xmlns="http://www.w3.org/2000/svg">
<path d="M168.757 68.7407L133.201 7.11111C130.641 2.70222 125.947 0 120.874 0H49.7614C44.6887 0 39.9952 2.70222 37.4588 7.11111L1.90228 68.7407C-0.634092 73.1496 -0.634092 78.5541 1.90228 82.963L37.4588 144.593C39.9952 149.001 44.6887 151.704 49.7614 151.704H120.874C125.947 151.704 130.641 149.001 133.177 144.593L168.734 82.963C171.294 78.5541 171.294 73.1496 168.757 68.7407Z" fill="url(#paint0_radial_263_2792)"/>
<path d="M295.101 30.8145H310.557V120.889H298.657L250.063 58.0737V120.889H234.655V30.8145H246.507L295.101 93.6293V30.8145Z" fill="#1F2348"/>
<path d="M341.325 120.889V30.8145H357.918V120.889H341.325Z" fill="#1F2348"/>
<path d="M463.402 30.8145H476.44V120.889H462.217V65.1848L437.92 120.889H427.253L402.956 65.1848V120.889H388.733V30.8145H401.771L432.586 101.333L463.402 30.8145Z" fill="#1F2348"/>
<path d="M507.256 120.889V30.8145H523.848V120.889H507.256Z" fill="#1F2348"/>
<path d="M634.69 100.362C629.855 109.962 622.34 115.603 615.679 118.353C616.462 120.154 620.136 125.18 622.909 128.071C625.683 130.963 628.598 133.902 632.296 136.889L621.037 145.778C616.888 142.886 613.285 139.425 609.611 135.396C605.937 131.366 602.808 126.91 599.963 121.956C599.276 122.003 597.356 122.074 596.147 122.074C586.973 122.074 579.317 120.202 572.703 116.48C566.09 112.735 561.041 107.378 557.556 100.362C554.356 93.9854 552.294 85.4758 552.294 75.8521C552.294 66.2284 554.072 58.3588 557.604 51.3425C561.136 44.3499 566.208 38.9691 572.822 35.224C579.435 31.4788 587.163 29.6299 596.147 29.6299C605.131 29.6299 612.977 31.5025 619.591 35.224C626.204 38.9691 631.253 44.3262 634.738 51.3425C638.246 58.3588 640 66.2284 640 75.8521C640 85.4758 637.89 94.0091 634.69 100.362ZM576.069 100.433C580.858 106.169 587.542 109.037 596.147 109.037C604.752 109.037 611.46 106.169 616.225 100.433C621.013 94.6728 623.407 86.5662 623.407 75.8521C623.407 65.2091 621.013 56.9128 616.225 51.224C611.436 45.5351 604.752 42.6669 596.147 42.6669C587.542 42.6669 580.834 45.4877 576.069 51.1528C571.281 56.818 568.887 65.138 568.887 75.8521C568.887 86.5662 571.281 94.6728 576.069 100.433Z" fill="#1F2348"/>
<path d="M740.192 121L704.812 39.22H712.584L745.412 115.896H742.28L775.34 39.22H782.88L747.268 121H740.192ZM808.848 121.928C803.589 121.928 799.026 120.729 795.16 118.332C791.293 115.935 788.316 112.493 786.228 108.008C784.14 103.523 783.096 98.148 783.096 91.884C783.096 85.62 784.14 80.284 786.228 75.876C788.393 71.3907 791.409 67.9493 795.276 65.552C799.142 63.0773 803.666 61.84 808.848 61.84C814.184 61.84 818.785 63.232 822.652 66.016C826.596 68.8 829.186 72.5893 830.424 77.384H829.032L830.192 62.884H837.036C836.804 65.1267 836.572 67.3307 836.34 69.496C836.185 71.6613 836.108 73.788 836.108 75.876V121H829.032V106.5H830.308C829.07 111.295 826.48 115.084 822.536 117.868C818.669 120.575 814.106 121.928 808.848 121.928ZM809.776 115.896C815.73 115.896 820.448 113.847 823.928 109.748C827.408 105.649 829.148 99.6947 829.148 91.884C829.148 84.0733 827.408 78.1187 823.928 74.02C820.448 69.9213 815.73 67.872 809.776 67.872C803.821 67.872 799.065 69.9213 795.508 74.02C792.028 78.1187 790.288 84.0733 790.288 91.884C790.288 99.6947 792.028 105.649 795.508 109.748C799.065 113.847 803.821 115.896 809.776 115.896ZM855.343 121V35.624H862.419V121H855.343ZM881.737 121V62.884H888.813V121H881.737ZM880.577 48.616V39.8H890.089V48.616H880.577ZM930.056 121.928C924.875 121.928 920.351 120.729 916.484 118.332C912.617 115.935 909.64 112.493 907.552 108.008C905.464 103.523 904.42 98.148 904.42 91.884C904.42 85.62 905.464 80.284 907.552 75.876C909.64 71.3907 912.617 67.9493 916.484 65.552C920.351 63.0773 924.875 61.84 930.056 61.84C935.392 61.84 939.993 63.232 943.86 66.016C947.804 68.7227 950.433 72.4733 951.748 77.268H950.356V35.624H957.432V121H950.472V106.384H951.748C950.433 111.256 947.804 115.084 943.86 117.868C939.993 120.575 935.392 121.928 930.056 121.928ZM930.984 115.896C936.861 115.896 941.579 113.847 945.136 109.748C948.771 105.649 950.588 99.6947 950.588 91.884C950.588 84.0733 948.771 78.1187 945.136 74.02C941.579 69.9213 936.861 67.872 930.984 67.872C925.107 67.872 920.389 69.9213 916.832 74.02C913.352 78.1187 911.612 84.0733 911.612 91.884C911.612 99.6947 913.352 105.649 916.832 109.748C920.389 113.847 925.107 115.896 930.984 115.896ZM998.707 121.928C993.448 121.928 988.886 120.729 985.019 118.332C981.152 115.935 978.175 112.493 976.087 108.008C973.999 103.523 972.955 98.148 972.955 91.884C972.955 85.62 973.999 80.284 976.087 75.876C978.252 71.3907 981.268 67.9493 985.135 65.552C989.002 63.0773 993.526 61.84 998.707 61.84C1004.04 61.84 1008.64 63.232 1012.51 66.016C1016.46 68.8 1019.05 72.5893 1020.28 77.384H1018.89L1020.05 62.884H1026.9C1026.66 65.1267 1026.43 67.3307 1026.2 69.496C1026.04 71.6613 1025.97 73.788 1025.97 75.876V121H1018.89V106.5H1020.17C1018.93 111.295 1016.34 115.084 1012.4 117.868C1008.53 120.575 1003.97 121.928 998.707 121.928ZM999.635 115.896C1005.59 115.896 1010.31 113.847 1013.79 109.748C1017.27 105.649 1019.01 99.6947 1019.01 91.884C1019.01 84.0733 1017.27 78.1187 1013.79 74.02C1010.31 69.9213 1005.59 67.872 999.635 67.872C993.68 67.872 988.924 69.9213 985.367 74.02C981.887 78.1187 980.147 84.0733 980.147 91.884C980.147 99.6947 981.887 105.649 985.367 109.748C988.924 113.847 993.68 115.896 999.635 115.896ZM1063.99 121.928C1058.81 121.928 1054.83 120.381 1052.05 117.288C1049.34 114.195 1047.99 109.439 1047.99 103.02V68.568H1036.39V62.884H1047.99V46.644L1055.06 44.324V62.884H1072.23V68.568H1055.06V101.976C1055.06 106.848 1055.84 110.367 1057.38 112.532C1058.93 114.697 1061.4 115.78 1064.81 115.78C1066.35 115.78 1067.71 115.625 1068.87 115.316C1070.1 115.007 1071.15 114.659 1072 114.272V120.536C1071.07 120.923 1069.87 121.232 1068.4 121.464C1066.93 121.773 1065.46 121.928 1063.99 121.928ZM1106.69 121.928C1101.2 121.928 1096.44 120.729 1092.42 118.332C1088.47 115.935 1085.42 112.493 1083.25 108.008C1081.09 103.523 1080.01 98.148 1080.01 91.884C1080.01 85.6973 1081.09 80.3613 1083.25 75.876C1085.42 71.3907 1088.47 67.9493 1092.42 65.552C1096.44 63.0773 1101.2 61.84 1106.69 61.84C1112.1 61.84 1116.78 63.0773 1120.72 65.552C1124.74 67.9493 1127.84 71.3907 1130 75.876C1132.24 80.3613 1133.37 85.6973 1133.37 91.884C1133.37 98.148 1132.24 103.523 1130 108.008C1127.84 112.493 1124.74 115.935 1120.72 118.332C1116.78 120.729 1112.1 121.928 1106.69 121.928ZM1106.69 115.896C1112.56 115.896 1117.28 113.847 1120.84 109.748C1124.4 105.649 1126.17 99.6947 1126.17 91.884C1126.17 84.0733 1124.4 78.1187 1120.84 74.02C1117.28 69.9213 1112.56 67.872 1106.69 67.872C1100.73 67.872 1095.98 69.9213 1092.42 74.02C1088.94 78.1187 1087.2 84.0733 1087.2 91.884C1087.2 99.6947 1088.94 105.649 1092.42 109.748C1095.98 113.847 1100.73 115.896 1106.69 115.896ZM1148.74 121V76.456C1148.74 74.2133 1148.66 71.9707 1148.51 69.728C1148.43 67.408 1148.24 65.1267 1147.93 62.884H1154.89L1155.81 76.224L1154.42 76.34C1155.2 73.092 1156.59 70.424 1158.6 68.336C1160.61 66.1707 1162.93 64.5467 1165.56 63.464C1168.19 62.3813 1170.89 61.84 1173.68 61.84C1174.68 61.84 1175.61 61.9173 1176.46 62.072C1177.39 62.1493 1178.24 62.304 1179.01 62.536L1178.78 68.916C1177.85 68.6067 1176.93 68.4133 1176 68.336C1175.07 68.2587 1174.07 68.22 1172.98 68.22C1169.5 68.22 1166.45 69.0707 1163.82 70.772C1161.27 72.4733 1159.29 74.6387 1157.9 77.268C1156.51 79.8973 1155.81 82.5653 1155.81 85.272V121H1148.74ZM1207.52 121.928C1203.04 121.928 1198.82 121.271 1194.88 119.956C1191.01 118.641 1187.8 116.824 1185.25 114.504L1188.03 109.284C1190.89 111.604 1193.99 113.344 1197.31 114.504C1200.64 115.587 1204.12 116.128 1207.75 116.128C1212.7 116.128 1216.45 115.2 1219.01 113.344C1221.56 111.488 1222.83 108.975 1222.83 105.804C1222.83 103.329 1222.02 101.319 1220.4 99.772C1218.77 98.2253 1216.07 97.0653 1212.28 96.292L1201.84 94.088C1196.89 92.928 1193.18 91.072 1190.7 88.52C1188.3 85.968 1187.11 82.7587 1187.11 78.892C1187.11 75.5667 1187.96 72.628 1189.66 70.076C1191.44 67.524 1193.95 65.5133 1197.2 64.044C1200.45 62.5747 1204.27 61.84 1208.68 61.84C1212.86 61.84 1216.69 62.536 1220.17 63.928C1223.72 65.2427 1226.62 67.1373 1228.87 69.612L1225.85 74.716C1223.53 72.396 1220.9 70.656 1217.96 69.496C1215.1 68.336 1212.05 67.756 1208.8 67.756C1204 67.756 1200.37 68.7613 1197.89 70.772C1195.42 72.7053 1194.18 75.296 1194.18 78.544C1194.18 81.0187 1194.95 83.068 1196.5 84.692C1198.05 86.2387 1200.48 87.3987 1203.81 88.172L1214.25 90.492C1219.51 91.652 1223.41 93.4307 1225.97 95.828C1228.52 98.2253 1229.79 101.396 1229.79 105.34C1229.79 108.743 1228.87 111.72 1227.01 114.272C1225.15 116.747 1222.56 118.641 1219.24 119.956C1215.91 121.271 1212.01 121.928 1207.52 121.928Z" fill="#1F2348"/>
<defs>
<radialGradient id="paint0_radial_263_2792" cx="0" cy="0" r="1" gradientUnits="userSpaceOnUse" gradientTransform="translate(128.381 149.728) scale(170.715 170.711)">
<stop stop-color="#EC991C"/>
<stop offset="1" stop-color="#E9B213"/>
</radialGradient>
</defs>
</svg>
